<mxfile host="65bd71144e">
    <diagram id="F32jblo7xgtKkY_tZ5hm" name="Page-1">
        <mxGraphModel dx="842" dy="641" grid="0" gridSize="12" guides="1" tooltips="1" connect="1" arrows="1" fold="1" page="1" pageScale="1" pageWidth="1200" pageHeight="1600" background="#FFFFFF" math="0" shadow="0">
            <root>
                <mxCell id="0"/>
                <mxCell id="1" parent="0"/>
                <mxCell id="2" value="&lt;font style=&quot;font-size: 20px;&quot;&gt;&lt;b&gt;PHYSICIAN&lt;/b&gt;&lt;/font&gt;" style="rounded=0;whiteSpace=wrap;html=1;fillColor=#e51400;fontColor=#000000;strokeColor=#B20000;" parent="1" vertex="1">
                    <mxGeometry x="1636" y="1378.9299999999998" width="120" height="60" as="geometry"/>
                </mxCell>
                <mxCell id="3" value="&lt;font style=&quot;font-size: 20px;&quot;&gt;PhysicianID&lt;/font&gt;" style="ellipse;whiteSpace=wrap;html=1;fillColor=#d80073;fontColor=#000000;strokeColor=#A50040;" parent="1" vertex="1">
                    <mxGeometry x="1468" y="1430" width="138" height="78.93" as="geometry"/>
                </mxCell>
                <mxCell id="4" value="&lt;font style=&quot;font-size: 20px;&quot;&gt;PhysicianName&lt;/font&gt;" style="ellipse;whiteSpace=wrap;html=1;fillColor=#d80073;fontColor=#000000;strokeColor=#A50040;" parent="1" vertex="1">
                    <mxGeometry x="1441" y="1275" width="175" height="83.93" as="geometry"/>
                </mxCell>
                <mxCell id="5" value="&lt;font style=&quot;font-size: 20px;&quot;&gt;PhoneNumber&lt;/font&gt;" style="ellipse;whiteSpace=wrap;html=1;fillColor=#d80073;fontColor=#000000;strokeColor=#A50040;" parent="1" vertex="1">
                    <mxGeometry x="1776" y="1248.9299999999998" width="120" height="70" as="geometry"/>
                </mxCell>
                <mxCell id="6" value="" style="endArrow=none;html=1;entryX=1;entryY=0.5;entryDx=0;entryDy=0;exitX=-0.035;exitY=0.414;exitDx=0;exitDy=0;exitPerimeter=0;fillColor=#e3c800;strokeColor=#4C0099;" parent="1" source="10" target="2" edge="1">
                    <mxGeometry width="50" height="50" relative="1" as="geometry">
                        <mxPoint x="1856" y="1413.9299999999998" as="sourcePoint"/>
                        <mxPoint x="1786" y="1428.9299999999998" as="targetPoint"/>
                    </mxGeometry>
                </mxCell>
                <mxCell id="7" value="" style="endArrow=none;html=1;entryX=0;entryY=1;entryDx=0;entryDy=0;fillColor=#e3c800;strokeColor=#4C0099;" parent="1" source="3" target="2" edge="1">
                    <mxGeometry width="50" height="50" relative="1" as="geometry">
                        <mxPoint x="1676" y="1508.9299999999998" as="sourcePoint"/>
                        <mxPoint x="1726" y="1458.9299999999998" as="targetPoint"/>
                    </mxGeometry>
                </mxCell>
                <mxCell id="8" value="" style="endArrow=none;html=1;exitX=1;exitY=0;exitDx=0;exitDy=0;fillColor=#e3c800;strokeColor=#4C0099;" parent="1" source="2" target="5" edge="1">
                    <mxGeometry width="50" height="50" relative="1" as="geometry">
                        <mxPoint x="1696" y="1368.9299999999998" as="sourcePoint"/>
                        <mxPoint x="1746" y="1318.9299999999998" as="targetPoint"/>
                    </mxGeometry>
                </mxCell>
                <mxCell id="9" value="" style="endArrow=none;html=1;entryX=1;entryY=1;entryDx=0;entryDy=0;exitX=0;exitY=0;exitDx=0;exitDy=0;fillColor=#e3c800;strokeColor=#4C0099;" parent="1" source="2" target="4" edge="1">
                    <mxGeometry width="50" height="50" relative="1" as="geometry">
                        <mxPoint x="1456" y="1448.9299999999998" as="sourcePoint"/>
                        <mxPoint x="1506" y="1398.9299999999998" as="targetPoint"/>
                    </mxGeometry>
                </mxCell>
                <mxCell id="10" value="&lt;b&gt;&lt;font style=&quot;font-size: 20px;&quot;&gt;PhysicianAddress&lt;/font&gt;&lt;/b&gt;" style="ellipse;whiteSpace=wrap;html=1;fillColor=#d80073;fontColor=#000000;strokeColor=#A50040;" parent="1" vertex="1">
                    <mxGeometry x="1866" y="1354" width="193" height="79.93" as="geometry"/>
                </mxCell>
                <mxCell id="11" value="&lt;font style=&quot;font-size: 20px;&quot;&gt;PostcalCode&lt;/font&gt;" style="ellipse;whiteSpace=wrap;html=1;fillColor=#d80073;fontColor=#000000;strokeColor=#A50040;" parent="1" vertex="1">
                    <mxGeometry x="1959" y="1486" width="127" height="73" as="geometry"/>
                </mxCell>
                <mxCell id="12" value="&lt;font style=&quot;font-size: 20px;&quot;&gt;City&lt;/font&gt;" style="ellipse;whiteSpace=wrap;html=1;fillColor=#d80073;fontColor=#000000;strokeColor=#A50040;" parent="1" vertex="1">
                    <mxGeometry x="2065" y="1271.4299999999998" width="120" height="70" as="geometry"/>
                </mxCell>
                <mxCell id="13" value="" style="endArrow=none;html=1;entryX=0;entryY=1;entryDx=0;entryDy=0;exitX=1;exitY=0;exitDx=0;exitDy=0;fillColor=#e3c800;strokeColor=#4C0099;" parent="1" source="10" target="12" edge="1">
                    <mxGeometry width="50" height="50" relative="1" as="geometry">
                        <mxPoint x="2196" y="1613.9299999999998" as="sourcePoint"/>
                        <mxPoint x="2246" y="1563.9299999999998" as="targetPoint"/>
                    </mxGeometry>
                </mxCell>
                <mxCell id="14" value="" style="endArrow=none;html=1;entryX=0.5;entryY=1;entryDx=0;entryDy=0;exitX=0.5;exitY=0;exitDx=0;exitDy=0;fillColor=#e3c800;strokeColor=#4C0099;" parent="1" target="10" edge="1">
                    <mxGeometry width="50" height="50" relative="1" as="geometry">
                        <mxPoint x="2006" y="1486.4299999999998" as="sourcePoint"/>
                        <mxPoint x="1906" y="1613.9299999999998" as="targetPoint"/>
                    </mxGeometry>
                </mxCell>
                <mxCell id="15" value="&lt;font style=&quot;font-size: 20px;&quot;&gt;Street&lt;/font&gt;" style="ellipse;whiteSpace=wrap;html=1;fillColor=#d80073;fontColor=#000000;strokeColor=#A50040;" parent="1" vertex="1">
                    <mxGeometry x="2078" y="1394.4999999999998" width="120" height="70" as="geometry"/>
                </mxCell>
                <mxCell id="16" value="" style="endArrow=none;html=1;fontColor=#FFFFFF;entryX=0;entryY=0.5;entryDx=0;entryDy=0;exitX=1;exitY=1;exitDx=0;exitDy=0;fillColor=#e3c800;strokeColor=#4C0099;" parent="1" source="10" target="15" edge="1">
                    <mxGeometry width="50" height="50" relative="1" as="geometry">
                        <mxPoint x="2096" y="1628.9300000000003" as="sourcePoint"/>
                        <mxPoint x="2146" y="1578.9299999999998" as="targetPoint"/>
                    </mxGeometry>
                </mxCell>
                <mxCell id="17" value="" style="whiteSpace=wrap;html=1;aspect=fixed;fontColor=#000000;rotation=45;fillColor=#fa6800;strokeColor=#C73500;" parent="1" vertex="1">
                    <mxGeometry x="1658" y="1126.4299999999998" width="90" height="90" as="geometry"/>
                </mxCell>
                <UserObject label="CREATES" placeholders="1" name="Variable" id="18">
                    <mxCell style="text;html=1;strokeColor=none;fillColor=none;align=center;verticalAlign=middle;whiteSpace=wrap;overflow=hidden;fontColor=#000000;" parent="1" vertex="1">
                        <mxGeometry x="1663" y="1161.4299999999998" width="80" height="20" as="geometry"/>
                    </mxCell>
                </UserObject>
                <mxCell id="19" value="" style="shape=link;html=1;fontColor=#FFFFFF;fillColor=#e3c800;strokeColor=#4C0099;" parent="1" edge="1">
                    <mxGeometry width="100" relative="1" as="geometry">
                        <mxPoint x="1701" y="1236.4299999999998" as="sourcePoint"/>
                        <mxPoint x="1696" y="1376.4299999999998" as="targetPoint"/>
                    </mxGeometry>
                </mxCell>
                <mxCell id="20" value="&lt;font style=&quot;font-size: 20px;&quot;&gt;&lt;b&gt;APPOINTMENT&lt;/b&gt;&lt;/font&gt;" style="rounded=0;whiteSpace=wrap;html=1;fillColor=#e51400;fontColor=#000000;strokeColor=#B20000;" parent="1" vertex="1">
                    <mxGeometry x="1648" y="816.43" width="169" height="66.57" as="geometry"/>
                </mxCell>
                <mxCell id="21" value="&lt;font style=&quot;font-size: 20px;&quot;&gt;PatientID&lt;/font&gt;" style="ellipse;whiteSpace=wrap;html=1;fillColor=#d80073;fontColor=#000000;strokeColor=#A50040;" parent="1" vertex="1">
                    <mxGeometry x="1818" y="726.4299999999998" width="120" height="70" as="geometry"/>
                </mxCell>
                <mxCell id="22" value="&lt;font style=&quot;font-size: 20px;&quot;&gt;date&lt;/font&gt;" style="ellipse;whiteSpace=wrap;html=1;fillColor=#d80073;fontColor=#000000;strokeColor=#A50040;" parent="1" vertex="1">
                    <mxGeometry x="1228" y="956.4299999999998" width="120" height="70" as="geometry"/>
                </mxCell>
                <mxCell id="23" value="&lt;font style=&quot;font-size: 20px;&quot;&gt;time&lt;/font&gt;" style="ellipse;whiteSpace=wrap;html=1;fillColor=#d80073;fontColor=#000000;strokeColor=#A50040;" parent="1" vertex="1">
                    <mxGeometry x="1286" y="1071.4299999999998" width="120" height="70" as="geometry"/>
                </mxCell>
                <mxCell id="24" value="&lt;b&gt;&lt;u&gt;&lt;font style=&quot;font-size: 20px;&quot;&gt;StartDate&lt;/font&gt;&lt;/u&gt;&lt;/b&gt;" style="ellipse;whiteSpace=wrap;html=1;fillColor=#d80073;fontColor=#000000;strokeColor=#A50040;" parent="1" vertex="1">
                    <mxGeometry x="1476" y="936.4299999999998" width="120" height="70" as="geometry"/>
                </mxCell>
                <mxCell id="25" value="" style="endArrow=none;html=1;entryX=0;entryY=1;entryDx=0;entryDy=0;exitX=1;exitY=0.5;exitDx=0;exitDy=0;fillColor=#e3c800;strokeColor=#4C0099;" parent="1" source="24" target="20" edge="1">
                    <mxGeometry width="50" height="50" relative="1" as="geometry">
                        <mxPoint x="1603" y="1011.4299999999998" as="sourcePoint"/>
                        <mxPoint x="1643" y="931.4299999999998" as="targetPoint"/>
                    </mxGeometry>
                </mxCell>
                <mxCell id="26" value="" style="endArrow=none;html=1;exitX=1.001;exitY=0.569;exitDx=0;exitDy=0;entryX=0;entryY=0.5;entryDx=0;entryDy=0;exitPerimeter=0;fillColor=#e3c800;strokeColor=#4C0099;" parent="1" source="22" target="24" edge="1">
                    <mxGeometry width="50" height="50" relative="1" as="geometry">
                        <mxPoint x="1513" y="951.4299999999998" as="sourcePoint"/>
                        <mxPoint x="1563" y="901.4299999999998" as="targetPoint"/>
                    </mxGeometry>
                </mxCell>
                <mxCell id="27" value="" style="endArrow=none;html=1;entryX=0;entryY=1;entryDx=0;entryDy=0;exitX=1;exitY=0;exitDx=0;exitDy=0;fillColor=#e3c800;strokeColor=#4C0099;" parent="1" source="23" target="24" edge="1">
                    <mxGeometry width="50" height="50" relative="1" as="geometry">
                        <mxPoint x="1583" y="1181.4299999999998" as="sourcePoint"/>
                        <mxPoint x="1633" y="1131.4299999999998" as="targetPoint"/>
                    </mxGeometry>
                </mxCell>
                <mxCell id="28" value="&lt;font style=&quot;font-size: 20px;&quot;&gt;date&lt;/font&gt;" style="ellipse;whiteSpace=wrap;html=1;fillColor=#d80073;fontColor=#000000;strokeColor=#A50040;" parent="1" vertex="1">
                    <mxGeometry x="1190" y="737" width="120" height="70" as="geometry"/>
                </mxCell>
                <mxCell id="29" value="&lt;font style=&quot;font-size: 20px;&quot;&gt;time&lt;/font&gt;" style="ellipse;whiteSpace=wrap;html=1;fillColor=#d80073;fontColor=#000000;strokeColor=#A50040;" parent="1" vertex="1">
                    <mxGeometry x="1228" y="866.4299999999998" width="120" height="70" as="geometry"/>
                </mxCell>
                <mxCell id="30" value="&lt;b&gt;&lt;u&gt;&lt;font style=&quot;font-size: 20px;&quot;&gt;EndDate&lt;/font&gt;&lt;/u&gt;&lt;/b&gt;" style="ellipse;whiteSpace=wrap;html=1;fillColor=#d80073;fontColor=#000000;strokeColor=#A50040;" parent="1" vertex="1">
                    <mxGeometry x="1386" y="816.4299999999998" width="120" height="70" as="geometry"/>
                </mxCell>
                <mxCell id="31" value="" style="endArrow=none;html=1;exitX=1;exitY=1;exitDx=0;exitDy=0;entryX=0;entryY=0;entryDx=0;entryDy=0;fillColor=#e3c800;strokeColor=#4C0099;" parent="1" target="30" edge="1">
                    <mxGeometry width="50" height="50" relative="1" as="geometry">
                        <mxPoint x="1294.0367628515537" y="795.8174989492136" as="sourcePoint"/>
                        <mxPoint x="1583" y="656.4299999999998" as="targetPoint"/>
                    </mxGeometry>
                </mxCell>
                <mxCell id="32" value="" style="endArrow=none;html=1;entryX=0;entryY=1;entryDx=0;entryDy=0;exitX=1;exitY=0;exitDx=0;exitDy=0;fillColor=#e3c800;strokeColor=#4C0099;" parent="1" source="29" target="30" edge="1">
                    <mxGeometry width="50" height="50" relative="1" as="geometry">
                        <mxPoint x="1603" y="936.4299999999998" as="sourcePoint"/>
                        <mxPoint x="1653" y="886.4299999999998" as="targetPoint"/>
                    </mxGeometry>
                </mxCell>
                <mxCell id="33" value="" style="endArrow=none;html=1;exitX=1;exitY=1;exitDx=0;exitDy=0;fillColor=#e3c800;strokeColor=#4C0099;" parent="1" source="30" edge="1">
                    <mxGeometry width="50" height="50" relative="1" as="geometry">
                        <mxPoint x="1653" y="751.4299999999998" as="sourcePoint"/>
                        <mxPoint x="1641" y="886.4299999999998" as="targetPoint"/>
                    </mxGeometry>
                </mxCell>
                <mxCell id="34" value="&lt;font style=&quot;font-size: 20px;&quot;&gt;NurseID&lt;/font&gt;" style="ellipse;whiteSpace=wrap;html=1;fillColor=#d80073;fontColor=#000000;strokeColor=#A50040;" parent="1" vertex="1">
                    <mxGeometry x="1736" y="966.4299999999998" width="120" height="70" as="geometry"/>
                </mxCell>
                <mxCell id="35" value="&lt;font style=&quot;font-size: 20px;&quot;&gt;RoomNumber&lt;/font&gt;" style="ellipse;whiteSpace=wrap;html=1;fillColor=#d80073;fontColor=#000000;strokeColor=#A50040;" parent="1" vertex="1">
                    <mxGeometry x="1436" y="730" width="153" height="76.43" as="geometry"/>
                </mxCell>
                <mxCell id="36" value="&lt;font style=&quot;font-size: 20px;&quot;&gt;PhysicianID&lt;/font&gt;" style="ellipse;whiteSpace=wrap;html=1;fillColor=#d80073;fontColor=#000000;strokeColor=#A50040;" parent="1" vertex="1">
                    <mxGeometry x="1856" y="934" width="128" height="72.43" as="geometry"/>
                </mxCell>
                <mxCell id="37" value="" style="endArrow=none;html=1;fontColor=#FFFFFF;entryX=0.643;entryY=1.04;entryDx=0;entryDy=0;exitX=0.221;exitY=0.039;exitDx=0;exitDy=0;entryPerimeter=0;exitPerimeter=0;fillColor=#e3c800;strokeColor=#4C0099;" parent="1" source="34" target="20" edge="1">
                    <mxGeometry width="50" height="50" relative="1" as="geometry">
                        <mxPoint x="1703" y="1066.4299999999998" as="sourcePoint"/>
                        <mxPoint x="1743" y="1026.4299999999998" as="targetPoint"/>
                    </mxGeometry>
                </mxCell>
                <mxCell id="38" value="" style="endArrow=none;html=1;fontColor=#FFFFFF;entryX=1;entryY=1;entryDx=0;entryDy=0;fillColor=#e3c800;strokeColor=#4C0099;" parent="1" source="36" target="20" edge="1">
                    <mxGeometry width="50" height="50" relative="1" as="geometry">
                        <mxPoint x="1723" y="986.4299999999998" as="sourcePoint"/>
                        <mxPoint x="1773" y="936.4299999999998" as="targetPoint"/>
                    </mxGeometry>
                </mxCell>
                <mxCell id="39" value="" style="endArrow=none;html=1;fontColor=#FFFFFF;entryX=0.5;entryY=1;entryDx=0;entryDy=0;exitX=0;exitY=0;exitDx=0;exitDy=0;fillColor=#e3c800;strokeColor=#4C0099;" parent="1" source="20" target="35" edge="1">
                    <mxGeometry width="50" height="50" relative="1" as="geometry">
                        <mxPoint x="1743" y="896.4299999999998" as="sourcePoint"/>
                        <mxPoint x="1793" y="846.4299999999998" as="targetPoint"/>
                    </mxGeometry>
                </mxCell>
                <mxCell id="40" value="" style="endArrow=none;html=1;fontColor=#FFFFFF;entryX=0.184;entryY=0.912;entryDx=0;entryDy=0;exitX=1;exitY=0;exitDx=0;exitDy=0;entryPerimeter=0;fillColor=#e3c800;strokeColor=#4C0099;" parent="1" source="20" target="21" edge="1">
                    <mxGeometry width="50" height="50" relative="1" as="geometry">
                        <mxPoint x="1843" y="896.4299999999998" as="sourcePoint"/>
                        <mxPoint x="1893" y="846.4299999999998" as="targetPoint"/>
                    </mxGeometry>
                </mxCell>
                <mxCell id="41" value="" style="endArrow=none;html=1;fontColor=#FFFFFF;exitX=0;exitY=0;exitDx=0;exitDy=0;entryX=0.5;entryY=1;entryDx=0;entryDy=0;fillColor=#e3c800;strokeColor=#4C0099;" parent="1" source="17" target="20" edge="1">
                    <mxGeometry width="50" height="50" relative="1" as="geometry">
                        <mxPoint x="1671" y="1086.4299999999998" as="sourcePoint"/>
                        <mxPoint x="1721" y="1036.4299999999998" as="targetPoint"/>
                    </mxGeometry>
                </mxCell>
                <UserObject label="&lt;font&gt;N&lt;/font&gt;" placeholders="1" name="Variable" id="42">
                    <mxCell style="text;html=1;strokeColor=none;fillColor=none;align=center;verticalAlign=middle;whiteSpace=wrap;overflow=hidden;fontColor=#000000;" parent="1" vertex="1">
                        <mxGeometry x="1643" y="1026.4299999999998" width="80" height="20" as="geometry"/>
                    </mxCell>
                </UserObject>
                <UserObject label="1" placeholders="1" name="Variable" id="43">
                    <mxCell style="text;html=1;strokeColor=none;fillColor=none;align=center;verticalAlign=middle;whiteSpace=wrap;overflow=hidden;fontColor=#000000;" parent="1" vertex="1">
                        <mxGeometry x="1633" y="1266.4299999999998" width="80" height="20" as="geometry"/>
                    </mxCell>
                </UserObject>
                <mxCell id="44" value="&lt;b&gt;&lt;font style=&quot;font-size: 22px;&quot;&gt;PATIENT&lt;/font&gt;&lt;/b&gt;" style="rounded=0;whiteSpace=wrap;html=1;fillColor=#e51400;fontColor=#000000;strokeColor=#B20000;" parent="1" vertex="1">
                    <mxGeometry x="1642" y="357" width="120" height="60" as="geometry"/>
                </mxCell>
                <mxCell id="45" value="&lt;b&gt;&lt;font style=&quot;font-size: 20px;&quot;&gt;PatientName&lt;/font&gt;&lt;/b&gt;" style="ellipse;whiteSpace=wrap;html=1;fillColor=#d80073;fontColor=#000000;strokeColor=#A50040;" parent="1" vertex="1">
                    <mxGeometry x="1400" y="279" width="140" height="78" as="geometry"/>
                </mxCell>
                <mxCell id="46" value="&lt;font size=&quot;1&quot;&gt;&lt;u style=&quot;font-size: 20px;&quot;&gt;PatientID&lt;/u&gt;&lt;/font&gt;" style="ellipse;whiteSpace=wrap;html=1;fillColor=#d80073;fontColor=#000000;strokeColor=#A50040;" parent="1" vertex="1">
                    <mxGeometry x="1892" y="247" width="120" height="70" as="geometry"/>
                </mxCell>
                <mxCell id="47" value="&lt;font style=&quot;font-size: 20px;&quot;&gt;lastName&lt;/font&gt;" style="ellipse;whiteSpace=wrap;html=1;fillColor=#d80073;fontColor=#000000;strokeColor=#A50040;" parent="1" vertex="1">
                    <mxGeometry x="1245" y="307" width="120" height="70" as="geometry"/>
                </mxCell>
                <mxCell id="48" value="&lt;font style=&quot;font-size: 20px;&quot;&gt;firstName&lt;/font&gt;" style="ellipse;whiteSpace=wrap;html=1;fillColor=#d80073;fontColor=#000000;strokeColor=#A50040;" parent="1" vertex="1">
                    <mxGeometry x="1215" y="147" width="120" height="70" as="geometry"/>
                </mxCell>
                <mxCell id="49" value="" style="endArrow=none;html=1;entryX=0.917;entryY=0.857;entryDx=0;entryDy=0;entryPerimeter=0;exitX=0;exitY=0;exitDx=0;exitDy=0;fillColor=#e3c800;strokeColor=#4C0099;" parent="1" source="45" target="48" edge="1">
                    <mxGeometry width="50" height="50" relative="1" as="geometry">
                        <mxPoint x="1832" y="517" as="sourcePoint"/>
                        <mxPoint x="1882" y="467" as="targetPoint"/>
                    </mxGeometry>
                </mxCell>
                <mxCell id="50" value="" style="endArrow=none;html=1;entryX=0;entryY=1;entryDx=0;entryDy=0;exitX=1;exitY=0;exitDx=0;exitDy=0;fillColor=#e3c800;strokeColor=#4C0099;" parent="1" source="47" target="45" edge="1">
                    <mxGeometry width="50" height="50" relative="1" as="geometry">
                        <mxPoint x="1492" y="567" as="sourcePoint"/>
                        <mxPoint x="1542" y="517" as="targetPoint"/>
                    </mxGeometry>
                </mxCell>
                <mxCell id="51" value="" style="endArrow=none;html=1;entryX=0.5;entryY=1;entryDx=0;entryDy=0;exitX=0.75;exitY=0;exitDx=0;exitDy=0;fillColor=#e3c800;strokeColor=#4C0099;" parent="1" source="44" target="56" edge="1">
                    <mxGeometry width="50" height="50" relative="1" as="geometry">
                        <mxPoint x="1782" y="297" as="sourcePoint"/>
                        <mxPoint x="1692" y="247" as="targetPoint"/>
                    </mxGeometry>
                </mxCell>
                <mxCell id="52" value="" style="endArrow=none;html=1;exitX=1;exitY=0.5;exitDx=0;exitDy=0;entryX=0;entryY=0;entryDx=0;entryDy=0;fillColor=#e3c800;strokeColor=#4C0099;" parent="1" source="45" target="44" edge="1">
                    <mxGeometry width="50" height="50" relative="1" as="geometry">
                        <mxPoint x="1642" y="427" as="sourcePoint"/>
                        <mxPoint x="1692" y="377" as="targetPoint"/>
                    </mxGeometry>
                </mxCell>
                <mxCell id="53" value="&lt;font style=&quot;font-size: 20px;&quot;&gt;InsuranceCode&lt;/font&gt;" style="ellipse;shape=doubleEllipse;whiteSpace=wrap;html=1;fillColor=#d80073;fontColor=#000000;strokeColor=#A50040;" parent="1" vertex="1">
                    <mxGeometry x="1945" y="367" width="168" height="82" as="geometry"/>
                </mxCell>
                <mxCell id="54" value="" style="endArrow=none;html=1;entryX=1;entryY=0.75;entryDx=0;entryDy=0;exitX=0.39;exitY=0.017;exitDx=0;exitDy=0;exitPerimeter=0;fillColor=#e3c800;strokeColor=#4C0099;" parent="1" source="53" target="44" edge="1">
                    <mxGeometry width="50" height="50" relative="1" as="geometry">
                        <mxPoint x="1852" y="437" as="sourcePoint"/>
                        <mxPoint x="1902" y="387" as="targetPoint"/>
                    </mxGeometry>
                </mxCell>
                <mxCell id="55" value="" style="endArrow=none;html=1;entryX=0;entryY=0.5;entryDx=0;entryDy=0;exitX=1;exitY=0.5;exitDx=0;exitDy=0;fillColor=#e3c800;strokeColor=#4C0099;" parent="1" source="44" target="46" edge="1">
                    <mxGeometry width="50" height="50" relative="1" as="geometry">
                        <mxPoint x="1862" y="487" as="sourcePoint"/>
                        <mxPoint x="1912" y="437" as="targetPoint"/>
                    </mxGeometry>
                </mxCell>
                <mxCell id="169" style="edgeStyle=none;html=1;" parent="1" source="56" edge="1">
                    <mxGeometry relative="1" as="geometry">
                        <mxPoint x="2021.0769230769229" y="198.5" as="targetPoint"/>
                    </mxGeometry>
                </mxCell>
                <mxCell id="56" value="&lt;b&gt;&lt;font style=&quot;font-size: 20px;&quot;&gt;PatientAddress&lt;/font&gt;&lt;/b&gt;" style="ellipse;whiteSpace=wrap;html=1;fillColor=#d80073;fontColor=#000000;strokeColor=#A50040;" parent="1" vertex="1">
                    <mxGeometry x="1825" y="157" width="212" height="83" as="geometry"/>
                </mxCell>
                <mxCell id="57" value="&lt;font style=&quot;font-size: 20px;&quot;&gt;PostcalCode&lt;/font&gt;" style="ellipse;whiteSpace=wrap;html=1;fillColor=#d80073;fontColor=#000000;strokeColor=#A50040;" parent="1" vertex="1">
                    <mxGeometry x="1584" y="181" width="141" height="76" as="geometry"/>
                </mxCell>
                <mxCell id="58" value="&lt;font style=&quot;font-size: 20px;&quot;&gt;City&lt;/font&gt;" style="ellipse;whiteSpace=wrap;html=1;fillColor=#d80073;fontColor=#000000;strokeColor=#A50040;" parent="1" vertex="1">
                    <mxGeometry x="1705" y="77" width="120" height="70" as="geometry"/>
                </mxCell>
                <mxCell id="59" value="" style="endArrow=none;html=1;entryX=0.917;entryY=0.857;entryDx=0;entryDy=0;entryPerimeter=0;exitX=0;exitY=0;exitDx=0;exitDy=0;fillColor=#e3c800;strokeColor=#4C0099;" parent="1" source="56" target="58" edge="1">
                    <mxGeometry width="50" height="50" relative="1" as="geometry">
                        <mxPoint x="2045" y="222" as="sourcePoint"/>
                        <mxPoint x="2095" y="172" as="targetPoint"/>
                    </mxGeometry>
                </mxCell>
                <mxCell id="60" value="" style="endArrow=none;html=1;entryX=0;entryY=1;entryDx=0;entryDy=0;exitX=1;exitY=0.5;exitDx=0;exitDy=0;fillColor=#e3c800;strokeColor=#4C0099;" parent="1" source="57" target="56" edge="1">
                    <mxGeometry width="50" height="50" relative="1" as="geometry">
                        <mxPoint x="1705" y="272" as="sourcePoint"/>
                        <mxPoint x="1755" y="222" as="targetPoint"/>
                    </mxGeometry>
                </mxCell>
                <mxCell id="61" value="&lt;font style=&quot;font-size: 20px;&quot;&gt;Street&lt;/font&gt;" style="ellipse;whiteSpace=wrap;html=1;fillColor=#d80073;fontColor=#000000;strokeColor=#A50040;" parent="1" vertex="1">
                    <mxGeometry x="2007" y="90" width="120" height="70" as="geometry"/>
                </mxCell>
                <mxCell id="62" value="" style="endArrow=none;html=1;fontColor=#FFFFFF;entryX=0;entryY=1;entryDx=0;entryDy=0;exitX=1;exitY=0;exitDx=0;exitDy=0;fillColor=#e3c800;strokeColor=#4C0099;" parent="1" source="56" target="61" edge="1">
                    <mxGeometry width="50" height="50" relative="1" as="geometry">
                        <mxPoint x="1945" y="237" as="sourcePoint"/>
                        <mxPoint x="1995" y="187" as="targetPoint"/>
                    </mxGeometry>
                </mxCell>
                <mxCell id="63" value="&lt;font style=&quot;font-size: 20px;&quot;&gt;&lt;b&gt;TEST&lt;/b&gt;&lt;/font&gt;" style="rounded=0;whiteSpace=wrap;html=1;fillColor=#e51400;fontColor=#000000;strokeColor=#B20000;" parent="1" vertex="1">
                    <mxGeometry x="700" y="917" width="120" height="60" as="geometry"/>
                </mxCell>
                <mxCell id="64" value="&lt;font style=&quot;font-size: 20px;&quot;&gt;TestResult&lt;/font&gt;" style="ellipse;whiteSpace=wrap;html=1;fillColor=#d80073;fontColor=#000000;strokeColor=#A50040;" parent="1" vertex="1">
                    <mxGeometry x="955" y="882" width="120" height="70" as="geometry"/>
                </mxCell>
                <mxCell id="65" value="&lt;font style=&quot;font-size: 20px;&quot;&gt;TestType&lt;/font&gt;" style="ellipse;whiteSpace=wrap;html=1;fillColor=#d80073;fontColor=#000000;strokeColor=#A50040;" parent="1" vertex="1">
                    <mxGeometry x="600" y="817" width="120" height="70" as="geometry"/>
                </mxCell>
                <mxCell id="66" value="&lt;font style=&quot;font-size: 20px;&quot;&gt;date&lt;/font&gt;" style="ellipse;whiteSpace=wrap;html=1;fillColor=#d80073;fontColor=#000000;strokeColor=#A50040;" parent="1" vertex="1">
                    <mxGeometry x="360" y="847" width="120" height="70" as="geometry"/>
                </mxCell>
                <mxCell id="67" value="&lt;font style=&quot;font-size: 20px;&quot;&gt;time&lt;/font&gt;" style="ellipse;whiteSpace=wrap;html=1;fillColor=#d80073;fontColor=#000000;strokeColor=#A50040;" parent="1" vertex="1">
                    <mxGeometry x="350" y="982" width="120" height="70" as="geometry"/>
                </mxCell>
                <mxCell id="68" value="&lt;b&gt;&lt;font style=&quot;font-size: 20px;&quot;&gt;TestDate&lt;/font&gt;&lt;/b&gt;" style="ellipse;whiteSpace=wrap;html=1;fillColor=#d80073;fontColor=#000000;strokeColor=#A50040;" parent="1" vertex="1">
                    <mxGeometry x="500" y="912" width="120" height="70" as="geometry"/>
                </mxCell>
                <mxCell id="69" value="" style="endArrow=none;html=1;exitX=1;exitY=1;exitDx=0;exitDy=0;entryX=0;entryY=0;entryDx=0;entryDy=0;fillColor=#e3c800;strokeColor=#4C0099;" parent="1" source="66" target="68" edge="1">
                    <mxGeometry width="50" height="50" relative="1" as="geometry">
                        <mxPoint x="520" y="877" as="sourcePoint"/>
                        <mxPoint x="570" y="827" as="targetPoint"/>
                    </mxGeometry>
                </mxCell>
                <mxCell id="70" value="" style="endArrow=none;html=1;entryX=0;entryY=1;entryDx=0;entryDy=0;exitX=1;exitY=0;exitDx=0;exitDy=0;fillColor=#e3c800;strokeColor=#4C0099;" parent="1" source="67" target="68" edge="1">
                    <mxGeometry width="50" height="50" relative="1" as="geometry">
                        <mxPoint x="590" y="1107" as="sourcePoint"/>
                        <mxPoint x="640" y="1057" as="targetPoint"/>
                    </mxGeometry>
                </mxCell>
                <mxCell id="71" value="&lt;font size=&quot;1&quot;&gt;&lt;u style=&quot;font-size: 20px;&quot;&gt;RecordedID&lt;/u&gt;&lt;/font&gt;" style="ellipse;whiteSpace=wrap;html=1;fillColor=#d80073;fontColor=#000000;strokeColor=#A50040;" parent="1" vertex="1">
                    <mxGeometry x="522" y="1052" width="138" height="80" as="geometry"/>
                </mxCell>
                <mxCell id="72" value="" style="endArrow=none;html=1;fontColor=#FFFFFF;entryX=0.25;entryY=1;entryDx=0;entryDy=0;exitX=0.673;exitY=0.057;exitDx=0;exitDy=0;exitPerimeter=0;fillColor=#e3c800;strokeColor=#4C0099;" parent="1" source="71" target="63" edge="1">
                    <mxGeometry width="50" height="50" relative="1" as="geometry">
                        <mxPoint x="640" y="1077" as="sourcePoint"/>
                        <mxPoint x="690" y="1027" as="targetPoint"/>
                    </mxGeometry>
                </mxCell>
                <mxCell id="73" value="" style="endArrow=none;html=1;fontColor=#FFFFFF;entryX=0;entryY=0.5;entryDx=0;entryDy=0;exitX=1;exitY=0.5;exitDx=0;exitDy=0;fillColor=#e3c800;strokeColor=#4C0099;" parent="1" source="68" target="63" edge="1">
                    <mxGeometry width="50" height="50" relative="1" as="geometry">
                        <mxPoint x="630" y="977" as="sourcePoint"/>
                        <mxPoint x="680" y="927" as="targetPoint"/>
                    </mxGeometry>
                </mxCell>
                <mxCell id="74" value="" style="endArrow=none;html=1;fontColor=#FFFFFF;entryX=1;entryY=1;entryDx=0;entryDy=0;exitX=0.407;exitY=-0.033;exitDx=0;exitDy=0;exitPerimeter=0;fillColor=#e3c800;strokeColor=#4C0099;" parent="1" source="63" target="65" edge="1">
                    <mxGeometry width="50" height="50" relative="1" as="geometry">
                        <mxPoint x="720" y="907" as="sourcePoint"/>
                        <mxPoint x="770" y="857" as="targetPoint"/>
                    </mxGeometry>
                </mxCell>
                <mxCell id="75" value="" style="endArrow=none;html=1;fontColor=#FFFFFF;entryX=0;entryY=0.5;entryDx=0;entryDy=0;exitX=1;exitY=0.25;exitDx=0;exitDy=0;fillColor=#e3c800;strokeColor=#4C0099;" parent="1" source="63" target="64" edge="1">
                    <mxGeometry width="50" height="50" relative="1" as="geometry">
                        <mxPoint x="790" y="907" as="sourcePoint"/>
                        <mxPoint x="840" y="857" as="targetPoint"/>
                    </mxGeometry>
                </mxCell>
                <mxCell id="76" value="" style="whiteSpace=wrap;html=1;aspect=fixed;fontColor=#000000;rotation=45;fillColor=#fa6800;strokeColor=#C73500;" parent="1" vertex="1">
                    <mxGeometry x="1668.86" y="543.86" width="109.71" height="109.71" as="geometry"/>
                </mxCell>
                <mxCell id="77" value="" style="shape=link;html=1;fontColor=#FFFFFF;entryX=0.5;entryY=1;entryDx=0;entryDy=0;exitX=0;exitY=0;exitDx=0;exitDy=0;fillColor=#e3c800;strokeColor=#4C0099;" parent="1" source="76" target="44" edge="1">
                    <mxGeometry width="100" relative="1" as="geometry">
                        <mxPoint x="1700" y="567" as="sourcePoint"/>
                        <mxPoint x="1800" y="567" as="targetPoint"/>
                    </mxGeometry>
                </mxCell>
                <mxCell id="78" value="" style="endArrow=none;html=1;fontColor=#FFFFFF;entryX=1;entryY=1;entryDx=0;entryDy=0;exitX=0.5;exitY=0;exitDx=0;exitDy=0;fillColor=#e3c800;strokeColor=#4C0099;" parent="1" source="20" target="76" edge="1">
                    <mxGeometry width="50" height="50" relative="1" as="geometry">
                        <mxPoint x="1691" y="856.4299999999998" as="sourcePoint"/>
                        <mxPoint x="1703" y="665.069610306789" as="targetPoint"/>
                    </mxGeometry>
                </mxCell>
                <UserObject label="&lt;font style=&quot;font-size: 17px;&quot;&gt;ASSIGNS_TO&lt;/font&gt;" placeholders="1" name="Variable" id="79">
                    <mxCell style="text;html=1;strokeColor=none;fillColor=none;align=center;verticalAlign=middle;whiteSpace=wrap;overflow=hidden;fontColor=#000000;" parent="1" vertex="1">
                        <mxGeometry x="1665.71" y="582" width="116" height="30" as="geometry"/>
                    </mxCell>
                </UserObject>
                <UserObject label="1" placeholders="1" name="Variable" id="80">
                    <mxCell style="text;html=1;strokeColor=none;fillColor=none;align=center;verticalAlign=middle;whiteSpace=wrap;overflow=hidden;fontColor=#000000;" parent="1" vertex="1">
                        <mxGeometry x="1667" y="497" width="45" height="20" as="geometry"/>
                    </mxCell>
                </UserObject>
                <UserObject label="N" placeholders="1" name="Variable" id="81">
                    <mxCell style="text;html=1;strokeColor=none;fillColor=none;align=center;verticalAlign=middle;whiteSpace=wrap;overflow=hidden;fontColor=#000000;" parent="1" vertex="1">
                        <mxGeometry x="1671" y="716.4299999999998" width="35" height="20" as="geometry"/>
                    </mxCell>
                </UserObject>
                <mxCell id="82" value="&lt;b&gt;&lt;font style=&quot;font-size: 20px;&quot;&gt;NURSE&lt;/font&gt;&lt;/b&gt;" style="rounded=0;whiteSpace=wrap;html=1;fillColor=#e51400;fontColor=#000000;strokeColor=#B20000;" parent="1" vertex="1">
                    <mxGeometry x="2440" y="837" width="120" height="60" as="geometry"/>
                </mxCell>
                <mxCell id="83" value="&lt;font style=&quot;font-size: 20px;&quot;&gt;NurseName&lt;/font&gt;" style="ellipse;whiteSpace=wrap;html=1;fillColor=#d80073;fontColor=#000000;strokeColor=#A50040;" parent="1" vertex="1">
                    <mxGeometry x="2645" y="657" width="132" height="75" as="geometry"/>
                </mxCell>
                <mxCell id="84" value="&lt;font size=&quot;1&quot;&gt;&lt;u style=&quot;font-size: 20px;&quot;&gt;NurseID&lt;/u&gt;&lt;/font&gt;" style="ellipse;whiteSpace=wrap;html=1;fillColor=#d80073;fontColor=#000000;strokeColor=#A50040;" parent="1" vertex="1">
                    <mxGeometry x="2560" y="572" width="120" height="70" as="geometry"/>
                </mxCell>
                <mxCell id="85" value="&lt;font style=&quot;font-size: 20px;&quot;&gt;date&lt;/font&gt;" style="ellipse;whiteSpace=wrap;html=1;fillColor=#d80073;fontColor=#000000;strokeColor=#A50040;" parent="1" vertex="1">
                    <mxGeometry x="2210" y="1142" width="120" height="70" as="geometry"/>
                </mxCell>
                <mxCell id="86" value="&lt;font style=&quot;font-size: 20px;&quot;&gt;NursePhoneNumber&lt;/font&gt;" style="ellipse;whiteSpace=wrap;html=1;fillColor=#d80073;fontColor=#000000;strokeColor=#A50040;" parent="1" vertex="1">
                    <mxGeometry x="2675" y="750" width="213" height="87" as="geometry"/>
                </mxCell>
                <mxCell id="87" value="&lt;font style=&quot;font-size: 20px;&quot;&gt;time&lt;/font&gt;" style="ellipse;whiteSpace=wrap;html=1;fillColor=#d80073;fontColor=#000000;strokeColor=#A50040;" parent="1" vertex="1">
                    <mxGeometry x="2340" y="1192" width="120" height="70" as="geometry"/>
                </mxCell>
                <mxCell id="88" value="&lt;font size=&quot;1&quot;&gt;&lt;span style=&quot;font-size: 20px;&quot; data-sheets-formula-bar-text-style=&quot;font-size:13px;color:#000000;font-weight:normal;text-decoration:none;font-family:'Arial';font-style:normal;text-decoration-skip-ink:none;&quot;&gt;NurseSpecialization&lt;/span&gt;&lt;/font&gt;" style="ellipse;whiteSpace=wrap;html=1;fillColor=#d80073;fontColor=#000000;strokeColor=#A50040;" parent="1" vertex="1">
                    <mxGeometry x="2770" y="862" width="201" height="90" as="geometry"/>
                </mxCell>
                <mxCell id="89" value="&lt;b&gt;&lt;font style=&quot;font-size: 20px;&quot;&gt;StartTime&lt;/font&gt;&lt;/b&gt;" style="ellipse;whiteSpace=wrap;html=1;fillColor=#d80073;fontColor=#000000;strokeColor=#A50040;" parent="1" vertex="1">
                    <mxGeometry x="2340" y="1007" width="120" height="70" as="geometry"/>
                </mxCell>
                <mxCell id="90" value="" style="endArrow=none;html=1;entryX=0.25;entryY=1;entryDx=0;entryDy=0;exitX=1;exitY=0;exitDx=0;exitDy=0;fillColor=#e3c800;strokeColor=#4C0099;" parent="1" source="89" target="82" edge="1">
                    <mxGeometry width="50" height="50" relative="1" as="geometry">
                        <mxPoint x="2400" y="977" as="sourcePoint"/>
                        <mxPoint x="2450" y="927" as="targetPoint"/>
                    </mxGeometry>
                </mxCell>
                <mxCell id="91" value="" style="endArrow=none;html=1;exitX=1;exitY=0;exitDx=0;exitDy=0;entryX=0;entryY=1;entryDx=0;entryDy=0;fillColor=#e3c800;strokeColor=#4C0099;" parent="1" source="85" target="89" edge="1">
                    <mxGeometry width="50" height="50" relative="1" as="geometry">
                        <mxPoint x="2310" y="917" as="sourcePoint"/>
                        <mxPoint x="2360" y="867" as="targetPoint"/>
                    </mxGeometry>
                </mxCell>
                <mxCell id="92" value="" style="endArrow=none;html=1;entryX=0.5;entryY=1;entryDx=0;entryDy=0;exitX=1;exitY=0;exitDx=0;exitDy=0;fillColor=#e3c800;strokeColor=#4C0099;" parent="1" source="87" target="89" edge="1">
                    <mxGeometry width="50" height="50" relative="1" as="geometry">
                        <mxPoint x="2380" y="1147" as="sourcePoint"/>
                        <mxPoint x="2430" y="1097" as="targetPoint"/>
                    </mxGeometry>
                </mxCell>
                <mxCell id="93" value="&lt;font style=&quot;font-size: 20px;&quot;&gt;date&lt;/font&gt;" style="ellipse;whiteSpace=wrap;html=1;fillColor=#d80073;fontColor=#000000;strokeColor=#A50040;" parent="1" vertex="1">
                    <mxGeometry x="2210" y="487" width="120" height="70" as="geometry"/>
                </mxCell>
                <mxCell id="94" value="&lt;font style=&quot;font-size: 20px;&quot;&gt;time&lt;/font&gt;" style="ellipse;whiteSpace=wrap;html=1;fillColor=#d80073;fontColor=#000000;strokeColor=#A50040;" parent="1" vertex="1">
                    <mxGeometry x="2120" y="597" width="120" height="70" as="geometry"/>
                </mxCell>
                <mxCell id="95" value="&lt;b&gt;&lt;font style=&quot;font-size: 20px;&quot;&gt;EndTime&lt;/font&gt;&lt;/b&gt;" style="ellipse;whiteSpace=wrap;html=1;fillColor=#d80073;fontColor=#000000;strokeColor=#A50040;" parent="1" vertex="1">
                    <mxGeometry x="2350" y="657" width="120" height="70" as="geometry"/>
                </mxCell>
                <mxCell id="96" value="" style="endArrow=none;html=1;exitX=1;exitY=1;exitDx=0;exitDy=0;entryX=0.5;entryY=0;entryDx=0;entryDy=0;fillColor=#e3c800;strokeColor=#4C0099;" parent="1" source="93" target="95" edge="1">
                    <mxGeometry width="50" height="50" relative="1" as="geometry">
                        <mxPoint x="2330" y="672" as="sourcePoint"/>
                        <mxPoint x="2380" y="622" as="targetPoint"/>
                    </mxGeometry>
                </mxCell>
                <mxCell id="97" value="" style="endArrow=none;html=1;exitX=1;exitY=0;exitDx=0;exitDy=0;fillColor=#e3c800;strokeColor=#4C0099;" parent="1" source="94" target="95" edge="1">
                    <mxGeometry width="50" height="50" relative="1" as="geometry">
                        <mxPoint x="2400" y="902" as="sourcePoint"/>
                        <mxPoint x="2450" y="852" as="targetPoint"/>
                    </mxGeometry>
                </mxCell>
                <mxCell id="98" value="" style="endArrow=none;html=1;entryX=0.25;entryY=0;entryDx=0;entryDy=0;exitX=0.5;exitY=1;exitDx=0;exitDy=0;fillColor=#e3c800;strokeColor=#4C0099;" parent="1" source="95" target="82" edge="1">
                    <mxGeometry width="50" height="50" relative="1" as="geometry">
                        <mxPoint x="2450" y="717" as="sourcePoint"/>
                        <mxPoint x="2500" y="667" as="targetPoint"/>
                    </mxGeometry>
                </mxCell>
                <mxCell id="99" value="" style="endArrow=none;html=1;entryX=0;entryY=1;entryDx=0;entryDy=0;exitX=0.5;exitY=0;exitDx=0;exitDy=0;fillColor=#e3c800;strokeColor=#4C0099;" parent="1" source="82" target="84" edge="1">
                    <mxGeometry width="50" height="50" relative="1" as="geometry">
                        <mxPoint x="2490" y="807" as="sourcePoint"/>
                        <mxPoint x="2540" y="757" as="targetPoint"/>
                    </mxGeometry>
                </mxCell>
                <mxCell id="100" value="" style="endArrow=none;html=1;entryX=0;entryY=1;entryDx=0;entryDy=0;exitX=1;exitY=0;exitDx=0;exitDy=0;fillColor=#e3c800;strokeColor=#4C0099;" parent="1" source="82" target="83" edge="1">
                    <mxGeometry width="50" height="50" relative="1" as="geometry">
                        <mxPoint x="2560" y="827" as="sourcePoint"/>
                        <mxPoint x="2610" y="777" as="targetPoint"/>
                    </mxGeometry>
                </mxCell>
                <mxCell id="101" value="" style="endArrow=none;html=1;entryX=0;entryY=0.5;entryDx=0;entryDy=0;exitX=1;exitY=0.25;exitDx=0;exitDy=0;fillColor=#e3c800;strokeColor=#4C0099;" parent="1" source="82" target="86" edge="1">
                    <mxGeometry width="50" height="50" relative="1" as="geometry">
                        <mxPoint x="2570" y="887" as="sourcePoint"/>
                        <mxPoint x="2530" y="957" as="targetPoint"/>
                    </mxGeometry>
                </mxCell>
                <mxCell id="102" value="" style="endArrow=none;html=1;entryX=1;entryY=0.5;entryDx=0;entryDy=0;exitX=0;exitY=0;exitDx=0;exitDy=0;fillColor=#e3c800;strokeColor=#4C0099;" parent="1" source="88" target="82" edge="1">
                    <mxGeometry width="50" height="50" relative="1" as="geometry">
                        <mxPoint x="2540" y="997" as="sourcePoint"/>
                        <mxPoint x="2590" y="947" as="targetPoint"/>
                    </mxGeometry>
                </mxCell>
                <mxCell id="103" value="&lt;b&gt;&lt;font style=&quot;font-size: 20px;&quot;&gt;ROOM&lt;/font&gt;&lt;/b&gt;" style="rounded=0;whiteSpace=wrap;html=1;fillColor=#e51400;fontColor=#000000;strokeColor=#B20000;" parent="1" vertex="1">
                    <mxGeometry x="2660" y="1232" width="120" height="60" as="geometry"/>
                </mxCell>
                <mxCell id="104" value="&lt;font size=&quot;1&quot;&gt;&lt;span style=&quot;font-family: Arial; text-decoration-skip-ink: none;&quot;&gt;&lt;font style=&quot;font-size: 20px;&quot;&gt;AvailabilityStatus&lt;/font&gt;&lt;/span&gt;&lt;/font&gt;" style="ellipse;whiteSpace=wrap;html=1;fillColor=#d80073;fontColor=#000000;strokeColor=#A50040;" parent="1" vertex="1">
                    <mxGeometry x="2550" y="1418" width="167" height="84" as="geometry"/>
                </mxCell>
                <mxCell id="105" value="&lt;font style=&quot;font-size: 20px;&quot;&gt;RoomType&lt;/font&gt;" style="ellipse;whiteSpace=wrap;html=1;fillColor=#d80073;fontColor=#000000;strokeColor=#A50040;" parent="1" vertex="1">
                    <mxGeometry x="2840" y="1237" width="120" height="70" as="geometry"/>
                </mxCell>
                <mxCell id="106" value="&lt;font size=&quot;1&quot;&gt;&lt;u style=&quot;font-size: 20px;&quot;&gt;RoomNumber&lt;/u&gt;&lt;/font&gt;" style="ellipse;whiteSpace=wrap;html=1;fillColor=#d80073;fontColor=#000000;strokeColor=#A50040;" parent="1" vertex="1">
                    <mxGeometry x="2840" y="1355" width="160" height="87" as="geometry"/>
                </mxCell>
                <mxCell id="107" value="" style="endArrow=none;html=1;entryX=0;entryY=0;entryDx=0;entryDy=0;exitX=1;exitY=1;exitDx=0;exitDy=0;fillColor=#e3c800;strokeColor=#4C0099;" parent="1" source="103" target="106" edge="1">
                    <mxGeometry width="50" height="50" relative="1" as="geometry">
                        <mxPoint x="2810" y="1167" as="sourcePoint"/>
                        <mxPoint x="2860" y="1117" as="targetPoint"/>
                    </mxGeometry>
                </mxCell>
                <mxCell id="108" value="" style="endArrow=none;html=1;entryX=0.012;entryY=0.62;entryDx=0;entryDy=0;entryPerimeter=0;exitX=1;exitY=0;exitDx=0;exitDy=0;fillColor=#e3c800;strokeColor=#4C0099;" parent="1" source="103" target="105" edge="1">
                    <mxGeometry width="50" height="50" relative="1" as="geometry">
                        <mxPoint x="2790" y="1327" as="sourcePoint"/>
                        <mxPoint x="2840" y="1277" as="targetPoint"/>
                    </mxGeometry>
                </mxCell>
                <mxCell id="109" value="" style="endArrow=none;html=1;entryX=0;entryY=1;entryDx=0;entryDy=0;exitX=0.5;exitY=0;exitDx=0;exitDy=0;fillColor=#e3c800;strokeColor=#4C0099;" parent="1" source="104" target="103" edge="1">
                    <mxGeometry width="50" height="50" relative="1" as="geometry">
                        <mxPoint x="2780" y="1397" as="sourcePoint"/>
                        <mxPoint x="2830" y="1347" as="targetPoint"/>
                    </mxGeometry>
                </mxCell>
                <mxCell id="110" value="" style="whiteSpace=wrap;html=1;aspect=fixed;fontColor=#000000;rotation=45;fillColor=#fa6800;strokeColor=#C73500;" parent="1" vertex="1">
                    <mxGeometry x="2620" y="1012" width="90" height="90" as="geometry"/>
                </mxCell>
                <mxCell id="111" value="" style="whiteSpace=wrap;html=1;aspect=fixed;fontColor=#000000;rotation=45;fillColor=#fa6800;strokeColor=#C73500;" parent="1" vertex="1">
                    <mxGeometry x="2086" y="836.4299999999998" width="90" height="90" as="geometry"/>
                </mxCell>
                <mxCell id="112" value="" style="shape=link;html=1;fontColor=#FFFFFF;exitX=1;exitY=1;exitDx=0;exitDy=0;entryX=0;entryY=0.5;entryDx=0;entryDy=0;fillColor=#e3c800;strokeColor=#4C0099;" parent="1" source="82" target="110" edge="1">
                    <mxGeometry width="100" relative="1" as="geometry">
                        <mxPoint x="2520" y="962" as="sourcePoint"/>
                        <mxPoint x="2620" y="962" as="targetPoint"/>
                    </mxGeometry>
                </mxCell>
                <mxCell id="113" value="" style="endArrow=none;html=1;fontColor=#FFFFFF;entryX=1;entryY=0.5;entryDx=0;entryDy=0;fillColor=#e3c800;strokeColor=#4C0099;" parent="1" source="103" target="110" edge="1">
                    <mxGeometry width="50" height="50" relative="1" as="geometry">
                        <mxPoint x="2710" y="1202" as="sourcePoint"/>
                        <mxPoint x="2760" y="1152" as="targetPoint"/>
                    </mxGeometry>
                </mxCell>
                <UserObject label="&lt;font style=&quot;font-size: 20px;&quot;&gt;ASSISTS&lt;/font&gt;" placeholders="1" name="Variable" id="114">
                    <mxCell style="text;html=1;strokeColor=none;fillColor=none;align=center;verticalAlign=middle;whiteSpace=wrap;overflow=hidden;fontColor=#000000;" parent="1" vertex="1">
                        <mxGeometry x="2086" y="868.2199999999999" width="95" height="27.57" as="geometry"/>
                    </mxCell>
                </UserObject>
                <UserObject label="&lt;font style=&quot;font-size: 20px;&quot;&gt;ON_CALL&lt;/font&gt;" placeholders="1" name="Variable" id="115">
                    <mxCell style="text;html=1;strokeColor=none;fillColor=none;align=center;verticalAlign=middle;whiteSpace=wrap;overflow=hidden;fontColor=#000000;" parent="1" vertex="1">
                        <mxGeometry x="2614.5" y="1042.5" width="101" height="29" as="geometry"/>
                    </mxCell>
                </UserObject>
                <mxCell id="116" value="" style="shape=link;html=1;fontColor=#FFFFFF;entryX=0;entryY=0.5;entryDx=0;entryDy=0;exitX=1;exitY=0;exitDx=0;exitDy=0;fillColor=#e3c800;strokeColor=#4C0099;" parent="1" source="111" target="82" edge="1">
                    <mxGeometry width="100" relative="1" as="geometry">
                        <mxPoint x="2144.639610306789" y="896.4299999999998" as="sourcePoint"/>
                        <mxPoint x="2370" y="892" as="targetPoint"/>
                    </mxGeometry>
                </mxCell>
                <mxCell id="117" value="" style="endArrow=none;html=1;fontColor=#FFFFFF;entryX=0;entryY=1;entryDx=0;entryDy=0;exitX=1;exitY=0.5;exitDx=0;exitDy=0;fillColor=#e3c800;strokeColor=#4C0099;" parent="1" source="20" target="111" edge="1">
                    <mxGeometry width="50" height="50" relative="1" as="geometry">
                        <mxPoint x="1841" y="896.4299999999998" as="sourcePoint"/>
                        <mxPoint x="1891" y="846.4299999999998" as="targetPoint"/>
                    </mxGeometry>
                </mxCell>
                <UserObject label="1" placeholders="1" name="Variable" id="118">
                    <mxCell style="text;html=1;strokeColor=none;fillColor=none;align=center;verticalAlign=middle;whiteSpace=wrap;overflow=hidden;fontColor=#000000;" parent="1" vertex="1">
                        <mxGeometry x="1866" y="871.4299999999998" width="80" height="20" as="geometry"/>
                    </mxCell>
                </UserObject>
                <UserObject label="N" placeholders="1" name="Variable" id="119">
                    <mxCell style="text;html=1;strokeColor=none;fillColor=none;align=center;verticalAlign=middle;whiteSpace=wrap;overflow=hidden;fontColor=#000000;" parent="1" vertex="1">
                        <mxGeometry x="2250" y="862" width="80" height="20" as="geometry"/>
                    </mxCell>
                </UserObject>
                <UserObject label="1" placeholders="1" name="Variable" id="120">
                    <mxCell style="text;html=1;strokeColor=none;fillColor=none;align=center;verticalAlign=middle;whiteSpace=wrap;overflow=hidden;fontColor=#000000;" parent="1" vertex="1">
                        <mxGeometry x="2600" y="952" width="50" height="20" as="geometry"/>
                    </mxCell>
                </UserObject>
                <UserObject label="N" placeholders="1" name="Variable" id="121">
                    <mxCell style="text;html=1;strokeColor=none;fillColor=none;align=center;verticalAlign=middle;whiteSpace=wrap;overflow=hidden;fontColor=#000000;" parent="1" vertex="1">
                        <mxGeometry x="2680" y="1157" width="80" height="20" as="geometry"/>
                    </mxCell>
                </UserObject>
                <mxCell id="122" value="" style="whiteSpace=wrap;html=1;aspect=fixed;fontColor=#000000;rotation=45;fillColor=#fa6800;strokeColor=#C73500;" parent="1" vertex="1">
                    <mxGeometry x="970" y="657" width="90" height="90" as="geometry"/>
                </mxCell>
                <mxCell id="123" value="" style="endArrow=none;html=1;exitX=0.5;exitY=1;exitDx=0;exitDy=0;entryX=1;entryY=0;entryDx=0;entryDy=0;fillColor=#e3c800;strokeColor=#4C0099;" parent="1" source="122" target="63" edge="1">
                    <mxGeometry width="50" height="50" relative="1" as="geometry">
                        <mxPoint x="1270" y="647" as="sourcePoint"/>
                        <mxPoint x="830" y="917" as="targetPoint"/>
                    </mxGeometry>
                </mxCell>
                <mxCell id="124" value="" style="shape=link;html=1;exitX=0.75;exitY=0;exitDx=0;exitDy=0;fillColor=#e3c800;strokeColor=#4C0099;" parent="1" source="122" edge="1">
                    <mxGeometry width="100" relative="1" as="geometry">
                        <mxPoint x="1250" y="617" as="sourcePoint"/>
                        <mxPoint x="1640" y="417" as="targetPoint"/>
                    </mxGeometry>
                </mxCell>
                <UserObject label="&lt;font style=&quot;font-size: 21px;&quot;&gt;TAKES&lt;/font&gt;" placeholders="1" name="Variable" id="125">
                    <mxCell style="text;html=1;strokeColor=none;fillColor=none;align=center;verticalAlign=middle;whiteSpace=wrap;overflow=hidden;fontColor=#000000;" parent="1" vertex="1">
                        <mxGeometry x="975" y="687" width="80" height="30" as="geometry"/>
                    </mxCell>
                </UserObject>
                <UserObject label="M" placeholders="1" name="Variable" id="126">
                    <mxCell style="text;html=1;strokeColor=none;fillColor=none;align=center;verticalAlign=middle;whiteSpace=wrap;overflow=hidden;rotation=-45;fontColor=#000000;" parent="1" vertex="1">
                        <mxGeometry x="855" y="802" width="80" height="20" as="geometry"/>
                    </mxCell>
                </UserObject>
                <UserObject label="N" placeholders="1" name="Variable" id="127">
                    <mxCell style="text;html=1;strokeColor=none;fillColor=none;align=center;verticalAlign=middle;whiteSpace=wrap;overflow=hidden;rotation=-25;fontColor=#000000;" parent="1" vertex="1">
                        <mxGeometry x="1235" y="562" width="80" height="20" as="geometry"/>
                    </mxCell>
                </UserObject>
                <mxCell id="128" value="&lt;b&gt;&lt;font style=&quot;font-size: 20px;&quot;&gt;PROCEDURE&lt;/font&gt;&lt;/b&gt;" style="rounded=0;whiteSpace=wrap;html=1;fillColor=#e51400;fontColor=#000000;strokeColor=#B20000;" parent="1" vertex="1">
                    <mxGeometry x="979" y="1319" width="141" height="70.5" as="geometry"/>
                </mxCell>
                <mxCell id="129" value="" style="whiteSpace=wrap;html=1;aspect=fixed;fontColor=#000000;rotation=45;fillColor=#fa6800;strokeColor=#C73500;" parent="1" vertex="1">
                    <mxGeometry x="1239" y="1309.25" width="90" height="90" as="geometry"/>
                </mxCell>
                <mxCell id="130" value="" style="shape=link;html=1;entryX=0;entryY=0.5;entryDx=0;entryDy=0;exitX=1;exitY=0;exitDx=0;exitDy=0;fillColor=#e3c800;strokeColor=#4C0099;" parent="1" source="129" target="2" edge="1">
                    <mxGeometry width="100" relative="1" as="geometry">
                        <mxPoint x="1334.639610306789" y="1403.9299999999998" as="sourcePoint"/>
                        <mxPoint x="1441" y="1406.4299999999998" as="targetPoint"/>
                    </mxGeometry>
                </mxCell>
                <mxCell id="131" value="" style="endArrow=none;html=1;exitX=1;exitY=0.5;exitDx=0;exitDy=0;fillColor=#e3c800;strokeColor=#4C0099;" parent="1" source="128" edge="1">
                    <mxGeometry width="50" height="50" relative="1" as="geometry">
                        <mxPoint x="1139" y="1477" as="sourcePoint"/>
                        <mxPoint x="1229" y="1347" as="targetPoint"/>
                    </mxGeometry>
                </mxCell>
                <mxCell id="132" value="&lt;font style=&quot;font-size: 20px;&quot;&gt;PatientID&lt;/font&gt;" style="ellipse;whiteSpace=wrap;html=1;fillColor=#d80073;fontColor=#000000;strokeColor=#A50040;" parent="1" vertex="1">
                    <mxGeometry x="854" y="1464.5" width="120" height="70" as="geometry"/>
                </mxCell>
                <mxCell id="133" value="&lt;font style=&quot;font-size: 20px;&quot;&gt;ProcedureName&lt;/font&gt;" style="ellipse;whiteSpace=wrap;html=1;fillColor=#d80073;fontColor=#000000;strokeColor=#A50040;" parent="1" vertex="1">
                    <mxGeometry x="1014" y="1467" width="162" height="82" as="geometry"/>
                </mxCell>
                <mxCell id="134" value="&lt;font style=&quot;font-size: 20px;&quot;&gt;ProcedureCost&lt;/font&gt;" style="ellipse;whiteSpace=wrap;html=1;fillColor=#d80073;fontColor=#000000;strokeColor=#A50040;" parent="1" vertex="1">
                    <mxGeometry x="1020" y="1201" width="159" height="76" as="geometry"/>
                </mxCell>
                <mxCell id="135" value="&lt;font style=&quot;font-size: 20px;&quot;&gt;Duration&lt;/font&gt;" style="ellipse;whiteSpace=wrap;html=1;fillColor=#d80073;fontColor=#000000;strokeColor=#A50040;" parent="1" vertex="1">
                    <mxGeometry x="1134" y="1394.5" width="120" height="70" as="geometry"/>
                </mxCell>
                <mxCell id="136" value="" style="endArrow=none;html=1;entryX=0;entryY=1;entryDx=0;entryDy=0;exitX=0.75;exitY=0;exitDx=0;exitDy=0;fillColor=#e3c800;strokeColor=#4C0099;" parent="1" source="128" target="134" edge="1">
                    <mxGeometry width="50" height="50" relative="1" as="geometry">
                        <mxPoint x="1019" y="1329.5" as="sourcePoint"/>
                        <mxPoint x="1069" y="1279.5" as="targetPoint"/>
                    </mxGeometry>
                </mxCell>
                <mxCell id="137" value="" style="endArrow=none;html=1;entryX=0.25;entryY=1;entryDx=0;entryDy=0;exitX=1;exitY=0;exitDx=0;exitDy=0;fillColor=#e3c800;strokeColor=#4C0099;" parent="1" source="132" target="128" edge="1">
                    <mxGeometry width="50" height="50" relative="1" as="geometry">
                        <mxPoint x="1079" y="1339.5" as="sourcePoint"/>
                        <mxPoint x="1086.413796691712" y="1286.6551703363775" as="targetPoint"/>
                    </mxGeometry>
                </mxCell>
                <mxCell id="138" value="" style="endArrow=none;html=1;entryX=0.5;entryY=0;entryDx=0;entryDy=0;exitX=0.75;exitY=1;exitDx=0;exitDy=0;fillColor=#e3c800;strokeColor=#4C0099;" parent="1" source="128" target="133" edge="1">
                    <mxGeometry width="50" height="50" relative="1" as="geometry">
                        <mxPoint x="1089" y="1349.5" as="sourcePoint"/>
                        <mxPoint x="1096.413796691712" y="1296.6551703363775" as="targetPoint"/>
                    </mxGeometry>
                </mxCell>
                <mxCell id="139" value="" style="endArrow=none;html=1;entryX=0;entryY=0;entryDx=0;entryDy=0;exitX=1;exitY=1;exitDx=0;exitDy=0;fillColor=#e3c800;strokeColor=#4C0099;" parent="1" source="128" target="135" edge="1">
                    <mxGeometry width="50" height="50" relative="1" as="geometry">
                        <mxPoint x="1099" y="1359.5" as="sourcePoint"/>
                        <mxPoint x="1106.413796691712" y="1306.6551703363775" as="targetPoint"/>
                    </mxGeometry>
                </mxCell>
                <UserObject label="&lt;font style=&quot;font-size: 20px;&quot;&gt;SETS&lt;/font&gt;" placeholders="1" name="Variable" id="140">
                    <mxCell style="text;html=1;strokeColor=none;fillColor=none;align=center;verticalAlign=middle;whiteSpace=wrap;overflow=hidden;fontColor=#000000;" parent="1" vertex="1">
                        <mxGeometry x="1244" y="1341.43" width="80" height="25.57" as="geometry"/>
                    </mxCell>
                </UserObject>
                <UserObject label="N" placeholders="1" name="Variable" id="141">
                    <mxCell style="text;html=1;strokeColor=none;fillColor=none;align=center;verticalAlign=middle;whiteSpace=wrap;overflow=hidden;fontColor=#000000;" parent="1" vertex="1">
                        <mxGeometry x="1129" y="1332" width="80" height="20" as="geometry"/>
                    </mxCell>
                </UserObject>
                <mxCell id="143" value="" style="whiteSpace=wrap;html=1;aspect=fixed;fontColor=#000000;rotation=45;fillColor=#fa6800;strokeColor=#C73500;" parent="1" vertex="1">
                    <mxGeometry x="822.49" y="1121" width="102" height="102" as="geometry"/>
                </mxCell>
                <mxCell id="144" value="" style="endArrow=none;html=1;entryX=0.75;entryY=1;entryDx=0;entryDy=0;exitX=0;exitY=0;exitDx=0;exitDy=0;fillColor=#e3c800;strokeColor=#4C0099;" parent="1" source="143" target="63" edge="1">
                    <mxGeometry width="50" height="50" relative="1" as="geometry">
                        <mxPoint x="860" y="1097" as="sourcePoint"/>
                        <mxPoint x="1060" y="1127" as="targetPoint"/>
                    </mxGeometry>
                </mxCell>
                <UserObject label="M" placeholders="1" name="Variable" id="145">
                    <mxCell style="text;html=1;strokeColor=none;fillColor=none;align=center;verticalAlign=middle;whiteSpace=wrap;overflow=hidden;rotation=52;fontColor=#000000;" parent="1" vertex="1">
                        <mxGeometry x="804" y="1042.5" width="102" height="20" as="geometry"/>
                    </mxCell>
                </UserObject>
                <mxCell id="146" value="" style="shape=link;html=1;entryX=1;entryY=0.5;entryDx=0;entryDy=0;exitX=0.25;exitY=0;exitDx=0;exitDy=0;fillColor=#e3c800;strokeColor=#4C0099;" parent="1" source="128" target="143" edge="1">
                    <mxGeometry width="100" relative="1" as="geometry">
                        <mxPoint x="760" y="1327" as="sourcePoint"/>
                        <mxPoint x="860" y="1327" as="targetPoint"/>
                    </mxGeometry>
                </mxCell>
                <UserObject label="N" placeholders="1" name="Variable" id="147">
                    <mxCell style="text;html=1;strokeColor=none;fillColor=none;align=center;verticalAlign=middle;whiteSpace=wrap;overflow=hidden;rotation=60;fontColor=#000000;" parent="1" vertex="1">
                        <mxGeometry x="922" y="1228.93" width="80" height="20" as="geometry"/>
                    </mxCell>
                </UserObject>
                <UserObject label="&lt;font style=&quot;font-size: 20px;&quot;&gt;INVOLVES&lt;/font&gt;" placeholders="1" name="Variable" id="148">
                    <mxCell style="text;html=1;strokeColor=none;fillColor=none;align=center;verticalAlign=middle;whiteSpace=wrap;overflow=hidden;fontColor=#000000;" parent="1" vertex="1">
                        <mxGeometry x="822.49" y="1157" width="104" height="28" as="geometry"/>
                    </mxCell>
                </UserObject>
                <mxCell id="149" value="&lt;b&gt;&lt;font style=&quot;font-size: 20px;&quot;&gt;Medication&lt;/font&gt;&lt;/b&gt;" style="rounded=0;whiteSpace=wrap;html=1;fontColor=#000000;fillColor=#e51400;strokeColor=#B20000;" parent="1" vertex="1">
                    <mxGeometry x="499" y="1347" width="120" height="60" as="geometry"/>
                </mxCell>
                <mxCell id="150" value="&lt;font size=&quot;1&quot;&gt;&lt;u style=&quot;font-size: 20px;&quot;&gt;MedicationID&lt;/u&gt;&lt;/font&gt;" style="ellipse;whiteSpace=wrap;html=1;fillColor=#d80073;fontColor=#000000;strokeColor=#A50040;" parent="1" vertex="1">
                    <mxGeometry x="319" y="1431" width="150" height="76" as="geometry"/>
                </mxCell>
                <mxCell id="151" value="&lt;font style=&quot;font-size: 20px;&quot; face=&quot;Arial&quot;&gt;&lt;font style=&quot;font-size: 20px;&quot;&gt;MedicatioName&lt;/font&gt;&lt;br&gt;&lt;/font&gt;" style="ellipse;whiteSpace=wrap;html=1;fillColor=#d80073;fontColor=#000000;strokeColor=#A50040;" parent="1" vertex="1">
                    <mxGeometry x="253" y="1289" width="176" height="78" as="geometry"/>
                </mxCell>
                <mxCell id="152" value="&lt;font style=&quot;font-size: 20px;&quot; face=&quot;Arial&quot;&gt;&lt;font style=&quot;font-size: 20px;&quot;&gt;AtcCode&lt;/font&gt;&lt;br&gt;&lt;/font&gt;" style="ellipse;whiteSpace=wrap;html=1;fillColor=#d80073;fontColor=#000000;strokeColor=#A50040;" parent="1" vertex="1">
                    <mxGeometry x="479" y="1239.5" width="120" height="70" as="geometry"/>
                </mxCell>
                <mxCell id="153" value="" style="endArrow=none;html=1;fontColor=#FFFFFF;exitX=0.25;exitY=0;exitDx=0;exitDy=0;fillColor=#e3c800;strokeColor=#4C0099;" parent="1" source="149" target="152" edge="1">
                    <mxGeometry width="50" height="50" relative="1" as="geometry">
                        <mxPoint x="579" y="1385.0000000000005" as="sourcePoint"/>
                        <mxPoint x="569" y="1345" as="targetPoint"/>
                    </mxGeometry>
                </mxCell>
                <mxCell id="154" value="" style="endArrow=none;html=1;fontColor=#FFFFFF;entryX=0.96;entryY=0.74;entryDx=0;entryDy=0;exitX=0.003;exitY=0.341;exitDx=0;exitDy=0;exitPerimeter=0;entryPerimeter=0;fillColor=#e3c800;strokeColor=#4C0099;" parent="1" source="149" target="151" edge="1">
                    <mxGeometry width="50" height="50" relative="1" as="geometry">
                        <mxPoint x="399" y="1475" as="sourcePoint"/>
                        <mxPoint x="449" y="1425" as="targetPoint"/>
                    </mxGeometry>
                </mxCell>
                <mxCell id="155" value="" style="endArrow=none;html=1;fontColor=#FFFFFF;entryX=0.5;entryY=0;entryDx=0;entryDy=0;exitX=0.355;exitY=0.983;exitDx=0;exitDy=0;exitPerimeter=0;fillColor=#e3c800;strokeColor=#4C0099;" parent="1" source="149" target="150" edge="1">
                    <mxGeometry width="50" height="50" relative="1" as="geometry">
                        <mxPoint x="659" y="1415" as="sourcePoint"/>
                        <mxPoint x="709" y="1365" as="targetPoint"/>
                    </mxGeometry>
                </mxCell>
                <mxCell id="156" value="" style="whiteSpace=wrap;html=1;aspect=fixed;fontColor=#000000;rotation=45;fillColor=#fa6800;strokeColor=#C73500;labelBackgroundColor=default;" parent="1" vertex="1">
                    <mxGeometry x="754" y="1329.5" width="90" height="90" as="geometry"/>
                </mxCell>
                <mxCell id="157" value="" style="endArrow=none;html=1;entryX=0;entryY=1;entryDx=0;entryDy=0;exitX=1;exitY=0.5;exitDx=0;exitDy=0;fillColor=#e3c800;strokeColor=#4C0099;" parent="1" source="149" target="156" edge="1">
                    <mxGeometry width="50" height="50" relative="1" as="geometry">
                        <mxPoint x="639" y="1457" as="sourcePoint"/>
                        <mxPoint x="689" y="1407" as="targetPoint"/>
                    </mxGeometry>
                </mxCell>
                <mxCell id="158" value="" style="shape=link;html=1;entryX=0;entryY=0.5;entryDx=0;entryDy=0;exitX=1;exitY=0;exitDx=0;exitDy=0;fillColor=#e3c800;strokeColor=#4C0099;" parent="1" source="156" target="128" edge="1">
                    <mxGeometry width="100" relative="1" as="geometry">
                        <mxPoint x="849" y="1377" as="sourcePoint"/>
                        <mxPoint x="949" y="1377" as="targetPoint"/>
                    </mxGeometry>
                </mxCell>
                <UserObject label="N" placeholders="1" name="Variable" id="159">
                    <mxCell style="text;html=1;strokeColor=none;fillColor=none;align=center;verticalAlign=middle;whiteSpace=wrap;overflow=hidden;rotation=-10;fontColor=#000000;" parent="1" vertex="1">
                        <mxGeometry x="879" y="1344.5" width="80" height="20" as="geometry"/>
                    </mxCell>
                </UserObject>
                <UserObject label="M" placeholders="1" name="Variable" id="160">
                    <mxCell style="text;html=1;strokeColor=none;fillColor=none;align=center;verticalAlign=middle;whiteSpace=wrap;overflow=hidden;fontColor=#000000;" parent="1" vertex="1">
                        <mxGeometry x="659" y="1357" width="80" height="20" as="geometry"/>
                    </mxCell>
                </UserObject>
                <UserObject label="&lt;font style=&quot;font-size: 20px;&quot;&gt;USED_IN&lt;/font&gt;" placeholders="1" name="Variable" id="161">
                    <mxCell style="text;html=1;strokeColor=none;fillColor=none;align=center;verticalAlign=middle;whiteSpace=wrap;overflow=hidden;fontColor=#000000;" parent="1" vertex="1">
                        <mxGeometry x="754" y="1362" width="95" height="27.5" as="geometry"/>
                    </mxCell>
                </UserObject>
                <UserObject label="&lt;font&gt;1&lt;/font&gt;" placeholders="1" name="Variable" id="168">
                    <mxCell style="text;html=1;strokeColor=none;fillColor=none;align=center;verticalAlign=middle;whiteSpace=wrap;overflow=hidden;labelBackgroundColor=none;fontColor=#000000;rotation=13;" parent="1" vertex="1">
                        <mxGeometry x="1440" y="1358.93" width="80" height="20" as="geometry"/>
                    </mxCell>
                </UserObject>
            </root>
        </mxGraphModel>
    </diagram>
    <diagram id="qcpyb-oxaiVnuQqMhs_L" name="Page-2">
        <mxGraphModel dx="842" dy="641" grid="0" gridSize="10" guides="1" tooltips="1" connect="1" arrows="1" fold="1" page="0" pageScale="1" pageWidth="900" pageHeight="1600" background="#141414" math="0" shadow="0">
            <root>
                <mxCell id="0"/>
                <mxCell id="1" parent="0"/>
                <mxCell id="SpniuVByLmKzfF59dG_X-1" style="edgeStyle=none;shape=connector;rounded=1;html=1;exitX=0.25;exitY=0;exitDx=0;exitDy=0;entryX=0.503;entryY=1.021;entryDx=0;entryDy=0;entryPerimeter=0;labelBackgroundColor=default;strokeColor=#B20000;strokeWidth=4;fontFamily=Helvetica;fontSize=11;fontColor=#FFFFFF;endArrow=none;fillColor=#e51400;" edge="1" parent="1" source="CyXQOnvQZHf6G6MnPG0M-1" target="CyXQOnvQZHf6G6MnPG0M-121">
                    <mxGeometry relative="1" as="geometry"/>
                </mxCell>
                <mxCell id="SpniuVByLmKzfF59dG_X-4" style="edgeStyle=none;shape=connector;rounded=1;html=1;exitX=1;exitY=1;exitDx=0;exitDy=0;entryX=0.503;entryY=0.073;entryDx=0;entryDy=0;entryPerimeter=0;labelBackgroundColor=default;strokeColor=#B20000;strokeWidth=4;fontFamily=Helvetica;fontSize=11;fontColor=#FFFFFF;endArrow=none;fillColor=#e51400;" edge="1" parent="1" source="CyXQOnvQZHf6G6MnPG0M-1" target="CyXQOnvQZHf6G6MnPG0M-15">
                    <mxGeometry relative="1" as="geometry"/>
                </mxCell>
                <mxCell id="SpniuVByLmKzfF59dG_X-11" style="edgeStyle=none;shape=connector;rounded=1;html=1;exitX=0;exitY=0.25;exitDx=0;exitDy=0;entryX=0.991;entryY=0.551;entryDx=0;entryDy=0;entryPerimeter=0;labelBackgroundColor=default;strokeColor=#B20000;strokeWidth=4;fontFamily=Helvetica;fontSize=11;fontColor=#FFFFFF;endArrow=none;fillColor=#e51400;" edge="1" parent="1" source="CyXQOnvQZHf6G6MnPG0M-1" target="CyXQOnvQZHf6G6MnPG0M-122">
                    <mxGeometry relative="1" as="geometry"/>
                </mxCell>
                <mxCell id="CyXQOnvQZHf6G6MnPG0M-1" value="&lt;b&gt;&lt;font style=&quot;font-size: 14px;&quot;&gt;DEPARTMENT&lt;/font&gt;&lt;/b&gt;" style="rounded=0;whiteSpace=wrap;html=1;fillColor=#d80073;fontColor=#ffffff;strokeColor=#A50040;" parent="1" vertex="1">
                    <mxGeometry x="1030" y="620" width="120" height="60" as="geometry"/>
                </mxCell>
                <mxCell id="CyXQOnvQZHf6G6MnPG0M-4" value="&lt;font style=&quot;font-size: 16px;&quot;&gt;headPhysician&lt;/font&gt;" style="ellipse;whiteSpace=wrap;html=1;fillColor=#60a917;fontColor=#ffffff;strokeColor=#2D7600;" parent="1" vertex="1">
                    <mxGeometry x="1248" y="624" width="120" height="80" as="geometry"/>
                </mxCell>
                <mxCell id="CyXQOnvQZHf6G6MnPG0M-5" value="&lt;b&gt;&lt;u&gt;DepartmentID&lt;/u&gt;&lt;/b&gt;" style="ellipse;whiteSpace=wrap;html=1;fillColor=#60a917;fontColor=#ffffff;strokeColor=#2D7600;" parent="1" vertex="1">
                    <mxGeometry x="1080" y="485" width="120" height="80" as="geometry"/>
                </mxCell>
                <mxCell id="CyXQOnvQZHf6G6MnPG0M-6" value="DeparmentName" style="ellipse;whiteSpace=wrap;html=1;fillColor=#60a917;fontColor=#ffffff;strokeColor=#2D7600;" parent="1" vertex="1">
                    <mxGeometry x="1200" y="510" width="120" height="70" as="geometry"/>
                </mxCell>
                <mxCell id="CyXQOnvQZHf6G6MnPG0M-7" value="" style="endArrow=none;html=1;entryX=0.5;entryY=0;entryDx=0;entryDy=0;exitX=0.5;exitY=1;exitDx=0;exitDy=0;fillColor=#60a917;strokeColor=#2D7600;strokeWidth=4;" parent="1" source="CyXQOnvQZHf6G6MnPG0M-5" target="CyXQOnvQZHf6G6MnPG0M-1" edge="1">
                    <mxGeometry width="50" height="50" relative="1" as="geometry">
                        <mxPoint x="937" y="1160" as="sourcePoint"/>
                        <mxPoint x="987" y="1110" as="targetPoint"/>
                    </mxGeometry>
                </mxCell>
                <mxCell id="CyXQOnvQZHf6G6MnPG0M-9" value="" style="endArrow=none;html=1;entryX=1;entryY=0.5;entryDx=0;entryDy=0;exitX=0;exitY=0.5;exitDx=0;exitDy=0;fillColor=#60a917;strokeColor=#2D7600;strokeWidth=4;" parent="1" source="CyXQOnvQZHf6G6MnPG0M-4" target="CyXQOnvQZHf6G6MnPG0M-1" edge="1">
                    <mxGeometry width="50" height="50" relative="1" as="geometry">
                        <mxPoint x="927" y="940" as="sourcePoint"/>
                        <mxPoint x="1027" y="960" as="targetPoint"/>
                    </mxGeometry>
                </mxCell>
                <mxCell id="CyXQOnvQZHf6G6MnPG0M-11" value="" style="endArrow=none;html=1;entryX=1;entryY=0;entryDx=0;entryDy=0;exitX=0;exitY=1;exitDx=0;exitDy=0;fillColor=#60a917;strokeColor=#2D7600;strokeWidth=4;" parent="1" source="CyXQOnvQZHf6G6MnPG0M-6" target="CyXQOnvQZHf6G6MnPG0M-1" edge="1">
                    <mxGeometry width="50" height="50" relative="1" as="geometry">
                        <mxPoint x="1227" y="880" as="sourcePoint"/>
                        <mxPoint x="1097" y="900" as="targetPoint"/>
                    </mxGeometry>
                </mxCell>
                <mxCell id="SpniuVByLmKzfF59dG_X-3" style="edgeStyle=none;shape=connector;rounded=1;html=1;exitX=0.25;exitY=0;exitDx=0;exitDy=0;entryX=0.529;entryY=0.962;entryDx=0;entryDy=0;entryPerimeter=0;labelBackgroundColor=default;strokeColor=#B20000;strokeWidth=4;fontFamily=Helvetica;fontSize=11;fontColor=#FFFFFF;endArrow=none;fillColor=#e51400;" edge="1" parent="1" source="CyXQOnvQZHf6G6MnPG0M-13" target="CyXQOnvQZHf6G6MnPG0M-14">
                    <mxGeometry relative="1" as="geometry"/>
                </mxCell>
                <mxCell id="SpniuVByLmKzfF59dG_X-5" style="edgeStyle=none;shape=connector;rounded=1;html=1;exitX=1;exitY=0.5;exitDx=0;exitDy=0;entryX=0.029;entryY=0.496;entryDx=0;entryDy=0;entryPerimeter=0;labelBackgroundColor=default;strokeColor=#B20000;strokeWidth=4;fontFamily=Helvetica;fontSize=11;fontColor=#FFFFFF;endArrow=none;fillColor=#e51400;" edge="1" parent="1" source="CyXQOnvQZHf6G6MnPG0M-13" target="CyXQOnvQZHf6G6MnPG0M-34">
                    <mxGeometry relative="1" as="geometry"/>
                </mxCell>
                <mxCell id="SpniuVByLmKzfF59dG_X-6" style="edgeStyle=none;shape=connector;rounded=1;html=1;exitX=0;exitY=0.5;exitDx=0;exitDy=0;entryX=1;entryY=0.544;entryDx=0;entryDy=0;entryPerimeter=0;labelBackgroundColor=default;strokeColor=#B20000;strokeWidth=4;fontFamily=Helvetica;fontSize=11;fontColor=#FFFFFF;endArrow=none;fillColor=#e51400;" edge="1" parent="1" source="CyXQOnvQZHf6G6MnPG0M-13" target="CyXQOnvQZHf6G6MnPG0M-33">
                    <mxGeometry relative="1" as="geometry"/>
                </mxCell>
                <mxCell id="SpniuVByLmKzfF59dG_X-9" style="edgeStyle=none;shape=connector;rounded=1;html=1;exitX=0;exitY=0.25;exitDx=0;exitDy=0;entryX=0.981;entryY=0.557;entryDx=0;entryDy=0;entryPerimeter=0;labelBackgroundColor=default;strokeColor=#B20000;strokeWidth=4;fontFamily=Helvetica;fontSize=11;fontColor=#FFFFFF;endArrow=none;fillColor=#e51400;" edge="1" parent="1" source="CyXQOnvQZHf6G6MnPG0M-13" target="CyXQOnvQZHf6G6MnPG0M-102">
                    <mxGeometry relative="1" as="geometry"/>
                </mxCell>
                <mxCell id="CyXQOnvQZHf6G6MnPG0M-13" value="&lt;span style=&quot;font-size: 13px; font-family: Arial; text-decoration-skip-ink: none;&quot;&gt;&lt;b&gt;PHYSICIAN&lt;/b&gt;&lt;/span&gt;" style="rounded=0;whiteSpace=wrap;html=1;fillColor=#d80073;fontColor=#ffffff;strokeColor=#A50040;" parent="1" vertex="1">
                    <mxGeometry x="1022" y="1110" width="120" height="60" as="geometry"/>
                </mxCell>
                <mxCell id="CyXQOnvQZHf6G6MnPG0M-14" value="&lt;b&gt;HEAD_PHYSICIAN&lt;/b&gt;" style="html=1;whiteSpace=wrap;aspect=fixed;shape=isoRectangle;fontColor=#ffffff;fillColor=#1ba1e2;strokeColor=#006EAF;" parent="1" vertex="1">
                    <mxGeometry x="950" y="877.5" width="125" height="75" as="geometry"/>
                </mxCell>
                <mxCell id="CyXQOnvQZHf6G6MnPG0M-15" value="&lt;b&gt;HAS_WORKING&lt;/b&gt;" style="html=1;whiteSpace=wrap;aspect=fixed;shape=isoRectangle;fontColor=#ffffff;fillColor=#1ba1e2;strokeColor=#006EAF;" parent="1" vertex="1">
                    <mxGeometry x="1090.33" y="880" width="116.67" height="70" as="geometry"/>
                </mxCell>
                <mxCell id="CyXQOnvQZHf6G6MnPG0M-16" value="" style="endArrow=none;html=1;strokeWidth=4;fontColor=#FFFFFF;fillColor=#e51400;strokeColor=#B20000;entryX=0;entryY=1;entryDx=0;entryDy=0;shape=link;" parent="1" target="CyXQOnvQZHf6G6MnPG0M-1" edge="1">
                    <mxGeometry width="50" height="50" relative="1" as="geometry">
                        <mxPoint x="1013" y="880" as="sourcePoint"/>
                        <mxPoint x="892" y="1100" as="targetPoint"/>
                    </mxGeometry>
                </mxCell>
                <mxCell id="CyXQOnvQZHf6G6MnPG0M-19" value="" style="endArrow=none;html=1;strokeWidth=4;fontColor=#FFFFFF;fillColor=#e51400;strokeColor=#B20000;entryX=0.505;entryY=1.016;entryDx=0;entryDy=0;entryPerimeter=0;exitX=1;exitY=0;exitDx=0;exitDy=0;shape=link;" parent="1" source="CyXQOnvQZHf6G6MnPG0M-13" target="CyXQOnvQZHf6G6MnPG0M-15" edge="1">
                    <mxGeometry width="50" height="50" relative="1" as="geometry">
                        <mxPoint x="1027" y="1140" as="sourcePoint"/>
                        <mxPoint x="1019.25" y="1103.9499999999998" as="targetPoint"/>
                    </mxGeometry>
                </mxCell>
                <UserObject label="1&lt;br&gt;" placeholders="1" name="Variable" id="CyXQOnvQZHf6G6MnPG0M-20">
                    <mxCell style="text;html=1;strokeColor=none;fillColor=none;align=center;verticalAlign=middle;whiteSpace=wrap;overflow=hidden;fontColor=#FFFFFF;fontStyle=1" parent="1" vertex="1">
                        <mxGeometry x="1152" y="805" width="55" height="20" as="geometry"/>
                    </mxCell>
                </UserObject>
                <UserObject label="1&lt;br&gt;" placeholders="1" name="Variable" id="CyXQOnvQZHf6G6MnPG0M-22">
                    <mxCell style="text;html=1;strokeColor=none;fillColor=none;align=center;verticalAlign=middle;whiteSpace=wrap;overflow=hidden;fontColor=#FFFFFF;fontStyle=1" parent="1" vertex="1">
                        <mxGeometry x="972" y="1020" width="55" height="20" as="geometry"/>
                    </mxCell>
                </UserObject>
                <UserObject label="N" placeholders="1" name="Variable" id="CyXQOnvQZHf6G6MnPG0M-23">
                    <mxCell style="text;html=1;strokeColor=none;fillColor=none;align=center;verticalAlign=middle;whiteSpace=wrap;overflow=hidden;fontColor=#FFFFFF;fontStyle=1" parent="1" vertex="1">
                        <mxGeometry x="1132" y="1000" width="55" height="20" as="geometry"/>
                    </mxCell>
                </UserObject>
                <UserObject label="1&lt;br&gt;" placeholders="1" name="Variable" id="CyXQOnvQZHf6G6MnPG0M-24">
                    <mxCell style="text;html=1;strokeColor=none;fillColor=none;align=center;verticalAlign=middle;whiteSpace=wrap;overflow=hidden;fontColor=#FFFFFF;fontStyle=1" parent="1" vertex="1">
                        <mxGeometry x="1010" y="805" width="55" height="20" as="geometry"/>
                    </mxCell>
                </UserObject>
                <mxCell id="CyXQOnvQZHf6G6MnPG0M-33" value="&lt;b&gt;SETS&lt;br&gt;&lt;/b&gt;" style="html=1;whiteSpace=wrap;aspect=fixed;shape=isoRectangle;fontColor=#ffffff;fillColor=#1ba1e2;strokeColor=#006EAF;" parent="1" vertex="1">
                    <mxGeometry x="649" y="1155" width="116.67" height="70" as="geometry"/>
                </mxCell>
                <mxCell id="CyXQOnvQZHf6G6MnPG0M-34" value="&lt;b&gt;PRESCRIBES&lt;/b&gt;" style="html=1;whiteSpace=wrap;aspect=fixed;shape=isoRectangle;fontColor=#ffffff;fillColor=#1ba1e2;strokeColor=#006EAF;" parent="1" vertex="1">
                    <mxGeometry x="1272" y="1102" width="126.67" height="76" as="geometry"/>
                </mxCell>
                <mxCell id="CyXQOnvQZHf6G6MnPG0M-38" value="&lt;font style=&quot;font-size: 14px;&quot;&gt;PROCEDURE&lt;/font&gt;" style="rounded=0;whiteSpace=wrap;html=1;fillColor=#d80073;fontColor=#ffffff;strokeColor=#A50040;" parent="1" vertex="1">
                    <mxGeometry x="382" y="1215" width="120" height="60" as="geometry"/>
                </mxCell>
                <mxCell id="CyXQOnvQZHf6G6MnPG0M-39" value="&lt;font face=&quot;Arial&quot;&gt;&lt;span style=&quot;font-size: 13px;&quot;&gt;&lt;b&gt;APPOINTMENT&lt;/b&gt;&lt;/span&gt;&lt;/font&gt;" style="rounded=0;whiteSpace=wrap;html=1;fillColor=#d80073;fontColor=#ffffff;strokeColor=#A50040;" parent="1" vertex="1">
                    <mxGeometry x="447.5" y="930" width="120" height="60" as="geometry"/>
                </mxCell>
                <mxCell id="CyXQOnvQZHf6G6MnPG0M-40" value="&lt;font face=&quot;Arial&quot;&gt;&lt;span style=&quot;font-size: 13px;&quot;&gt;&lt;b&gt;MEDICATION&lt;/b&gt;&lt;/span&gt;&lt;/font&gt;" style="rounded=0;whiteSpace=wrap;html=1;fillColor=#d80073;fontColor=#ffffff;strokeColor=#A50040;" parent="1" vertex="1">
                    <mxGeometry x="1520" y="1110" width="120" height="60" as="geometry"/>
                </mxCell>
                <mxCell id="CyXQOnvQZHf6G6MnPG0M-42" value="" style="endArrow=none;html=1;strokeWidth=4;fontColor=#FFFFFF;fillColor=#e51400;strokeColor=#B20000;entryX=1;entryY=0.5;entryDx=0;entryDy=0;exitX=0.021;exitY=0.514;exitDx=0;exitDy=0;exitPerimeter=0;shape=link;" parent="1" source="CyXQOnvQZHf6G6MnPG0M-33" target="CyXQOnvQZHf6G6MnPG0M-38" edge="1">
                    <mxGeometry width="50" height="50" relative="1" as="geometry">
                        <mxPoint x="1032" y="1120" as="sourcePoint"/>
                        <mxPoint x="1019.25" y="1063.95" as="targetPoint"/>
                    </mxGeometry>
                </mxCell>
                <mxCell id="CyXQOnvQZHf6G6MnPG0M-44" value="" style="endArrow=none;html=1;strokeWidth=4;fontColor=#FFFFFF;fillColor=#e51400;strokeColor=#B20000;entryX=0;entryY=0.5;entryDx=0;entryDy=0;exitX=0.976;exitY=0.524;exitDx=0;exitDy=0;exitPerimeter=0;shape=link;" parent="1" source="CyXQOnvQZHf6G6MnPG0M-34" target="CyXQOnvQZHf6G6MnPG0M-40" edge="1">
                    <mxGeometry width="50" height="50" relative="1" as="geometry">
                        <mxPoint x="1390" y="1140" as="sourcePoint"/>
                        <mxPoint x="1039.25" y="1083.95" as="targetPoint"/>
                    </mxGeometry>
                </mxCell>
                <UserObject label="1&lt;br&gt;" placeholders="1" name="Variable" id="CyXQOnvQZHf6G6MnPG0M-45">
                    <mxCell style="text;html=1;strokeColor=none;fillColor=none;align=center;verticalAlign=middle;whiteSpace=wrap;overflow=hidden;fontColor=#FFFFFF;fontStyle=1" parent="1" vertex="1">
                        <mxGeometry x="1190" y="1115" width="55" height="20" as="geometry"/>
                    </mxCell>
                </UserObject>
                <UserObject label="1&lt;br&gt;" placeholders="1" name="Variable" id="CyXQOnvQZHf6G6MnPG0M-46">
                    <mxCell style="text;html=1;strokeColor=none;fillColor=none;align=center;verticalAlign=middle;whiteSpace=wrap;overflow=hidden;fontColor=#FFFFFF;fontStyle=1" parent="1" vertex="1">
                        <mxGeometry x="864" y="1135" width="55" height="20" as="geometry"/>
                    </mxCell>
                </UserObject>
                <UserObject label="N" placeholders="1" name="Variable" id="CyXQOnvQZHf6G6MnPG0M-48">
                    <mxCell style="text;html=1;strokeColor=none;fillColor=none;align=center;verticalAlign=middle;whiteSpace=wrap;overflow=hidden;fontColor=#FFFFFF;fontStyle=1" parent="1" vertex="1">
                        <mxGeometry x="1398.67" y="1115" width="55" height="20" as="geometry"/>
                    </mxCell>
                </UserObject>
                <UserObject label="N" placeholders="1" name="Variable" id="CyXQOnvQZHf6G6MnPG0M-49">
                    <mxCell style="text;html=1;strokeColor=none;fillColor=none;align=center;verticalAlign=middle;whiteSpace=wrap;overflow=hidden;fontColor=#FFFFFF;fontStyle=1" parent="1" vertex="1">
                        <mxGeometry x="558" y="1220" width="55" height="20" as="geometry"/>
                    </mxCell>
                </UserObject>
                <mxCell id="CyXQOnvQZHf6G6MnPG0M-52" value="" style="endArrow=none;html=1;entryX=1;entryY=1;entryDx=0;entryDy=0;fillColor=#60a917;strokeColor=#2D7600;strokeWidth=4;exitX=0;exitY=0;exitDx=0;exitDy=0;" parent="1" source="CyXQOnvQZHf6G6MnPG0M-60" target="CyXQOnvQZHf6G6MnPG0M-13" edge="1">
                    <mxGeometry width="50" height="50" relative="1" as="geometry">
                        <mxPoint x="1190" y="1205" as="sourcePoint"/>
                        <mxPoint x="1162" y="910" as="targetPoint"/>
                    </mxGeometry>
                </mxCell>
                <mxCell id="CyXQOnvQZHf6G6MnPG0M-53" value="" style="endArrow=none;html=1;entryX=1;entryY=0;entryDx=0;entryDy=0;fillColor=#60a917;strokeColor=#2D7600;strokeWidth=4;exitX=0;exitY=1;exitDx=0;exitDy=0;" parent="1" source="CyXQOnvQZHf6G6MnPG0M-58" target="CyXQOnvQZHf6G6MnPG0M-13" edge="1">
                    <mxGeometry width="50" height="50" relative="1" as="geometry">
                        <mxPoint x="1260" y="1065" as="sourcePoint"/>
                        <mxPoint x="1187" y="1100" as="targetPoint"/>
                    </mxGeometry>
                </mxCell>
                <mxCell id="CyXQOnvQZHf6G6MnPG0M-54" value="" style="endArrow=none;html=1;fillColor=#60a917;strokeColor=#2D7600;strokeWidth=4;exitX=0;exitY=1;exitDx=0;exitDy=0;entryX=1;entryY=0;entryDx=0;entryDy=0;" parent="1" source="CyXQOnvQZHf6G6MnPG0M-13" target="CyXQOnvQZHf6G6MnPG0M-57" edge="1">
                    <mxGeometry width="50" height="50" relative="1" as="geometry">
                        <mxPoint x="878.6700000000001" y="1250" as="sourcePoint"/>
                        <mxPoint x="950" y="1215" as="targetPoint"/>
                    </mxGeometry>
                </mxCell>
                <mxCell id="CyXQOnvQZHf6G6MnPG0M-56" value="" style="endArrow=none;html=1;fillColor=#60a917;strokeColor=#2D7600;strokeWidth=4;exitX=0.75;exitY=1;exitDx=0;exitDy=0;entryX=0.941;entryY=0.75;entryDx=0;entryDy=0;entryPerimeter=0;" parent="1" source="CyXQOnvQZHf6G6MnPG0M-13" target="CyXQOnvQZHf6G6MnPG0M-59" edge="1">
                    <mxGeometry width="50" height="50" relative="1" as="geometry">
                        <mxPoint x="1250" y="1225" as="sourcePoint"/>
                        <mxPoint x="910" y="1055" as="targetPoint"/>
                    </mxGeometry>
                </mxCell>
                <mxCell id="CyXQOnvQZHf6G6MnPG0M-57" value="&lt;span style=&quot;font-size: 13px; font-family: Arial; text-decoration-skip-ink: none;&quot;&gt;&lt;span style=&quot;&quot;&gt;PhysicianAddress&lt;/span&gt;&lt;/span&gt;" style="ellipse;whiteSpace=wrap;html=1;fillColor=#60a917;fontColor=#ffffff;strokeColor=#2D7600;fontStyle=1" parent="1" vertex="1">
                    <mxGeometry x="852" y="1195" width="120" height="80" as="geometry"/>
                </mxCell>
                <mxCell id="CyXQOnvQZHf6G6MnPG0M-58" value="&lt;b&gt;&lt;u&gt;PhysicianID&lt;/u&gt;&lt;/b&gt;" style="ellipse;whiteSpace=wrap;html=1;fillColor=#60a917;fontColor=#ffffff;strokeColor=#2D7600;" parent="1" vertex="1">
                    <mxGeometry x="1255" y="990" width="120" height="80" as="geometry"/>
                </mxCell>
                <mxCell id="CyXQOnvQZHf6G6MnPG0M-59" value="&lt;b&gt;PhoneNumber&lt;/b&gt;" style="ellipse;whiteSpace=wrap;html=1;fillColor=#60a917;fontColor=#ffffff;strokeColor=#2D7600;" parent="1" vertex="1">
                    <mxGeometry x="1010" y="1230" width="120" height="80" as="geometry"/>
                </mxCell>
                <mxCell id="CyXQOnvQZHf6G6MnPG0M-60" value="&lt;span style=&quot;font-size: 13px; font-family: Arial; text-decoration-skip-ink: none;&quot;&gt;&lt;b style=&quot;&quot;&gt;PhysicianName&lt;/b&gt;&lt;/span&gt;" style="ellipse;whiteSpace=wrap;html=1;fillColor=#60a917;fontColor=#ffffff;strokeColor=#2D7600;" parent="1" vertex="1">
                    <mxGeometry x="1200" y="1205" width="120" height="80" as="geometry"/>
                </mxCell>
                <mxCell id="CyXQOnvQZHf6G6MnPG0M-61" value="" style="endArrow=none;html=1;entryX=1;entryY=1;entryDx=0;entryDy=0;fillColor=#f0a30a;strokeColor=#BD7000;strokeWidth=4;exitX=0;exitY=0;exitDx=0;exitDy=0;" parent="1" source="CyXQOnvQZHf6G6MnPG0M-64" target="CyXQOnvQZHf6G6MnPG0M-60" edge="1">
                    <mxGeometry width="50" height="50" relative="1" as="geometry">
                        <mxPoint x="1350" y="1315" as="sourcePoint"/>
                        <mxPoint x="1323.1" y="1235" as="targetPoint"/>
                    </mxGeometry>
                </mxCell>
                <mxCell id="CyXQOnvQZHf6G6MnPG0M-62" value="" style="endArrow=none;html=1;entryX=0;entryY=1;entryDx=0;entryDy=0;fillColor=#f0a30a;strokeColor=#BD7000;strokeWidth=4;exitX=0.5;exitY=0;exitDx=0;exitDy=0;" parent="1" source="CyXQOnvQZHf6G6MnPG0M-63" target="CyXQOnvQZHf6G6MnPG0M-60" edge="1">
                    <mxGeometry width="50" height="50" relative="1" as="geometry">
                        <mxPoint x="1200" y="1335" as="sourcePoint"/>
                        <mxPoint x="1210" y="1325" as="targetPoint"/>
                    </mxGeometry>
                </mxCell>
                <mxCell id="CyXQOnvQZHf6G6MnPG0M-63" value="&lt;font style=&quot;font-size: 14px;&quot;&gt;FirstName&lt;/font&gt;" style="ellipse;whiteSpace=wrap;html=1;fontColor=#ffffff;fillColor=#e51400;strokeColor=#B20000;" parent="1" vertex="1">
                    <mxGeometry x="1150" y="1295" width="93" height="55" as="geometry"/>
                </mxCell>
                <mxCell id="CyXQOnvQZHf6G6MnPG0M-64" value="&lt;font style=&quot;font-size: 14px;&quot;&gt;lastName&lt;/font&gt;" style="ellipse;whiteSpace=wrap;html=1;fontColor=#ffffff;fillColor=#e51400;strokeColor=#B20000;" parent="1" vertex="1">
                    <mxGeometry x="1300" y="1275" width="93" height="50" as="geometry"/>
                </mxCell>
                <mxCell id="CyXQOnvQZHf6G6MnPG0M-65" value="&lt;font style=&quot;font-size: 13px;&quot;&gt;locationInCity&lt;/font&gt;" style="ellipse;whiteSpace=wrap;html=1;fontColor=#ffffff;fillColor=#e51400;strokeColor=#B20000;fontStyle=1" parent="1" vertex="1">
                    <mxGeometry x="740" y="1220" width="93" height="50" as="geometry"/>
                </mxCell>
                <mxCell id="CyXQOnvQZHf6G6MnPG0M-66" value="ZIPCode" style="ellipse;whiteSpace=wrap;html=1;fontColor=#ffffff;fillColor=#e51400;strokeColor=#B20000;fontStyle=1" parent="1" vertex="1">
                    <mxGeometry x="888" y="1295" width="93" height="50" as="geometry"/>
                </mxCell>
                <mxCell id="CyXQOnvQZHf6G6MnPG0M-67" value="City" style="ellipse;whiteSpace=wrap;html=1;fontColor=#ffffff;fillColor=#e51400;strokeColor=#B20000;fontStyle=1" parent="1" vertex="1">
                    <mxGeometry x="793.5" y="1275" width="93" height="50" as="geometry"/>
                </mxCell>
                <mxCell id="CyXQOnvQZHf6G6MnPG0M-68" value="" style="endArrow=none;html=1;entryX=0;entryY=0.5;entryDx=0;entryDy=0;fillColor=#f0a30a;strokeColor=#BD7000;strokeWidth=4;exitX=1;exitY=0.5;exitDx=0;exitDy=0;fontStyle=1" parent="1" source="CyXQOnvQZHf6G6MnPG0M-65" target="CyXQOnvQZHf6G6MnPG0M-57" edge="1">
                    <mxGeometry width="50" height="50" relative="1" as="geometry">
                        <mxPoint x="1206.5" y="1305" as="sourcePoint"/>
                        <mxPoint x="1227.573593128807" y="1283.2842712474617" as="targetPoint"/>
                    </mxGeometry>
                </mxCell>
                <mxCell id="CyXQOnvQZHf6G6MnPG0M-69" value="" style="endArrow=none;html=1;entryX=0;entryY=1;entryDx=0;entryDy=0;fillColor=#f0a30a;strokeColor=#BD7000;strokeWidth=4;fontStyle=1" parent="1" source="CyXQOnvQZHf6G6MnPG0M-67" target="CyXQOnvQZHf6G6MnPG0M-57" edge="1">
                    <mxGeometry width="50" height="50" relative="1" as="geometry">
                        <mxPoint x="1216.5" y="1315" as="sourcePoint"/>
                        <mxPoint x="1237.573593128807" y="1293.2842712474617" as="targetPoint"/>
                    </mxGeometry>
                </mxCell>
                <mxCell id="CyXQOnvQZHf6G6MnPG0M-71" value="" style="endArrow=none;html=1;entryX=0.7;entryY=0.984;entryDx=0;entryDy=0;fillColor=#f0a30a;strokeColor=#BD7000;strokeWidth=4;exitX=0.5;exitY=0;exitDx=0;exitDy=0;entryPerimeter=0;fontStyle=1" parent="1" source="CyXQOnvQZHf6G6MnPG0M-66" target="CyXQOnvQZHf6G6MnPG0M-57" edge="1">
                    <mxGeometry width="50" height="50" relative="1" as="geometry">
                        <mxPoint x="1226.5" y="1325" as="sourcePoint"/>
                        <mxPoint x="1247.573593128807" y="1303.2842712474617" as="targetPoint"/>
                    </mxGeometry>
                </mxCell>
                <mxCell id="CyXQOnvQZHf6G6MnPG0M-75" value="&lt;font face=&quot;Arial&quot;&gt;&lt;span style=&quot;font-size: 13px;&quot;&gt;&lt;b&gt;&lt;u&gt;MedicationID&lt;/u&gt;&lt;/b&gt;&lt;/span&gt;&lt;/font&gt;" style="ellipse;whiteSpace=wrap;html=1;fillColor=#60a917;fontColor=#ffffff;strokeColor=#2D7600;" parent="1" vertex="1">
                    <mxGeometry x="1460" y="1035" width="86.33" height="55" as="geometry"/>
                </mxCell>
                <mxCell id="CyXQOnvQZHf6G6MnPG0M-76" value="&lt;font face=&quot;Arial&quot;&gt;&lt;span style=&quot;font-size: 13px;&quot;&gt;&lt;b&gt;AtcCode&lt;/b&gt;&lt;/span&gt;&lt;/font&gt;" style="ellipse;whiteSpace=wrap;html=1;fillColor=#60a917;fontColor=#ffffff;strokeColor=#2D7600;" parent="1" vertex="1">
                    <mxGeometry x="1580" y="1035" width="86.33" height="55" as="geometry"/>
                </mxCell>
                <mxCell id="CyXQOnvQZHf6G6MnPG0M-77" value="&lt;font face=&quot;Arial&quot;&gt;&lt;span style=&quot;font-size: 13px;&quot;&gt;&lt;b&gt;Description&lt;/b&gt;&lt;/span&gt;&lt;/font&gt;" style="ellipse;whiteSpace=wrap;html=1;fillColor=#60a917;fontColor=#ffffff;strokeColor=#2D7600;" parent="1" vertex="1">
                    <mxGeometry x="1590" y="1195" width="86.33" height="55" as="geometry"/>
                </mxCell>
                <mxCell id="CyXQOnvQZHf6G6MnPG0M-78" value="&lt;font size=&quot;1&quot; face=&quot;Arial&quot;&gt;&lt;b style=&quot;&quot;&gt;MedicationName&lt;/b&gt;&lt;/font&gt;" style="ellipse;whiteSpace=wrap;html=1;fillColor=#60a917;fontColor=#ffffff;strokeColor=#2D7600;" parent="1" vertex="1">
                    <mxGeometry x="1460" y="1195" width="86.33" height="55" as="geometry"/>
                </mxCell>
                <mxCell id="CyXQOnvQZHf6G6MnPG0M-79" value="" style="endArrow=none;html=1;entryX=0.806;entryY=0.998;entryDx=0;entryDy=0;fillColor=#60a917;strokeColor=#2D7600;strokeWidth=4;exitX=0.431;exitY=0.017;exitDx=0;exitDy=0;entryPerimeter=0;exitPerimeter=0;" parent="1" source="CyXQOnvQZHf6G6MnPG0M-77" target="CyXQOnvQZHf6G6MnPG0M-40" edge="1">
                    <mxGeometry width="50" height="50" relative="1" as="geometry">
                        <mxPoint x="1555.5735931288068" y="1296.7157287525379" as="sourcePoint"/>
                        <mxPoint x="1480" y="1250" as="targetPoint"/>
                    </mxGeometry>
                </mxCell>
                <mxCell id="CyXQOnvQZHf6G6MnPG0M-80" value="" style="endArrow=none;html=1;entryX=0;entryY=1;entryDx=0;entryDy=0;fillColor=#60a917;strokeColor=#2D7600;strokeWidth=4;exitX=0.627;exitY=0.002;exitDx=0;exitDy=0;exitPerimeter=0;" parent="1" source="CyXQOnvQZHf6G6MnPG0M-78" target="CyXQOnvQZHf6G6MnPG0M-40" edge="1">
                    <mxGeometry width="50" height="50" relative="1" as="geometry">
                        <mxPoint x="1450.5735931288068" y="1294.9957287525378" as="sourcePoint"/>
                        <mxPoint x="1375" y="1248.28" as="targetPoint"/>
                    </mxGeometry>
                </mxCell>
                <mxCell id="CyXQOnvQZHf6G6MnPG0M-81" value="" style="endArrow=none;html=1;entryX=0.5;entryY=1;entryDx=0;entryDy=0;fillColor=#60a917;strokeColor=#2D7600;strokeWidth=4;exitX=0;exitY=0;exitDx=0;exitDy=0;" parent="1" source="CyXQOnvQZHf6G6MnPG0M-40" target="CyXQOnvQZHf6G6MnPG0M-75" edge="1">
                    <mxGeometry width="50" height="50" relative="1" as="geometry">
                        <mxPoint x="1453.6735931288067" y="1251.7157287525379" as="sourcePoint"/>
                        <mxPoint x="1378.1" y="1205" as="targetPoint"/>
                    </mxGeometry>
                </mxCell>
                <mxCell id="CyXQOnvQZHf6G6MnPG0M-82" value="" style="endArrow=none;html=1;entryX=0.5;entryY=1;entryDx=0;entryDy=0;fillColor=#60a917;strokeColor=#2D7600;strokeWidth=4;exitX=0.75;exitY=0;exitDx=0;exitDy=0;" parent="1" source="CyXQOnvQZHf6G6MnPG0M-40" target="CyXQOnvQZHf6G6MnPG0M-76" edge="1">
                    <mxGeometry width="50" height="50" relative="1" as="geometry">
                        <mxPoint x="1610" y="1115" as="sourcePoint"/>
                        <mxPoint x="1430" y="1250" as="targetPoint"/>
                    </mxGeometry>
                </mxCell>
                <mxCell id="CyXQOnvQZHf6G6MnPG0M-83" value="&lt;font face=&quot;Arial&quot;&gt;&lt;span style=&quot;font-size: 13px;&quot;&gt;&lt;b&gt;PatientID&lt;/b&gt;&lt;/span&gt;&lt;/font&gt;" style="ellipse;whiteSpace=wrap;html=1;fillColor=#60a917;fontColor=#ffffff;strokeColor=#2D7600;" parent="1" vertex="1">
                    <mxGeometry x="100" y="970" width="103" height="70" as="geometry"/>
                </mxCell>
                <mxCell id="CyXQOnvQZHf6G6MnPG0M-86" value="&lt;font face=&quot;Arial&quot;&gt;&lt;span style=&quot;font-size: 13px;&quot;&gt;&lt;b&gt;StartDate&lt;/b&gt;&lt;/span&gt;&lt;/font&gt;" style="ellipse;whiteSpace=wrap;html=1;fillColor=#60a917;fontColor=#ffffff;strokeColor=#2D7600;" parent="1" vertex="1">
                    <mxGeometry x="312" y="1110" width="103" height="70" as="geometry"/>
                </mxCell>
                <mxCell id="CyXQOnvQZHf6G6MnPG0M-87" value="&lt;span style=&quot;font-size: 13px; font-family: Arial; text-decoration-skip-ink: none;&quot;&gt;&lt;b style=&quot;&quot;&gt;PhysicianID&lt;/b&gt;&lt;/span&gt;" style="ellipse;whiteSpace=wrap;html=1;fillColor=#60a917;fontColor=#ffffff;strokeColor=#2D7600;" parent="1" vertex="1">
                    <mxGeometry x="87" y="1060" width="103" height="70" as="geometry"/>
                </mxCell>
                <mxCell id="CyXQOnvQZHf6G6MnPG0M-88" value="&lt;font face=&quot;Arial&quot;&gt;&lt;span style=&quot;font-size: 13px;&quot;&gt;&lt;b&gt;RoomNumber&lt;/b&gt;&lt;/span&gt;&lt;/font&gt;" style="ellipse;whiteSpace=wrap;html=1;fillColor=#60a917;fontColor=#ffffff;strokeColor=#2D7600;" parent="1" vertex="1">
                    <mxGeometry x="542" y="840" width="103" height="70" as="geometry"/>
                </mxCell>
                <mxCell id="CyXQOnvQZHf6G6MnPG0M-89" value="&lt;font face=&quot;Arial&quot;&gt;&lt;span style=&quot;font-size: 13px;&quot;&gt;&lt;b&gt;EndDate&lt;/b&gt;&lt;/span&gt;&lt;/font&gt;" style="ellipse;whiteSpace=wrap;html=1;fillColor=#60a917;fontColor=#ffffff;strokeColor=#2D7600;" parent="1" vertex="1">
                    <mxGeometry x="120" y="1135" width="103" height="70" as="geometry"/>
                </mxCell>
                <mxCell id="CyXQOnvQZHf6G6MnPG0M-90" value="&lt;font face=&quot;Arial&quot;&gt;&lt;span style=&quot;font-size: 13px;&quot;&gt;&lt;b&gt;Information&lt;/b&gt;&lt;/span&gt;&lt;/font&gt;" style="ellipse;whiteSpace=wrap;html=1;fillColor=#60a917;fontColor=#ffffff;strokeColor=#2D7600;" parent="1" vertex="1">
                    <mxGeometry x="106" y="870" width="103" height="70" as="geometry"/>
                </mxCell>
                <mxCell id="CyXQOnvQZHf6G6MnPG0M-94" value="" style="endArrow=none;html=1;entryX=1;entryY=0.5;entryDx=0;entryDy=0;fillColor=#60a917;strokeColor=#2D7600;strokeWidth=4;exitX=0;exitY=0.5;exitDx=0;exitDy=0;" parent="1" source="CyXQOnvQZHf6G6MnPG0M-39" target="CyXQOnvQZHf6G6MnPG0M-83" edge="1">
                    <mxGeometry width="50" height="50" relative="1" as="geometry">
                        <mxPoint x="976.8335931288132" y="1564.215728752542" as="sourcePoint"/>
                        <mxPoint x="901.26" y="1517.5" as="targetPoint"/>
                    </mxGeometry>
                </mxCell>
                <mxCell id="CyXQOnvQZHf6G6MnPG0M-95" value="" style="endArrow=none;html=1;entryX=1;entryY=1;entryDx=0;entryDy=0;fillColor=#60a917;strokeColor=#2D7600;strokeWidth=4;exitX=0;exitY=0.25;exitDx=0;exitDy=0;" parent="1" source="CyXQOnvQZHf6G6MnPG0M-39" target="CyXQOnvQZHf6G6MnPG0M-90" edge="1">
                    <mxGeometry width="50" height="50" relative="1" as="geometry">
                        <mxPoint x="923.7835931288132" y="1432.495728752542" as="sourcePoint"/>
                        <mxPoint x="848.21" y="1385.78" as="targetPoint"/>
                    </mxGeometry>
                </mxCell>
                <mxCell id="CyXQOnvQZHf6G6MnPG0M-96" value="" style="endArrow=none;html=1;entryX=0.25;entryY=1;entryDx=0;entryDy=0;fillColor=#60a917;strokeColor=#2D7600;strokeWidth=4;" parent="1" source="CyXQOnvQZHf6G6MnPG0M-89" target="CyXQOnvQZHf6G6MnPG0M-39" edge="1">
                    <mxGeometry width="50" height="50" relative="1" as="geometry">
                        <mxPoint x="1225.0735931288132" y="1397.495728752542" as="sourcePoint"/>
                        <mxPoint x="1149.5" y="1350.78" as="targetPoint"/>
                    </mxGeometry>
                </mxCell>
                <mxCell id="CyXQOnvQZHf6G6MnPG0M-97" value="" style="endArrow=none;html=1;entryX=0.5;entryY=1;entryDx=0;entryDy=0;fillColor=#60a917;strokeColor=#2D7600;strokeWidth=4;exitX=0.5;exitY=0;exitDx=0;exitDy=0;" parent="1" source="CyXQOnvQZHf6G6MnPG0M-86" target="CyXQOnvQZHf6G6MnPG0M-39" edge="1">
                    <mxGeometry width="50" height="50" relative="1" as="geometry">
                        <mxPoint x="1184.0735931288132" y="1385.8557287525418" as="sourcePoint"/>
                        <mxPoint x="1108.5" y="1339.1399999999999" as="targetPoint"/>
                    </mxGeometry>
                </mxCell>
                <mxCell id="CyXQOnvQZHf6G6MnPG0M-98" value="" style="endArrow=none;html=1;entryX=1.021;entryY=0.14;entryDx=0;entryDy=0;fillColor=#60a917;strokeColor=#2D7600;strokeWidth=4;exitX=0.5;exitY=1;exitDx=0;exitDy=0;entryPerimeter=0;" parent="1" source="CyXQOnvQZHf6G6MnPG0M-88" target="CyXQOnvQZHf6G6MnPG0M-39" edge="1">
                    <mxGeometry width="50" height="50" relative="1" as="geometry">
                        <mxPoint x="609.5" y="747.5" as="sourcePoint"/>
                        <mxPoint x="958.5" y="1557.5" as="targetPoint"/>
                    </mxGeometry>
                </mxCell>
                <mxCell id="CyXQOnvQZHf6G6MnPG0M-99" value="" style="endArrow=none;html=1;entryX=0;entryY=1;entryDx=0;entryDy=0;fillColor=#60a917;strokeColor=#2D7600;strokeWidth=4;exitX=1;exitY=0.5;exitDx=0;exitDy=0;" parent="1" source="CyXQOnvQZHf6G6MnPG0M-87" target="CyXQOnvQZHf6G6MnPG0M-39" edge="1">
                    <mxGeometry width="50" height="50" relative="1" as="geometry">
                        <mxPoint x="934.0735931288132" y="1575.8557287525418" as="sourcePoint"/>
                        <mxPoint x="858.5" y="1529.1399999999999" as="targetPoint"/>
                    </mxGeometry>
                </mxCell>
                <mxCell id="CyXQOnvQZHf6G6MnPG0M-102" value="&lt;b&gt;CREATES&lt;br&gt;&lt;/b&gt;" style="html=1;whiteSpace=wrap;aspect=fixed;shape=isoRectangle;fontColor=#ffffff;fillColor=#1ba1e2;strokeColor=#006EAF;" parent="1" vertex="1">
                    <mxGeometry x="708" y="985" width="125" height="75" as="geometry"/>
                </mxCell>
                <mxCell id="CyXQOnvQZHf6G6MnPG0M-104" value="" style="endArrow=none;html=1;strokeWidth=4;fontColor=#FFFFFF;fillColor=#e51400;strokeColor=#B20000;entryX=1;entryY=0.5;entryDx=0;entryDy=0;exitX=0.102;exitY=0.582;exitDx=0;exitDy=0;exitPerimeter=0;shape=link;" parent="1" source="CyXQOnvQZHf6G6MnPG0M-102" target="CyXQOnvQZHf6G6MnPG0M-39" edge="1">
                    <mxGeometry width="50" height="50" relative="1" as="geometry">
                        <mxPoint x="717" y="1007" as="sourcePoint"/>
                        <mxPoint x="800" y="1029.02" as="targetPoint"/>
                    </mxGeometry>
                </mxCell>
                <UserObject label="1&lt;br&gt;" placeholders="1" name="Variable" id="CyXQOnvQZHf6G6MnPG0M-108">
                    <mxCell style="text;html=1;strokeColor=none;fillColor=none;align=center;verticalAlign=middle;whiteSpace=wrap;overflow=hidden;fontColor=#FFFFFF;fontStyle=1" parent="1" vertex="1">
                        <mxGeometry x="913.5" y="1060" width="55" height="20" as="geometry"/>
                    </mxCell>
                </UserObject>
                <UserObject label="N" placeholders="1" name="Variable" id="CyXQOnvQZHf6G6MnPG0M-109">
                    <mxCell style="text;html=1;strokeColor=none;fillColor=none;align=center;verticalAlign=middle;whiteSpace=wrap;overflow=hidden;fontColor=#FFFFFF;fontStyle=1" parent="1" vertex="1">
                        <mxGeometry x="620" y="960" width="55" height="20" as="geometry"/>
                    </mxCell>
                </UserObject>
                <mxCell id="SpniuVByLmKzfF59dG_X-13" style="edgeStyle=none;shape=connector;rounded=1;html=1;exitX=1;exitY=0.5;exitDx=0;exitDy=0;entryX=0.032;entryY=0.54;entryDx=0;entryDy=0;entryPerimeter=0;labelBackgroundColor=default;strokeColor=#B20000;strokeWidth=4;fontFamily=Helvetica;fontSize=11;fontColor=#FFFFFF;endArrow=none;fillColor=#e51400;" edge="1" parent="1" source="CyXQOnvQZHf6G6MnPG0M-111" target="CyXQOnvQZHf6G6MnPG0M-118">
                    <mxGeometry relative="1" as="geometry"/>
                </mxCell>
                <mxCell id="Yne-uFJiCMa3R4fmQKVA-1" style="edgeStyle=none;shape=connector;rounded=1;html=1;exitX=0.25;exitY=1;exitDx=0;exitDy=0;labelBackgroundColor=default;strokeColor=#B20000;strokeWidth=4;fontFamily=Helvetica;fontSize=11;fontColor=#FFFFFF;endArrow=none;fillColor=#e51400;" edge="1" parent="1" source="CyXQOnvQZHf6G6MnPG0M-111" target="CyXQOnvQZHf6G6MnPG0M-117">
                    <mxGeometry relative="1" as="geometry"/>
                </mxCell>
                <mxCell id="CyXQOnvQZHf6G6MnPG0M-111" value="&lt;b&gt;&lt;font style=&quot;font-size: 14px;&quot;&gt;ROOM&lt;/font&gt;&lt;/b&gt;" style="rounded=0;whiteSpace=wrap;html=1;fillColor=#d80073;fontColor=#ffffff;strokeColor=#A50040;" parent="1" vertex="1">
                    <mxGeometry x="181.5" y="280" width="120" height="60" as="geometry"/>
                </mxCell>
                <mxCell id="SpniuVByLmKzfF59dG_X-10" style="edgeStyle=none;shape=connector;rounded=1;html=1;exitX=0.25;exitY=1;exitDx=0;exitDy=0;entryX=0.484;entryY=0.073;entryDx=0;entryDy=0;entryPerimeter=0;labelBackgroundColor=default;strokeColor=#B20000;strokeWidth=4;fontFamily=Helvetica;fontSize=11;fontColor=#FFFFFF;endArrow=none;fillColor=#e51400;" edge="1" parent="1" source="CyXQOnvQZHf6G6MnPG0M-112" target="CyXQOnvQZHf6G6MnPG0M-116">
                    <mxGeometry relative="1" as="geometry"/>
                </mxCell>
                <mxCell id="SpniuVByLmKzfF59dG_X-12" style="edgeStyle=none;shape=connector;rounded=1;html=1;exitX=0.5;exitY=0;exitDx=0;exitDy=0;entryX=0.413;entryY=0.873;entryDx=0;entryDy=0;entryPerimeter=0;labelBackgroundColor=default;strokeColor=#B20000;strokeWidth=4;fontFamily=Helvetica;fontSize=11;fontColor=#FFFFFF;endArrow=none;fillColor=#e51400;" edge="1" parent="1" source="CyXQOnvQZHf6G6MnPG0M-112" target="CyXQOnvQZHf6G6MnPG0M-120">
                    <mxGeometry relative="1" as="geometry"/>
                </mxCell>
                <mxCell id="CyXQOnvQZHf6G6MnPG0M-112" value="&lt;b&gt;PATIENT&lt;/b&gt;" style="rounded=0;whiteSpace=wrap;html=1;fillColor=#d80073;fontColor=#ffffff;strokeColor=#A50040;" parent="1" vertex="1">
                    <mxGeometry x="573.5" y="535" width="120" height="60" as="geometry"/>
                </mxCell>
                <mxCell id="CyXQOnvQZHf6G6MnPG0M-113" value="&lt;b&gt;&lt;font style=&quot;font-size: 14px;&quot;&gt;NURSE&lt;/font&gt;&lt;br&gt;&lt;/b&gt;" style="rounded=0;whiteSpace=wrap;html=1;fillColor=#d80073;fontColor=#ffffff;strokeColor=#A50040;" parent="1" vertex="1">
                    <mxGeometry x="1210" y="150" width="120" height="60" as="geometry"/>
                </mxCell>
                <mxCell id="CyXQOnvQZHf6G6MnPG0M-116" value="&lt;b&gt;ASSIGNS_TO&lt;br&gt;&lt;/b&gt;" style="html=1;whiteSpace=wrap;aspect=fixed;shape=isoRectangle;fontColor=#ffffff;fillColor=#1ba1e2;strokeColor=#006EAF;" parent="1" vertex="1">
                    <mxGeometry x="506" y="680" width="125" height="75" as="geometry"/>
                </mxCell>
                <mxCell id="CyXQOnvQZHf6G6MnPG0M-117" value="&lt;b&gt;HAS&lt;br&gt;&lt;/b&gt;" style="html=1;whiteSpace=wrap;aspect=fixed;shape=isoRectangle;fontColor=#ffffff;fillColor=#1ba1e2;strokeColor=#006EAF;" parent="1" vertex="1">
                    <mxGeometry x="209" y="670" width="125" height="75" as="geometry"/>
                </mxCell>
                <mxCell id="CyXQOnvQZHf6G6MnPG0M-118" value="&lt;b&gt;ON_CALL&lt;br&gt;&lt;/b&gt;" style="html=1;whiteSpace=wrap;aspect=fixed;shape=isoRectangle;fontColor=#ffffff;fillColor=#1ba1e2;strokeColor=#006EAF;" parent="1" vertex="1">
                    <mxGeometry x="620" y="80" width="125" height="75" as="geometry"/>
                </mxCell>
                <mxCell id="CyXQOnvQZHf6G6MnPG0M-119" value="&lt;b&gt;&lt;font style=&quot;font-size: 14px;&quot;&gt;TEST&lt;/font&gt;&lt;/b&gt;" style="rounded=0;whiteSpace=wrap;html=1;fillColor=#d80073;fontColor=#ffffff;strokeColor=#A50040;" parent="1" vertex="1">
                    <mxGeometry x="730" y="280" width="120" height="60" as="geometry"/>
                </mxCell>
                <mxCell id="CyXQOnvQZHf6G6MnPG0M-120" value="&lt;b&gt;TAKES&lt;br&gt;&lt;/b&gt;" style="html=1;whiteSpace=wrap;aspect=fixed;shape=isoRectangle;fontColor=#ffffff;fillColor=#1ba1e2;strokeColor=#006EAF;" parent="1" vertex="1">
                    <mxGeometry x="592" y="377.5" width="125" height="75" as="geometry"/>
                </mxCell>
                <mxCell id="CyXQOnvQZHf6G6MnPG0M-121" value="&lt;b&gt;CONSISTS_OF&lt;br&gt;&lt;/b&gt;" style="html=1;whiteSpace=wrap;aspect=fixed;shape=isoRectangle;fontColor=#ffffff;fillColor=#1ba1e2;strokeColor=#006EAF;" parent="1" vertex="1">
                    <mxGeometry x="985" y="365.5" width="145" height="87" as="geometry"/>
                </mxCell>
                <mxCell id="CyXQOnvQZHf6G6MnPG0M-122" value="&lt;b&gt;CONSISTS_OF&lt;br&gt;&lt;/b&gt;" style="html=1;whiteSpace=wrap;aspect=fixed;shape=isoRectangle;fontColor=#ffffff;fillColor=#1ba1e2;strokeColor=#006EAF;" parent="1" vertex="1">
                    <mxGeometry x="788.5000000000001" y="580" width="125" height="75" as="geometry"/>
                </mxCell>
                <mxCell id="VtW6A7dYtCV5GmQcWuhx-6" value="" style="endArrow=none;html=1;strokeWidth=4;fontColor=#FFFFFF;fillColor=#e51400;strokeColor=#B20000;entryX=0.736;entryY=0.8;entryDx=0;entryDy=0;entryPerimeter=0;exitX=0;exitY=0;exitDx=0;exitDy=0;shape=link;" parent="1" source="CyXQOnvQZHf6G6MnPG0M-39" target="CyXQOnvQZHf6G6MnPG0M-117" edge="1">
                    <mxGeometry width="50" height="50" relative="1" as="geometry">
                        <mxPoint x="480" y="838.55" as="sourcePoint"/>
                        <mxPoint x="470.25" y="679.9999999999998" as="targetPoint"/>
                    </mxGeometry>
                </mxCell>
                <mxCell id="VtW6A7dYtCV5GmQcWuhx-10" value="" style="endArrow=none;html=1;strokeWidth=4;fontColor=#FFFFFF;fillColor=#e51400;strokeColor=#B20000;entryX=0;entryY=1;entryDx=0;entryDy=0;exitX=0.52;exitY=0.067;exitDx=0;exitDy=0;exitPerimeter=0;shape=link;" parent="1" source="CyXQOnvQZHf6G6MnPG0M-121" target="CyXQOnvQZHf6G6MnPG0M-113" edge="1">
                    <mxGeometry width="50" height="50" relative="1" as="geometry">
                        <mxPoint x="939.38" y="808.55" as="sourcePoint"/>
                        <mxPoint x="929.63" y="649.9999999999998" as="targetPoint"/>
                    </mxGeometry>
                </mxCell>
                <mxCell id="VtW6A7dYtCV5GmQcWuhx-12" value="" style="endArrow=none;html=1;strokeWidth=4;fontColor=#FFFFFF;fillColor=#e51400;strokeColor=#B20000;entryX=1;entryY=0.507;entryDx=0;entryDy=0;entryPerimeter=0;exitX=0;exitY=0.5;exitDx=0;exitDy=0;shape=link;" parent="1" source="CyXQOnvQZHf6G6MnPG0M-113" target="CyXQOnvQZHf6G6MnPG0M-118" edge="1">
                    <mxGeometry width="50" height="50" relative="1" as="geometry">
                        <mxPoint x="875.5" y="495" as="sourcePoint"/>
                        <mxPoint x="804.5" y="363.0250000000001" as="targetPoint"/>
                    </mxGeometry>
                </mxCell>
                <mxCell id="VtW6A7dYtCV5GmQcWuhx-16" value="" style="endArrow=none;html=1;strokeWidth=4;fontColor=#FFFFFF;fillColor=#e51400;strokeColor=#B20000;entryX=0;entryY=1;entryDx=0;entryDy=0;exitX=0.532;exitY=0.087;exitDx=0;exitDy=0;exitPerimeter=0;shape=link;" parent="1" source="CyXQOnvQZHf6G6MnPG0M-120" target="CyXQOnvQZHf6G6MnPG0M-119" edge="1">
                    <mxGeometry width="50" height="50" relative="1" as="geometry">
                        <mxPoint x="852" y="620" as="sourcePoint"/>
                        <mxPoint x="781" y="488.0250000000001" as="targetPoint"/>
                    </mxGeometry>
                </mxCell>
                <mxCell id="VtW6A7dYtCV5GmQcWuhx-17" value="" style="endArrow=none;html=1;strokeWidth=4;fontColor=#FFFFFF;fillColor=#e51400;strokeColor=#B20000;entryX=0.5;entryY=0;entryDx=0;entryDy=0;exitX=0.334;exitY=0.81;exitDx=0;exitDy=0;exitPerimeter=0;shape=link;" parent="1" source="CyXQOnvQZHf6G6MnPG0M-116" target="CyXQOnvQZHf6G6MnPG0M-39" edge="1">
                    <mxGeometry width="50" height="50" relative="1" as="geometry">
                        <mxPoint x="610" y="610" as="sourcePoint"/>
                        <mxPoint x="720" y="510" as="targetPoint"/>
                    </mxGeometry>
                </mxCell>
                <mxCell id="VtW6A7dYtCV5GmQcWuhx-22" value="" style="endArrow=none;html=1;strokeWidth=4;fontColor=#FFFFFF;fillColor=#e51400;strokeColor=#B20000;entryX=0.072;entryY=0.467;entryDx=0;entryDy=0;entryPerimeter=0;exitX=1;exitY=0.5;exitDx=0;exitDy=0;shape=link;" parent="1" source="CyXQOnvQZHf6G6MnPG0M-112" target="CyXQOnvQZHf6G6MnPG0M-122" edge="1">
                    <mxGeometry width="50" height="50" relative="1" as="geometry">
                        <mxPoint x="650" y="560" as="sourcePoint"/>
                        <mxPoint x="686" y="500.0250000000001" as="targetPoint"/>
                    </mxGeometry>
                </mxCell>
                <mxCell id="VtW6A7dYtCV5GmQcWuhx-24" value="&lt;span style=&quot;font-size: 11px; font-family: Arial; text-decoration-skip-ink: none;&quot;&gt;&lt;b style=&quot;font-size: 11px;&quot;&gt;AvailabilityStatus&lt;/b&gt;&lt;/span&gt;" style="ellipse;whiteSpace=wrap;html=1;fillColor=#60a917;fontColor=#ffffff;strokeColor=#2D7600;fontSize=11;" parent="1" vertex="1">
                    <mxGeometry x="30" y="275" width="103" height="70" as="geometry"/>
                </mxCell>
                <mxCell id="VtW6A7dYtCV5GmQcWuhx-25" value="&lt;font face=&quot;Arial&quot;&gt;&lt;span style=&quot;font-size: 13px;&quot;&gt;&lt;b&gt;RoomType&lt;/b&gt;&lt;/span&gt;&lt;/font&gt;" style="ellipse;whiteSpace=wrap;html=1;fillColor=#60a917;fontColor=#ffffff;strokeColor=#2D7600;" parent="1" vertex="1">
                    <mxGeometry x="40" y="160" width="103" height="70" as="geometry"/>
                </mxCell>
                <mxCell id="VtW6A7dYtCV5GmQcWuhx-27" value="&lt;font face=&quot;Arial&quot;&gt;&lt;span style=&quot;font-size: 13px;&quot;&gt;&lt;b&gt;&lt;u&gt;RoomNumber&lt;/u&gt;&lt;/b&gt;&lt;/span&gt;&lt;/font&gt;" style="ellipse;whiteSpace=wrap;html=1;fillColor=#60a917;fontColor=#ffffff;strokeColor=#2D7600;" parent="1" vertex="1">
                    <mxGeometry x="190" y="50" width="103" height="70" as="geometry"/>
                </mxCell>
                <mxCell id="VtW6A7dYtCV5GmQcWuhx-29" value="" style="endArrow=none;html=1;entryX=0.5;entryY=0;entryDx=0;entryDy=0;fillColor=#60a917;strokeColor=#2D7600;strokeWidth=4;exitX=0.5;exitY=1;exitDx=0;exitDy=0;" parent="1" source="VtW6A7dYtCV5GmQcWuhx-27" target="CyXQOnvQZHf6G6MnPG0M-111" edge="1">
                    <mxGeometry width="50" height="50" relative="1" as="geometry">
                        <mxPoint x="360.5" y="290" as="sourcePoint"/>
                        <mxPoint x="253" y="347.5" as="targetPoint"/>
                    </mxGeometry>
                </mxCell>
                <mxCell id="VtW6A7dYtCV5GmQcWuhx-30" value="" style="endArrow=none;html=1;entryX=1;entryY=1;entryDx=0;entryDy=0;fillColor=#60a917;strokeColor=#2D7600;strokeWidth=4;exitX=0;exitY=0;exitDx=0;exitDy=0;" parent="1" source="CyXQOnvQZHf6G6MnPG0M-111" target="VtW6A7dYtCV5GmQcWuhx-25" edge="1">
                    <mxGeometry width="50" height="50" relative="1" as="geometry">
                        <mxPoint x="137.5" y="662.5" as="sourcePoint"/>
                        <mxPoint x="30" y="720" as="targetPoint"/>
                    </mxGeometry>
                </mxCell>
                <mxCell id="VtW6A7dYtCV5GmQcWuhx-31" value="" style="endArrow=none;html=1;entryX=1;entryY=0;entryDx=0;entryDy=0;fillColor=#60a917;strokeColor=#2D7600;strokeWidth=4;exitX=0;exitY=1;exitDx=0;exitDy=0;" parent="1" source="CyXQOnvQZHf6G6MnPG0M-111" target="VtW6A7dYtCV5GmQcWuhx-24" edge="1">
                    <mxGeometry width="50" height="50" relative="1" as="geometry">
                        <mxPoint x="283.75" y="640" as="sourcePoint"/>
                        <mxPoint x="176.25" y="697.5" as="targetPoint"/>
                    </mxGeometry>
                </mxCell>
                <mxCell id="VtW6A7dYtCV5GmQcWuhx-32" value="&lt;font size=&quot;1&quot; face=&quot;Arial&quot;&gt;&lt;b style=&quot;font-size: 12px;&quot;&gt;PatientName&lt;/b&gt;&lt;/font&gt;" style="ellipse;whiteSpace=wrap;html=1;fillColor=#60a917;fontColor=#ffffff;strokeColor=#2D7600;fontSize=11;" parent="1" vertex="1">
                    <mxGeometry x="399" y="590" width="103" height="70" as="geometry"/>
                </mxCell>
                <mxCell id="VtW6A7dYtCV5GmQcWuhx-34" value="&lt;font size=&quot;1&quot; face=&quot;Arial&quot;&gt;&lt;b style=&quot;&quot;&gt;&lt;u style=&quot;font-size: 14px;&quot;&gt;PatientID&lt;/u&gt;&lt;/b&gt;&lt;/font&gt;" style="ellipse;whiteSpace=wrap;html=1;fillColor=#60a917;fontColor=#ffffff;strokeColor=#2D7600;fontSize=11;" parent="1" vertex="1">
                    <mxGeometry x="730" y="470" width="103" height="70" as="geometry"/>
                </mxCell>
                <mxCell id="VtW6A7dYtCV5GmQcWuhx-36" value="" style="endArrow=none;html=1;entryX=1;entryY=0;entryDx=0;entryDy=0;fillColor=#60a917;strokeColor=#2D7600;strokeWidth=4;exitX=0;exitY=1;exitDx=0;exitDy=0;" parent="1" source="VtW6A7dYtCV5GmQcWuhx-34" target="CyXQOnvQZHf6G6MnPG0M-112" edge="1">
                    <mxGeometry width="50" height="50" relative="1" as="geometry">
                        <mxPoint x="901.2835931288068" y="476.71572875253787" as="sourcePoint"/>
                        <mxPoint x="825.71" y="430" as="targetPoint"/>
                    </mxGeometry>
                </mxCell>
                <mxCell id="VtW6A7dYtCV5GmQcWuhx-37" value="" style="endArrow=none;html=1;entryX=0.25;entryY=0;entryDx=0;entryDy=0;fillColor=#60a917;strokeColor=#2D7600;strokeWidth=4;exitX=1;exitY=0.5;exitDx=0;exitDy=0;" parent="1" source="VtW6A7dYtCV5GmQcWuhx-47" target="CyXQOnvQZHf6G6MnPG0M-112" edge="1">
                    <mxGeometry width="50" height="50" relative="1" as="geometry">
                        <mxPoint x="497.70527314263904" y="489.8911252855644" as="sourcePoint"/>
                        <mxPoint x="436.42999999999995" y="496.72" as="targetPoint"/>
                    </mxGeometry>
                </mxCell>
                <mxCell id="VtW6A7dYtCV5GmQcWuhx-38" value="" style="endArrow=none;html=1;entryX=1;entryY=0.5;entryDx=0;entryDy=0;fillColor=#60a917;strokeColor=#2D7600;strokeWidth=4;exitX=0;exitY=1;exitDx=0;exitDy=0;" parent="1" source="CyXQOnvQZHf6G6MnPG0M-112" target="VtW6A7dYtCV5GmQcWuhx-32" edge="1">
                    <mxGeometry width="50" height="50" relative="1" as="geometry">
                        <mxPoint x="515.5735931288073" y="485.0042712474617" as="sourcePoint"/>
                        <mxPoint x="385" y="536.72" as="targetPoint"/>
                    </mxGeometry>
                </mxCell>
                <mxCell id="VtW6A7dYtCV5GmQcWuhx-47" value="&lt;span style=&quot;font-size: 13px; font-family: Arial; text-decoration-skip-ink: none;&quot;&gt;&lt;span style=&quot;&quot;&gt;PhysicianAddress&lt;/span&gt;&lt;/span&gt;" style="ellipse;whiteSpace=wrap;html=1;fillColor=#60a917;fontColor=#ffffff;strokeColor=#2D7600;fontStyle=1" parent="1" vertex="1">
                    <mxGeometry x="360" y="400" width="120" height="80" as="geometry"/>
                </mxCell>
                <mxCell id="VtW6A7dYtCV5GmQcWuhx-48" value="locationInCity" style="ellipse;whiteSpace=wrap;html=1;fontColor=#ffffff;fillColor=#e51400;strokeColor=#B20000;fontStyle=1" parent="1" vertex="1">
                    <mxGeometry x="317" y="340" width="93" height="50" as="geometry"/>
                </mxCell>
                <mxCell id="VtW6A7dYtCV5GmQcWuhx-49" value="ZIPCode" style="ellipse;whiteSpace=wrap;html=1;fontColor=#ffffff;fillColor=#e51400;strokeColor=#B20000;fontStyle=1" parent="1" vertex="1">
                    <mxGeometry x="293" y="480" width="93" height="50" as="geometry"/>
                </mxCell>
                <mxCell id="VtW6A7dYtCV5GmQcWuhx-50" value="City" style="ellipse;whiteSpace=wrap;html=1;fontColor=#ffffff;fillColor=#e51400;strokeColor=#B20000;fontStyle=1" parent="1" vertex="1">
                    <mxGeometry x="250" y="390" width="93" height="50" as="geometry"/>
                </mxCell>
                <mxCell id="VtW6A7dYtCV5GmQcWuhx-51" value="" style="endArrow=none;html=1;entryX=0.5;entryY=0;entryDx=0;entryDy=0;fillColor=#f0a30a;strokeColor=#BD7000;strokeWidth=4;exitX=1;exitY=0.5;exitDx=0;exitDy=0;fontStyle=1" parent="1" source="VtW6A7dYtCV5GmQcWuhx-48" target="VtW6A7dYtCV5GmQcWuhx-47" edge="1">
                    <mxGeometry width="50" height="50" relative="1" as="geometry">
                        <mxPoint x="686.5" y="500" as="sourcePoint"/>
                        <mxPoint x="707.573593128807" y="478.2842712474617" as="targetPoint"/>
                    </mxGeometry>
                </mxCell>
                <mxCell id="VtW6A7dYtCV5GmQcWuhx-52" value="" style="endArrow=none;html=1;entryX=0;entryY=0;entryDx=0;entryDy=0;fillColor=#f0a30a;strokeColor=#BD7000;strokeWidth=4;fontStyle=1" parent="1" source="VtW6A7dYtCV5GmQcWuhx-50" target="VtW6A7dYtCV5GmQcWuhx-47" edge="1">
                    <mxGeometry width="50" height="50" relative="1" as="geometry">
                        <mxPoint x="696.5" y="510" as="sourcePoint"/>
                        <mxPoint x="717.573593128807" y="488.2842712474617" as="targetPoint"/>
                    </mxGeometry>
                </mxCell>
                <mxCell id="VtW6A7dYtCV5GmQcWuhx-53" value="" style="endArrow=none;html=1;entryX=0;entryY=1;entryDx=0;entryDy=0;fillColor=#f0a30a;strokeColor=#BD7000;strokeWidth=4;exitX=0.5;exitY=0;exitDx=0;exitDy=0;fontStyle=1" parent="1" source="VtW6A7dYtCV5GmQcWuhx-49" target="VtW6A7dYtCV5GmQcWuhx-47" edge="1">
                    <mxGeometry width="50" height="50" relative="1" as="geometry">
                        <mxPoint x="706.5" y="520" as="sourcePoint"/>
                        <mxPoint x="727.573593128807" y="498.2842712474617" as="targetPoint"/>
                    </mxGeometry>
                </mxCell>
                <mxCell id="VtW6A7dYtCV5GmQcWuhx-54" value="FirstName" style="ellipse;whiteSpace=wrap;html=1;fontColor=#ffffff;fillColor=#e51400;strokeColor=#B20000;fontStyle=1" parent="1" vertex="1">
                    <mxGeometry x="293" y="565" width="93" height="50" as="geometry"/>
                </mxCell>
                <mxCell id="VtW6A7dYtCV5GmQcWuhx-55" value="lastName" style="ellipse;whiteSpace=wrap;html=1;fontColor=#ffffff;fillColor=#e51400;strokeColor=#B20000;fontStyle=1" parent="1" vertex="1">
                    <mxGeometry x="360" y="670" width="93" height="50" as="geometry"/>
                </mxCell>
                <mxCell id="VtW6A7dYtCV5GmQcWuhx-56" value="" style="endArrow=none;html=1;entryX=0.5;entryY=0;entryDx=0;entryDy=0;fillColor=#f0a30a;strokeColor=#BD7000;strokeWidth=4;exitX=0.5;exitY=1;exitDx=0;exitDy=0;fontStyle=1" parent="1" source="VtW6A7dYtCV5GmQcWuhx-32" target="VtW6A7dYtCV5GmQcWuhx-55" edge="1">
                    <mxGeometry width="50" height="50" relative="1" as="geometry">
                        <mxPoint x="349.4999999999998" y="490" as="sourcePoint"/>
                        <mxPoint x="387.57359312880703" y="478.28427124746236" as="targetPoint"/>
                    </mxGeometry>
                </mxCell>
                <mxCell id="VtW6A7dYtCV5GmQcWuhx-57" value="" style="endArrow=none;html=1;entryX=0;entryY=0;entryDx=0;entryDy=0;fillColor=#f0a30a;strokeColor=#BD7000;strokeWidth=4;exitX=1;exitY=0.5;exitDx=0;exitDy=0;fontStyle=1" parent="1" source="VtW6A7dYtCV5GmQcWuhx-54" target="VtW6A7dYtCV5GmQcWuhx-32" edge="1">
                    <mxGeometry width="50" height="50" relative="1" as="geometry">
                        <mxPoint x="359.4999999999998" y="500" as="sourcePoint"/>
                        <mxPoint x="397.57359312880703" y="488.28427124746236" as="targetPoint"/>
                    </mxGeometry>
                </mxCell>
                <mxCell id="VtW6A7dYtCV5GmQcWuhx-58" value="&lt;font size=&quot;1&quot; face=&quot;Arial&quot;&gt;&lt;b style=&quot;font-size: 14px;&quot;&gt;TestResult&lt;/b&gt;&lt;/font&gt;" style="ellipse;whiteSpace=wrap;html=1;fillColor=#60a917;fontColor=#ffffff;strokeColor=#2D7600;fontSize=11;" parent="1" vertex="1">
                    <mxGeometry x="788.5" y="350" width="103" height="70" as="geometry"/>
                </mxCell>
                <mxCell id="VtW6A7dYtCV5GmQcWuhx-59" value="&lt;font size=&quot;1&quot; face=&quot;Arial&quot;&gt;&lt;b style=&quot;font-size: 14px;&quot;&gt;TestType&lt;/b&gt;&lt;/font&gt;" style="ellipse;whiteSpace=wrap;html=1;fillColor=#60a917;fontColor=#ffffff;strokeColor=#2D7600;fontSize=11;" parent="1" vertex="1">
                    <mxGeometry x="869" y="290" width="103" height="70" as="geometry"/>
                </mxCell>
                <mxCell id="VtW6A7dYtCV5GmQcWuhx-60" value="&lt;font size=&quot;1&quot; face=&quot;Arial&quot;&gt;&lt;b style=&quot;&quot;&gt;&lt;u style=&quot;font-size: 14px;&quot;&gt;RecordedID&lt;/u&gt;&lt;/b&gt;&lt;/font&gt;" style="ellipse;whiteSpace=wrap;html=1;fillColor=#60a917;fontColor=#ffffff;strokeColor=#2D7600;fontSize=11;" parent="1" vertex="1">
                    <mxGeometry x="606" y="200" width="103" height="70" as="geometry"/>
                </mxCell>
                <mxCell id="VtW6A7dYtCV5GmQcWuhx-61" value="&lt;font size=&quot;1&quot; face=&quot;Arial&quot;&gt;&lt;b style=&quot;font-size: 14px;&quot;&gt;TestDate&lt;/b&gt;&lt;/font&gt;" style="ellipse;whiteSpace=wrap;html=1;fillColor=#60a917;fontColor=#ffffff;strokeColor=#2D7600;fontSize=11;" parent="1" vertex="1">
                    <mxGeometry x="869" y="200" width="103" height="70" as="geometry"/>
                </mxCell>
                <mxCell id="VtW6A7dYtCV5GmQcWuhx-62" value="&lt;font size=&quot;1&quot; face=&quot;Arial&quot;&gt;&lt;b style=&quot;font-size: 14px;&quot;&gt;PatientID&lt;/b&gt;&lt;/font&gt;" style="ellipse;whiteSpace=wrap;html=1;fillColor=#60a917;fontColor=#ffffff;strokeColor=#2D7600;fontSize=11;" parent="1" vertex="1">
                    <mxGeometry x="750" y="155" width="103" height="70" as="geometry"/>
                </mxCell>
                <mxCell id="VtW6A7dYtCV5GmQcWuhx-63" value="" style="endArrow=none;html=1;fillColor=#60a917;strokeColor=#2D7600;strokeWidth=4;exitX=0.968;exitY=0.675;exitDx=0;exitDy=0;exitPerimeter=0;" parent="1" source="VtW6A7dYtCV5GmQcWuhx-60" target="CyXQOnvQZHf6G6MnPG0M-119" edge="1">
                    <mxGeometry width="50" height="50" relative="1" as="geometry">
                        <mxPoint x="754.9446051213304" y="539.6536384065446" as="sourcePoint"/>
                        <mxPoint x="673" y="535" as="targetPoint"/>
                    </mxGeometry>
                </mxCell>
                <mxCell id="VtW6A7dYtCV5GmQcWuhx-64" value="" style="endArrow=none;html=1;entryX=0.75;entryY=0;entryDx=0;entryDy=0;fillColor=#60a917;strokeColor=#2D7600;strokeWidth=4;exitX=0.5;exitY=1;exitDx=0;exitDy=0;" parent="1" source="VtW6A7dYtCV5GmQcWuhx-62" target="CyXQOnvQZHf6G6MnPG0M-119" edge="1">
                    <mxGeometry width="50" height="50" relative="1" as="geometry">
                        <mxPoint x="764.9446051213304" y="549.6536384065446" as="sourcePoint"/>
                        <mxPoint x="683" y="545" as="targetPoint"/>
                    </mxGeometry>
                </mxCell>
                <mxCell id="VtW6A7dYtCV5GmQcWuhx-65" value="" style="endArrow=none;html=1;entryX=1;entryY=0;entryDx=0;entryDy=0;fillColor=#60a917;strokeColor=#2D7600;strokeWidth=4;exitX=0;exitY=1;exitDx=0;exitDy=0;" parent="1" source="VtW6A7dYtCV5GmQcWuhx-61" target="CyXQOnvQZHf6G6MnPG0M-119" edge="1">
                    <mxGeometry width="50" height="50" relative="1" as="geometry">
                        <mxPoint x="774.9446051213304" y="559.6536384065446" as="sourcePoint"/>
                        <mxPoint x="693" y="555" as="targetPoint"/>
                    </mxGeometry>
                </mxCell>
                <mxCell id="VtW6A7dYtCV5GmQcWuhx-66" value="" style="endArrow=none;html=1;entryX=0;entryY=0;entryDx=0;entryDy=0;fillColor=#60a917;strokeColor=#2D7600;strokeWidth=4;exitX=1;exitY=0.5;exitDx=0;exitDy=0;" parent="1" source="CyXQOnvQZHf6G6MnPG0M-119" target="VtW6A7dYtCV5GmQcWuhx-59" edge="1">
                    <mxGeometry width="50" height="50" relative="1" as="geometry">
                        <mxPoint x="904.4746051213303" y="514.6536384065446" as="sourcePoint"/>
                        <mxPoint x="822.53" y="510" as="targetPoint"/>
                    </mxGeometry>
                </mxCell>
                <mxCell id="VtW6A7dYtCV5GmQcWuhx-67" value="" style="endArrow=none;html=1;entryX=0.5;entryY=0;entryDx=0;entryDy=0;fillColor=#60a917;strokeColor=#2D7600;strokeWidth=4;exitX=0.5;exitY=1;exitDx=0;exitDy=0;" parent="1" source="CyXQOnvQZHf6G6MnPG0M-119" target="VtW6A7dYtCV5GmQcWuhx-58" edge="1">
                    <mxGeometry width="50" height="50" relative="1" as="geometry">
                        <mxPoint x="794.9446051213304" y="579.6536384065446" as="sourcePoint"/>
                        <mxPoint x="713" y="575" as="targetPoint"/>
                    </mxGeometry>
                </mxCell>
                <mxCell id="VtW6A7dYtCV5GmQcWuhx-68" value="NursePhoneNumber" style="ellipse;whiteSpace=wrap;html=1;fillColor=#60a917;fontColor=#ffffff;strokeColor=#2D7600;fontSize=14;" parent="1" vertex="1">
                    <mxGeometry x="1460" y="70" width="136" height="70" as="geometry"/>
                </mxCell>
                <mxCell id="VtW6A7dYtCV5GmQcWuhx-69" value="NurseEndTime" style="ellipse;whiteSpace=wrap;html=1;fillColor=#60a917;fontColor=#ffffff;strokeColor=#2D7600;" parent="1" vertex="1">
                    <mxGeometry x="1230" y="260" width="120" height="70" as="geometry"/>
                </mxCell>
                <mxCell id="VtW6A7dYtCV5GmQcWuhx-70" value="&lt;font style=&quot;font-size: 14px;&quot;&gt;NurseStartTime&lt;/font&gt;" style="ellipse;whiteSpace=wrap;html=1;fillColor=#60a917;fontColor=#ffffff;strokeColor=#2D7600;" parent="1" vertex="1">
                    <mxGeometry x="1410" y="170" width="120" height="70" as="geometry"/>
                </mxCell>
                <mxCell id="VtW6A7dYtCV5GmQcWuhx-73" value="&lt;u&gt;&lt;font style=&quot;font-size: 14px;&quot;&gt;NurseID&lt;/font&gt;&lt;/u&gt;" style="ellipse;whiteSpace=wrap;html=1;fillColor=#60a917;fontColor=#ffffff;strokeColor=#2D7600;" parent="1" vertex="1">
                    <mxGeometry x="1278.67" y="30" width="120" height="70" as="geometry"/>
                </mxCell>
                <mxCell id="VtW6A7dYtCV5GmQcWuhx-79" value="&lt;font size=&quot;1&quot; face=&quot;Arial&quot;&gt;&lt;b style=&quot;font-size: 14px;&quot;&gt;NurseName&lt;/b&gt;&lt;/font&gt;" style="ellipse;whiteSpace=wrap;html=1;fillColor=#60a917;fontColor=#ffffff;strokeColor=#2D7600;fontSize=11;" parent="1" vertex="1">
                    <mxGeometry x="1398.6699999999998" y="290" width="103" height="70" as="geometry"/>
                </mxCell>
                <mxCell id="VtW6A7dYtCV5GmQcWuhx-80" value="&lt;font style=&quot;font-size: 14px;&quot;&gt;FirstName&lt;/font&gt;" style="ellipse;whiteSpace=wrap;html=1;fontColor=#ffffff;fillColor=#e51400;strokeColor=#B20000;fontStyle=1" parent="1" vertex="1">
                    <mxGeometry x="1374.9999999999998" y="400" width="93" height="50" as="geometry"/>
                </mxCell>
                <mxCell id="VtW6A7dYtCV5GmQcWuhx-81" value="&lt;font style=&quot;font-size: 14px;&quot;&gt;lastName&lt;/font&gt;" style="ellipse;whiteSpace=wrap;html=1;fontColor=#ffffff;fillColor=#e51400;strokeColor=#B20000;fontStyle=1" parent="1" vertex="1">
                    <mxGeometry x="1546.33" y="320" width="93" height="50" as="geometry"/>
                </mxCell>
                <mxCell id="VtW6A7dYtCV5GmQcWuhx-82" value="" style="endArrow=none;html=1;entryX=0.5;entryY=0;entryDx=0;entryDy=0;fillColor=#f0a30a;strokeColor=#BD7000;strokeWidth=4;exitX=1;exitY=0.5;exitDx=0;exitDy=0;fontStyle=1" parent="1" source="VtW6A7dYtCV5GmQcWuhx-79" target="VtW6A7dYtCV5GmQcWuhx-81" edge="1">
                    <mxGeometry width="50" height="50" relative="1" as="geometry">
                        <mxPoint x="863.9999999999998" y="255" as="sourcePoint"/>
                        <mxPoint x="902.073593128807" y="243.28427124746236" as="targetPoint"/>
                    </mxGeometry>
                </mxCell>
                <mxCell id="VtW6A7dYtCV5GmQcWuhx-83" value="" style="endArrow=none;html=1;entryX=0;entryY=1;entryDx=0;entryDy=0;fillColor=#f0a30a;strokeColor=#BD7000;strokeWidth=4;exitX=0.5;exitY=0;exitDx=0;exitDy=0;fontStyle=1" parent="1" source="VtW6A7dYtCV5GmQcWuhx-80" target="VtW6A7dYtCV5GmQcWuhx-79" edge="1">
                    <mxGeometry width="50" height="50" relative="1" as="geometry">
                        <mxPoint x="873.9999999999998" y="265" as="sourcePoint"/>
                        <mxPoint x="912.073593128807" y="253.28427124746236" as="targetPoint"/>
                    </mxGeometry>
                </mxCell>
                <mxCell id="VtW6A7dYtCV5GmQcWuhx-88" value="&lt;span style=&quot;font-family: Arial; text-decoration-skip-ink: none;&quot;&gt;&lt;font style=&quot;font-size: 14px;&quot;&gt;NurseSpecialization&lt;/font&gt;&lt;/span&gt;" style="ellipse;shape=doubleEllipse;whiteSpace=wrap;html=1;fontSize=12;fontColor=#ffffff;fillColor=#60a917;strokeColor=#2D7600;strokeWidth=4;" parent="1" vertex="1">
                    <mxGeometry x="1004" y="40" width="156" height="70" as="geometry"/>
                </mxCell>
                <mxCell id="VtW6A7dYtCV5GmQcWuhx-89" value="" style="endArrow=none;html=1;entryX=1;entryY=0.75;entryDx=0;entryDy=0;fillColor=#60a917;strokeColor=#2D7600;strokeWidth=4;exitX=0;exitY=0.5;exitDx=0;exitDy=0;" parent="1" source="VtW6A7dYtCV5GmQcWuhx-70" target="CyXQOnvQZHf6G6MnPG0M-113" edge="1">
                    <mxGeometry width="50" height="50" relative="1" as="geometry">
                        <mxPoint x="1372.351083921142" y="319.63004040111787" as="sourcePoint"/>
                        <mxPoint x="1304.98" y="370" as="targetPoint"/>
                    </mxGeometry>
                </mxCell>
                <mxCell id="VtW6A7dYtCV5GmQcWuhx-90" value="" style="endArrow=none;html=1;entryX=0;entryY=0;entryDx=0;entryDy=0;exitX=1;exitY=1;exitDx=0;exitDy=0;fillColor=#60a917;strokeColor=#2D7600;strokeWidth=4;" parent="1" source="CyXQOnvQZHf6G6MnPG0M-113" target="VtW6A7dYtCV5GmQcWuhx-79" edge="1">
                    <mxGeometry width="50" height="50" relative="1" as="geometry">
                        <mxPoint x="1357.371083921142" y="360.0000404011179" as="sourcePoint"/>
                        <mxPoint x="1290" y="410.37" as="targetPoint"/>
                    </mxGeometry>
                </mxCell>
                <mxCell id="VtW6A7dYtCV5GmQcWuhx-91" value="" style="endArrow=none;html=1;exitX=0.75;exitY=1;exitDx=0;exitDy=0;fillColor=#60a917;strokeColor=#2D7600;strokeWidth=4;" parent="1" source="CyXQOnvQZHf6G6MnPG0M-113" target="VtW6A7dYtCV5GmQcWuhx-69" edge="1">
                    <mxGeometry width="50" height="50" relative="1" as="geometry">
                        <mxPoint x="1410.0010839211418" y="510.0000404011179" as="sourcePoint"/>
                        <mxPoint x="1342.63" y="560.37" as="targetPoint"/>
                    </mxGeometry>
                </mxCell>
                <mxCell id="VtW6A7dYtCV5GmQcWuhx-92" value="" style="endArrow=none;html=1;entryX=1;entryY=0;entryDx=0;entryDy=0;fillColor=#60a917;strokeColor=#2D7600;strokeWidth=4;exitX=0.5;exitY=1;exitDx=0;exitDy=0;" parent="1" source="VtW6A7dYtCV5GmQcWuhx-73" target="CyXQOnvQZHf6G6MnPG0M-113" edge="1">
                    <mxGeometry width="50" height="50" relative="1" as="geometry">
                        <mxPoint x="1420" y="215" as="sourcePoint"/>
                        <mxPoint x="1340" y="205" as="targetPoint"/>
                    </mxGeometry>
                </mxCell>
                <mxCell id="VtW6A7dYtCV5GmQcWuhx-93" value="" style="endArrow=none;html=1;entryX=1;entryY=0.25;entryDx=0;entryDy=0;fillColor=#60a917;strokeColor=#2D7600;strokeWidth=4;exitX=0;exitY=1;exitDx=0;exitDy=0;" parent="1" source="VtW6A7dYtCV5GmQcWuhx-68" target="CyXQOnvQZHf6G6MnPG0M-113" edge="1">
                    <mxGeometry width="50" height="50" relative="1" as="geometry">
                        <mxPoint x="1430" y="140" as="sourcePoint"/>
                        <mxPoint x="1350" y="130" as="targetPoint"/>
                    </mxGeometry>
                </mxCell>
                <mxCell id="VtW6A7dYtCV5GmQcWuhx-94" value="" style="endArrow=none;html=1;fillColor=#60a917;strokeColor=#2D7600;strokeWidth=4;exitX=1;exitY=1;exitDx=0;exitDy=0;" parent="1" source="VtW6A7dYtCV5GmQcWuhx-88" edge="1">
                    <mxGeometry width="50" height="50" relative="1" as="geometry">
                        <mxPoint x="1218.67" y="100" as="sourcePoint"/>
                        <mxPoint x="1210" y="150" as="targetPoint"/>
                    </mxGeometry>
                </mxCell>
                <mxCell id="VtW6A7dYtCV5GmQcWuhx-95" value="&lt;font face=&quot;Arial&quot;&gt;&lt;span style=&quot;font-size: 13px;&quot;&gt;&lt;b&gt;ProcedureCost&lt;/b&gt;&lt;/span&gt;&lt;/font&gt;" style="ellipse;whiteSpace=wrap;html=1;fillColor=#60a917;fontColor=#ffffff;strokeColor=#2D7600;" parent="1" vertex="1">
                    <mxGeometry x="460" y="1310" width="103" height="70" as="geometry"/>
                </mxCell>
                <mxCell id="VtW6A7dYtCV5GmQcWuhx-96" value="&lt;font face=&quot;Arial&quot;&gt;&lt;span style=&quot;font-size: 13px;&quot;&gt;&lt;b&gt;ProcedureName&lt;/b&gt;&lt;/span&gt;&lt;/font&gt;" style="ellipse;whiteSpace=wrap;html=1;fillColor=#60a917;fontColor=#ffffff;strokeColor=#2D7600;" parent="1" vertex="1">
                    <mxGeometry x="288" y="1328" width="103" height="70" as="geometry"/>
                </mxCell>
                <mxCell id="VtW6A7dYtCV5GmQcWuhx-97" value="&lt;font face=&quot;Arial&quot;&gt;&lt;span style=&quot;font-size: 13px;&quot;&gt;&lt;b&gt;&lt;u&gt;ProcedureIdD&lt;/u&gt;&lt;/b&gt;&lt;/span&gt;&lt;/font&gt;" style="ellipse;whiteSpace=wrap;html=1;fillColor=#60a917;fontColor=#ffffff;strokeColor=#2D7600;" parent="1" vertex="1">
                    <mxGeometry x="240" y="1258" width="103" height="70" as="geometry"/>
                </mxCell>
                <mxCell id="VtW6A7dYtCV5GmQcWuhx-98" value="" style="endArrow=none;html=1;entryX=1;entryY=1;entryDx=0;entryDy=0;fillColor=#60a917;strokeColor=#2D7600;strokeWidth=4;exitX=0.5;exitY=0;exitDx=0;exitDy=0;" parent="1" source="VtW6A7dYtCV5GmQcWuhx-95" target="CyXQOnvQZHf6G6MnPG0M-38" edge="1">
                    <mxGeometry width="50" height="50" relative="1" as="geometry">
                        <mxPoint x="445.5" y="1577.5" as="sourcePoint"/>
                        <mxPoint x="480" y="1400" as="targetPoint"/>
                    </mxGeometry>
                </mxCell>
                <mxCell id="VtW6A7dYtCV5GmQcWuhx-99" value="" style="endArrow=none;html=1;entryX=1;entryY=0.5;entryDx=0;entryDy=0;fillColor=#60a917;strokeColor=#2D7600;strokeWidth=4;exitX=0.25;exitY=1;exitDx=0;exitDy=0;" parent="1" source="CyXQOnvQZHf6G6MnPG0M-38" target="VtW6A7dYtCV5GmQcWuhx-96" edge="1">
                    <mxGeometry width="50" height="50" relative="1" as="geometry">
                        <mxPoint x="588.5" y="1105" as="sourcePoint"/>
                        <mxPoint x="623" y="927.5" as="targetPoint"/>
                    </mxGeometry>
                </mxCell>
                <mxCell id="VtW6A7dYtCV5GmQcWuhx-100" value="" style="endArrow=none;html=1;entryX=1;entryY=0.5;entryDx=0;entryDy=0;fillColor=#60a917;strokeColor=#2D7600;strokeWidth=4;exitX=0.033;exitY=0.417;exitDx=0;exitDy=0;exitPerimeter=0;" parent="1" source="CyXQOnvQZHf6G6MnPG0M-38" target="VtW6A7dYtCV5GmQcWuhx-97" edge="1">
                    <mxGeometry width="50" height="50" relative="1" as="geometry">
                        <mxPoint x="410" y="1392.5" as="sourcePoint"/>
                        <mxPoint x="444.5" y="1215" as="targetPoint"/>
                    </mxGeometry>
                </mxCell>
                <UserObject label="1&lt;br&gt;" placeholders="1" name="Variable" id="VtW6A7dYtCV5GmQcWuhx-101">
                    <mxCell style="text;html=1;strokeColor=none;fillColor=none;align=center;verticalAlign=middle;whiteSpace=wrap;overflow=hidden;fontColor=#FFFFFF;fontStyle=1" parent="1" vertex="1">
                        <mxGeometry x="181" y="535" width="55" height="20" as="geometry"/>
                    </mxCell>
                </UserObject>
                <UserObject label="1&lt;br&gt;" placeholders="1" name="Variable" id="VtW6A7dYtCV5GmQcWuhx-102">
                    <mxCell style="text;html=1;strokeColor=none;fillColor=none;align=center;verticalAlign=middle;whiteSpace=wrap;overflow=hidden;fontColor=#FFFFFF;fontStyle=1" parent="1" vertex="1">
                        <mxGeometry x="350" y="800" width="55" height="20" as="geometry"/>
                    </mxCell>
                </UserObject>
                <UserObject label="N" placeholders="1" name="Variable" id="VtW6A7dYtCV5GmQcWuhx-104">
                    <mxCell style="text;html=1;strokeColor=none;fillColor=none;align=center;verticalAlign=middle;whiteSpace=wrap;overflow=hidden;fontColor=#FFFFFF;fontStyle=1" parent="1" vertex="1">
                        <mxGeometry x="522" y="780" width="55" height="20" as="geometry"/>
                    </mxCell>
                </UserObject>
                <UserObject label="1&lt;br&gt;" placeholders="1" name="Variable" id="VtW6A7dYtCV5GmQcWuhx-105">
                    <mxCell style="text;html=1;strokeColor=none;fillColor=none;align=center;verticalAlign=middle;whiteSpace=wrap;overflow=hidden;fontColor=#FFFFFF;fontStyle=1" parent="1" vertex="1">
                        <mxGeometry x="590" y="638" width="55" height="20" as="geometry"/>
                    </mxCell>
                </UserObject>
                <UserObject label="N" placeholders="1" name="Variable" id="VtW6A7dYtCV5GmQcWuhx-106">
                    <mxCell style="text;html=1;strokeColor=none;fillColor=none;align=center;verticalAlign=middle;whiteSpace=wrap;overflow=hidden;fontColor=#FFFFFF;fontStyle=1" parent="1" vertex="1">
                        <mxGeometry x="700" y="585" width="55" height="20" as="geometry"/>
                    </mxCell>
                </UserObject>
                <UserObject label="1" placeholders="1" name="Variable" id="VtW6A7dYtCV5GmQcWuhx-107">
                    <mxCell style="text;html=1;strokeColor=none;fillColor=none;align=center;verticalAlign=middle;whiteSpace=wrap;overflow=hidden;fontColor=#FFFFFF;fontStyle=1" parent="1" vertex="1">
                        <mxGeometry x="926" y="640" width="55" height="20" as="geometry"/>
                    </mxCell>
                </UserObject>
                <UserObject label="1" placeholders="1" name="Variable" id="VtW6A7dYtCV5GmQcWuhx-108">
                    <mxCell style="text;html=1;strokeColor=none;fillColor=none;align=center;verticalAlign=middle;whiteSpace=wrap;overflow=hidden;fontColor=#FFFFFF;fontStyle=1" parent="1" vertex="1">
                        <mxGeometry x="1008" y="480" width="55" height="20" as="geometry"/>
                    </mxCell>
                </UserObject>
                <UserObject label="N" placeholders="1" name="Variable" id="VtW6A7dYtCV5GmQcWuhx-109">
                    <mxCell style="text;html=1;strokeColor=none;fillColor=none;align=center;verticalAlign=middle;whiteSpace=wrap;overflow=hidden;fontColor=#FFFFFF;fontStyle=1" parent="1" vertex="1">
                        <mxGeometry x="1112.5" y="296" width="55" height="20" as="geometry"/>
                    </mxCell>
                </UserObject>
                <UserObject label="N" placeholders="1" name="Variable" id="VtW6A7dYtCV5GmQcWuhx-111">
                    <mxCell style="text;html=1;strokeColor=none;fillColor=none;align=center;verticalAlign=middle;whiteSpace=wrap;overflow=hidden;fontColor=#FFFFFF;fontStyle=1" parent="1" vertex="1">
                        <mxGeometry x="645" y="335" width="55" height="20" as="geometry"/>
                    </mxCell>
                </UserObject>
                <UserObject label="1" placeholders="1" name="Variable" id="VtW6A7dYtCV5GmQcWuhx-112">
                    <mxCell style="text;html=1;strokeColor=none;fillColor=none;align=center;verticalAlign=middle;whiteSpace=wrap;overflow=hidden;fontColor=#FFFFFF;fontStyle=1" parent="1" vertex="1">
                        <mxGeometry x="631" y="474" width="55" height="20" as="geometry"/>
                    </mxCell>
                </UserObject>
                <UserObject label="1" placeholders="1" name="Variable" id="VtW6A7dYtCV5GmQcWuhx-113">
                    <mxCell style="text;html=1;strokeColor=none;fillColor=none;align=center;verticalAlign=middle;whiteSpace=wrap;overflow=hidden;fontColor=#FFFFFF;fontStyle=1" parent="1" vertex="1">
                        <mxGeometry x="480.0000000000001" y="195" width="55" height="20" as="geometry"/>
                    </mxCell>
                </UserObject>
                <UserObject label="N" placeholders="1" name="Variable" id="VtW6A7dYtCV5GmQcWuhx-114">
                    <mxCell style="text;html=1;strokeColor=none;fillColor=none;align=center;verticalAlign=middle;whiteSpace=wrap;overflow=hidden;fontColor=#FFFFFF;fontStyle=1" parent="1" vertex="1">
                        <mxGeometry x="907" y="120" width="55" height="20" as="geometry"/>
                    </mxCell>
                </UserObject>
            </root>
        </mxGraphModel>
    </diagram>
    <diagram id="wxV2yGKAY6bLI2L6v5OW" name="Page-3">
        <mxGraphModel dx="-358" dy="641" grid="0" gridSize="10" guides="1" tooltips="1" connect="1" arrows="1" fold="1" page="0" pageScale="1" pageWidth="1200" pageHeight="1600" math="0" shadow="0">
            <root>
                <mxCell id="0"/>
                <mxCell id="1" parent="0"/>
                <mxCell id="OVPSVNGWV2i_ynpKgf9V-1" style="edgeStyle=none;shape=connector;rounded=1;html=1;exitX=0.25;exitY=1;exitDx=0;exitDy=0;entryX=0.906;entryY=0.466;entryDx=0;entryDy=0;entryPerimeter=0;labelBackgroundColor=default;strokeColor=#B20000;strokeWidth=4;fontFamily=Helvetica;fontSize=11;fontColor=#FFFFFF;endArrow=none;fillColor=#e51400;" edge="1" parent="1" source="vsHWUfJ7JOhYAshzIWbk-1" target="VazZFJr3IL-5AG9_kmnB-5">
                    <mxGeometry relative="1" as="geometry"/>
                </mxCell>
                <mxCell id="OVPSVNGWV2i_ynpKgf9V-2" style="edgeStyle=none;shape=connector;rounded=1;html=1;exitX=0;exitY=0.5;exitDx=0;exitDy=0;entryX=0.977;entryY=0.423;entryDx=0;entryDy=0;entryPerimeter=0;labelBackgroundColor=default;strokeColor=#B20000;strokeWidth=4;fontFamily=Helvetica;fontSize=11;fontColor=#FFFFFF;endArrow=none;fillColor=#e51400;" edge="1" parent="1" source="vsHWUfJ7JOhYAshzIWbk-1" target="VazZFJr3IL-5AG9_kmnB-4">
                    <mxGeometry relative="1" as="geometry"/>
                </mxCell>
                <mxCell id="vsHWUfJ7JOhYAshzIWbk-1" value="&lt;span style=&quot;font-size: 14px;&quot;&gt;&lt;span style=&quot;font-size: 14px;&quot;&gt;AUTHOR&lt;/span&gt;&lt;/span&gt;" style="rounded=0;whiteSpace=wrap;html=1;fillColor=#d80073;fontColor=#ffffff;strokeColor=#A50040;fontStyle=1;fontSize=14;" parent="1" vertex="1">
                    <mxGeometry x="2130" y="280" width="120" height="60" as="geometry"/>
                </mxCell>
                <mxCell id="vsHWUfJ7JOhYAshzIWbk-2" value="&lt;span style=&quot;font-size: 14px;&quot;&gt;&lt;span style=&quot;font-size: 14px;&quot;&gt;PAPER&lt;/span&gt;&lt;/span&gt;" style="rounded=0;whiteSpace=wrap;html=1;fillColor=#d80073;fontColor=#ffffff;strokeColor=#A50040;fontStyle=1;fontSize=14;" parent="1" vertex="1">
                    <mxGeometry x="1583" y="594" width="120" height="60" as="geometry"/>
                </mxCell>
                <mxCell id="_Y0O7TwRMXCQjAfZPyNs-1" style="edgeStyle=none;shape=connector;rounded=1;html=1;exitX=0.5;exitY=0;exitDx=0;exitDy=0;labelBackgroundColor=default;strokeColor=#B20000;strokeWidth=4;fontFamily=Helvetica;fontSize=11;fontColor=#FFFFFF;endArrow=none;fillColor=#e51400;" edge="1" parent="1" source="vsHWUfJ7JOhYAshzIWbk-3" target="bUKS3UZX1RgXkP0vspUP-1">
                    <mxGeometry relative="1" as="geometry"/>
                </mxCell>
                <mxCell id="vsHWUfJ7JOhYAshzIWbk-3" value="&lt;span style=&quot;font-size: 14px;&quot;&gt;REVIEWER&lt;/span&gt;" style="rounded=0;whiteSpace=wrap;html=1;fillColor=#d80073;fontColor=#ffffff;strokeColor=#A50040;fontStyle=1;fontSize=14;" parent="1" vertex="1">
                    <mxGeometry x="1540" y="1230" width="120" height="60" as="geometry"/>
                </mxCell>
                <mxCell id="1TwDsg8aF_r-e5bm1Bh7-1" value="&lt;font face=&quot;Arial&quot; style=&quot;font-size: 14px;&quot;&gt;&lt;span style=&quot;font-size: 14px;&quot;&gt;Title&lt;/span&gt;&lt;/font&gt;" style="ellipse;whiteSpace=wrap;html=1;fillColor=#60a917;fontColor=#ffffff;strokeColor=#2D7600;fontStyle=1;fontSize=14;" parent="1" vertex="1">
                    <mxGeometry x="1300" y="510" width="103" height="70" as="geometry"/>
                </mxCell>
                <mxCell id="1TwDsg8aF_r-e5bm1Bh7-4" value="&lt;font face=&quot;Arial&quot; style=&quot;font-size: 14px;&quot;&gt;&lt;span style=&quot;font-size: 14px;&quot;&gt;Abstract&lt;/span&gt;&lt;/font&gt;" style="ellipse;whiteSpace=wrap;html=1;fillColor=#60a917;fontColor=#ffffff;strokeColor=#2D7600;fontStyle=1;fontSize=14;" parent="1" vertex="1">
                    <mxGeometry x="1357" y="380" width="103" height="70" as="geometry"/>
                </mxCell>
                <mxCell id="1TwDsg8aF_r-e5bm1Bh7-5" value="&lt;font face=&quot;Arial&quot; style=&quot;font-size: 14px;&quot;&gt;&lt;span style=&quot;font-size: 14px;&quot;&gt;ContactAuthor&lt;/span&gt;&lt;/font&gt;" style="ellipse;whiteSpace=wrap;html=1;fillColor=#60a917;fontColor=#ffffff;strokeColor=#2D7600;fontStyle=1;fontSize=14;" parent="1" vertex="1">
                    <mxGeometry x="1715" y="340" width="103" height="70" as="geometry"/>
                </mxCell>
                <mxCell id="1TwDsg8aF_r-e5bm1Bh7-6" value="&lt;font face=&quot;Arial&quot; style=&quot;font-size: 14px;&quot;&gt;&lt;span style=&quot;font-size: 14px;&quot;&gt;Year&lt;/span&gt;&lt;/font&gt;" style="ellipse;whiteSpace=wrap;html=1;fillColor=#60a917;fontColor=#ffffff;strokeColor=#2D7600;fontStyle=1;fontSize=14;" parent="1" vertex="1">
                    <mxGeometry x="1767" y="623" width="103" height="70" as="geometry"/>
                </mxCell>
                <mxCell id="1TwDsg8aF_r-e5bm1Bh7-7" value="&lt;font face=&quot;Arial&quot; style=&quot;font-size: 14px;&quot;&gt;&lt;span style=&quot;font-size: 14px;&quot;&gt;FileName&lt;/span&gt;&lt;/font&gt;" style="ellipse;whiteSpace=wrap;html=1;fillColor=#60a917;fontColor=#ffffff;strokeColor=#2D7600;fontStyle=1;fontSize=14;" parent="1" vertex="1">
                    <mxGeometry x="1480" y="350" width="103" height="70" as="geometry"/>
                </mxCell>
                <mxCell id="1TwDsg8aF_r-e5bm1Bh7-8" value="&lt;font face=&quot;Arial&quot; style=&quot;font-size: 14px;&quot;&gt;&lt;span style=&quot;font-size: 14px;&quot;&gt;Score&lt;/span&gt;&lt;/font&gt;" style="ellipse;whiteSpace=wrap;html=1;fillColor=#60a917;fontColor=#ffffff;strokeColor=#2D7600;fontStyle=1;fontSize=14;" parent="1" vertex="1">
                    <mxGeometry x="1715" y="736" width="103" height="70" as="geometry"/>
                </mxCell>
                <mxCell id="1TwDsg8aF_r-e5bm1Bh7-9" value="&lt;font face=&quot;Arial&quot; style=&quot;font-size: 14px;&quot;&gt;&lt;span style=&quot;font-size: 14px;&quot;&gt;Comment&lt;/span&gt;&lt;/font&gt;" style="ellipse;whiteSpace=wrap;html=1;fillColor=#60a917;fontColor=#ffffff;strokeColor=#2D7600;fontStyle=1;fontSize=14;" parent="1" vertex="1">
                    <mxGeometry x="1377" y="774" width="103" height="70" as="geometry"/>
                </mxCell>
                <mxCell id="1TwDsg8aF_r-e5bm1Bh7-10" value="&lt;font face=&quot;Arial&quot; style=&quot;font-size: 14px;&quot;&gt;&lt;span style=&quot;font-size: 14px;&quot;&gt;&lt;span style=&quot;font-size: 14px;&quot;&gt;&lt;u style=&quot;font-size: 14px;&quot;&gt;PaperID&lt;/u&gt;&lt;/span&gt;&lt;/span&gt;&lt;/font&gt;" style="ellipse;whiteSpace=wrap;html=1;fillColor=#60a917;fontColor=#ffffff;strokeColor=#2D7600;fontStyle=1;fontSize=14;" parent="1" vertex="1">
                    <mxGeometry x="1287" y="650" width="103" height="70" as="geometry"/>
                </mxCell>
                <mxCell id="1TwDsg8aF_r-e5bm1Bh7-11" value="AuthorNames" style="ellipse;shape=doubleEllipse;whiteSpace=wrap;html=1;strokeWidth=5;fontSize=14;fontColor=#ffffff;fillColor=#60a917;strokeColor=#2D7600;fontStyle=1" parent="1" vertex="1">
                    <mxGeometry x="1583" y="290" width="120" height="70" as="geometry"/>
                </mxCell>
                <mxCell id="1TwDsg8aF_r-e5bm1Bh7-13" value="relevance" style="ellipse;whiteSpace=wrap;html=1;strokeWidth=5;fontSize=14;fontColor=#ffffff;fillColor=#e51400;strokeColor=none;fontStyle=1" parent="1" vertex="1">
                    <mxGeometry x="1870" y="710" width="90" height="60" as="geometry"/>
                </mxCell>
                <mxCell id="EAMnS3IQoS2yVGNju-Pu-1" value="originality," style="ellipse;whiteSpace=wrap;html=1;strokeWidth=5;fontSize=14;fontColor=#ffffff;fillColor=#e51400;strokeColor=none;fontStyle=1" parent="1" vertex="1">
                    <mxGeometry x="1850" y="790" width="87" height="60" as="geometry"/>
                </mxCell>
                <mxCell id="EAMnS3IQoS2yVGNju-Pu-2" value="technicalMerit" style="ellipse;whiteSpace=wrap;html=1;strokeWidth=5;fontSize=14;fontColor=#ffffff;fillColor=#e51400;strokeColor=none;fontStyle=1" parent="1" vertex="1">
                    <mxGeometry x="1680" y="860" width="100" height="60" as="geometry"/>
                </mxCell>
                <mxCell id="EAMnS3IQoS2yVGNju-Pu-3" value="readAbility" style="ellipse;whiteSpace=wrap;html=1;strokeWidth=5;fontSize=14;fontColor=#ffffff;fillColor=#e51400;strokeColor=none;fontStyle=1" parent="1" vertex="1">
                    <mxGeometry x="1803" y="870" width="80" height="60" as="geometry"/>
                </mxCell>
                <mxCell id="lAzHK3uVEvlUvDNJisNF-1" value="" style="endArrow=none;html=1;strokeWidth=4;fontColor=#FFFFFF;fillColor=#fa6800;strokeColor=#C73500;entryX=0.5;entryY=0;entryDx=0;entryDy=0;exitX=0.5;exitY=1;exitDx=0;exitDy=0;fontStyle=1;fontSize=14;" parent="1" source="1TwDsg8aF_r-e5bm1Bh7-8" target="EAMnS3IQoS2yVGNju-Pu-2" edge="1">
                    <mxGeometry width="50" height="50" relative="1" as="geometry">
                        <mxPoint x="1471.4500699999999" y="979.9999999999998" as="sourcePoint"/>
                        <mxPoint x="1330" y="1089.02" as="targetPoint"/>
                    </mxGeometry>
                </mxCell>
                <mxCell id="lAzHK3uVEvlUvDNJisNF-2" value="" style="endArrow=none;html=1;strokeWidth=4;fontColor=#FFFFFF;fillColor=#fa6800;strokeColor=#C73500;exitX=0.75;exitY=0.964;exitDx=0;exitDy=0;exitPerimeter=0;fontStyle=1;fontSize=14;" parent="1" source="1TwDsg8aF_r-e5bm1Bh7-8" target="EAMnS3IQoS2yVGNju-Pu-3" edge="1">
                    <mxGeometry width="50" height="50" relative="1" as="geometry">
                        <mxPoint x="1781.5" y="820" as="sourcePoint"/>
                        <mxPoint x="1735" y="870" as="targetPoint"/>
                    </mxGeometry>
                </mxCell>
                <mxCell id="lAzHK3uVEvlUvDNJisNF-3" value="" style="endArrow=none;html=1;strokeWidth=4;fontColor=#FFFFFF;fillColor=#fa6800;strokeColor=#C73500;fontStyle=1;fontSize=14;" parent="1" source="1TwDsg8aF_r-e5bm1Bh7-8" target="EAMnS3IQoS2yVGNju-Pu-1" edge="1">
                    <mxGeometry width="50" height="50" relative="1" as="geometry">
                        <mxPoint x="1840" y="767.9999999999998" as="sourcePoint"/>
                        <mxPoint x="1871.8718743398304" y="832.3835260588337" as="targetPoint"/>
                    </mxGeometry>
                </mxCell>
                <mxCell id="lAzHK3uVEvlUvDNJisNF-4" value="" style="endArrow=none;html=1;strokeWidth=4;fontColor=#FFFFFF;fillColor=#fa6800;strokeColor=#C73500;entryX=0.067;entryY=0.719;entryDx=0;entryDy=0;entryPerimeter=0;fontStyle=1;fontSize=14;" parent="1" source="1TwDsg8aF_r-e5bm1Bh7-8" target="1TwDsg8aF_r-e5bm1Bh7-13" edge="1">
                    <mxGeometry width="50" height="50" relative="1" as="geometry">
                        <mxPoint x="1839.9952174913499" y="760.0003432862869" as="sourcePoint"/>
                        <mxPoint x="1878.3703599752166" y="774.1601329139263" as="targetPoint"/>
                    </mxGeometry>
                </mxCell>
                <mxCell id="lAzHK3uVEvlUvDNJisNF-5" value="&lt;font style=&quot;font-size: 14px;&quot;&gt;&lt;span style=&quot;font-size: 14px;&quot;&gt;private&lt;/span&gt;&lt;/font&gt;" style="ellipse;whiteSpace=wrap;html=1;strokeWidth=5;fontSize=14;fontColor=#ffffff;fillColor=#e51400;strokeColor=none;fontStyle=1" parent="1" vertex="1">
                    <mxGeometry x="1270" y="880" width="100" height="60" as="geometry"/>
                </mxCell>
                <mxCell id="lAzHK3uVEvlUvDNJisNF-6" value="" style="endArrow=none;html=1;strokeWidth=4;fontColor=#FFFFFF;fillColor=#fa6800;strokeColor=#C73500;entryX=0.5;entryY=0;entryDx=0;entryDy=0;exitX=0;exitY=1;exitDx=0;exitDy=0;fontStyle=1;fontSize=14;" parent="1" source="1TwDsg8aF_r-e5bm1Bh7-9" target="lAzHK3uVEvlUvDNJisNF-5" edge="1">
                    <mxGeometry width="50" height="50" relative="1" as="geometry">
                        <mxPoint x="1361.5" y="830" as="sourcePoint"/>
                        <mxPoint x="920" y="1109.02" as="targetPoint"/>
                    </mxGeometry>
                </mxCell>
                <mxCell id="lAzHK3uVEvlUvDNJisNF-7" value="feedback" style="ellipse;whiteSpace=wrap;html=1;strokeWidth=5;fontSize=14;fontColor=#ffffff;fillColor=#e51400;strokeColor=none;fontStyle=1" parent="1" vertex="1">
                    <mxGeometry x="1403" y="905.33" width="100" height="60" as="geometry"/>
                </mxCell>
                <mxCell id="lAzHK3uVEvlUvDNJisNF-8" value="" style="endArrow=none;html=1;strokeWidth=4;fontColor=#FFFFFF;fillColor=#fa6800;strokeColor=#C73500;entryX=0.5;entryY=0;entryDx=0;entryDy=0;exitX=0.5;exitY=1;exitDx=0;exitDy=0;fontStyle=1;fontSize=14;" parent="1" source="1TwDsg8aF_r-e5bm1Bh7-9" target="lAzHK3uVEvlUvDNJisNF-7" edge="1">
                    <mxGeometry width="50" height="50" relative="1" as="geometry">
                        <mxPoint x="1424.5" y="810" as="sourcePoint"/>
                        <mxPoint x="1053" y="1134.35" as="targetPoint"/>
                    </mxGeometry>
                </mxCell>
                <mxCell id="OoclnVh-KexoFJoPNR6n-1" value="" style="endArrow=none;html=1;fillColor=#60a917;strokeColor=#2D7600;strokeWidth=4;exitX=0;exitY=1;exitDx=0;exitDy=0;entryX=1;entryY=0;entryDx=0;entryDy=0;fontStyle=1;fontSize=14;" parent="1" source="vsHWUfJ7JOhYAshzIWbk-2" target="1TwDsg8aF_r-e5bm1Bh7-9" edge="1">
                    <mxGeometry width="50" height="50" relative="1" as="geometry">
                        <mxPoint x="1637.5700000000002" y="786.64" as="sourcePoint"/>
                        <mxPoint x="1569.996406871193" y="823.3557287525381" as="targetPoint"/>
                    </mxGeometry>
                </mxCell>
                <mxCell id="OoclnVh-KexoFJoPNR6n-2" value="" style="endArrow=none;html=1;fillColor=#60a917;strokeColor=#2D7600;strokeWidth=4;exitX=0;exitY=0.5;exitDx=0;exitDy=0;entryX=1;entryY=1;entryDx=0;entryDy=0;fontStyle=1;fontSize=14;" parent="1" source="1TwDsg8aF_r-e5bm1Bh7-6" target="vsHWUfJ7JOhYAshzIWbk-2" edge="1">
                    <mxGeometry width="50" height="50" relative="1" as="geometry">
                        <mxPoint x="1570" y="650" as="sourcePoint"/>
                        <mxPoint x="1467.9601130519586" y="790.2812792868076" as="targetPoint"/>
                    </mxGeometry>
                </mxCell>
                <mxCell id="OoclnVh-KexoFJoPNR6n-3" value="" style="endArrow=none;html=1;fillColor=#60a917;strokeColor=#2D7600;strokeWidth=4;exitX=0.75;exitY=1;exitDx=0;exitDy=0;entryX=0;entryY=0;entryDx=0;entryDy=0;fontStyle=1;fontSize=14;" parent="1" source="vsHWUfJ7JOhYAshzIWbk-2" target="1TwDsg8aF_r-e5bm1Bh7-8" edge="1">
                    <mxGeometry width="50" height="50" relative="1" as="geometry">
                        <mxPoint x="1580" y="660" as="sourcePoint"/>
                        <mxPoint x="1477.9601130519586" y="800.2812792868076" as="targetPoint"/>
                    </mxGeometry>
                </mxCell>
                <mxCell id="OoclnVh-KexoFJoPNR6n-4" value="" style="endArrow=none;html=1;fillColor=#60a917;strokeColor=#2D7600;strokeWidth=4;exitX=0;exitY=1;exitDx=0;exitDy=0;entryX=1;entryY=0;entryDx=0;entryDy=0;fontStyle=1;fontSize=14;" parent="1" source="1TwDsg8aF_r-e5bm1Bh7-5" target="vsHWUfJ7JOhYAshzIWbk-2" edge="1">
                    <mxGeometry width="50" height="50" relative="1" as="geometry">
                        <mxPoint x="1810" y="545" as="sourcePoint"/>
                        <mxPoint x="1700" y="510" as="targetPoint"/>
                    </mxGeometry>
                </mxCell>
                <mxCell id="OoclnVh-KexoFJoPNR6n-5" value="" style="endArrow=none;html=1;fillColor=#60a917;strokeColor=#2D7600;strokeWidth=4;exitX=0.5;exitY=1;exitDx=0;exitDy=0;entryX=0.5;entryY=0;entryDx=0;entryDy=0;fontStyle=1;fontSize=14;" parent="1" source="1TwDsg8aF_r-e5bm1Bh7-7" target="vsHWUfJ7JOhYAshzIWbk-2" edge="1">
                    <mxGeometry width="50" height="50" relative="1" as="geometry">
                        <mxPoint x="1812.0398869480416" y="429.71872071319217" as="sourcePoint"/>
                        <mxPoint x="1690" y="590" as="targetPoint"/>
                    </mxGeometry>
                </mxCell>
                <mxCell id="OoclnVh-KexoFJoPNR6n-6" value="" style="endArrow=none;html=1;fillColor=#60a917;strokeColor=#2D7600;strokeWidth=4;exitX=1;exitY=1;exitDx=0;exitDy=0;entryX=0.25;entryY=0;entryDx=0;entryDy=0;fontStyle=1;fontSize=14;" parent="1" source="1TwDsg8aF_r-e5bm1Bh7-4" target="vsHWUfJ7JOhYAshzIWbk-2" edge="1">
                    <mxGeometry width="50" height="50" relative="1" as="geometry">
                        <mxPoint x="1822.0398869480416" y="439.71872071319217" as="sourcePoint"/>
                        <mxPoint x="1700" y="600" as="targetPoint"/>
                    </mxGeometry>
                </mxCell>
                <mxCell id="OoclnVh-KexoFJoPNR6n-7" value="" style="endArrow=none;html=1;fillColor=#60a917;strokeColor=#2D7600;strokeWidth=4;exitX=1;exitY=0.5;exitDx=0;exitDy=0;fontStyle=1;fontSize=14;entryX=0;entryY=0.25;entryDx=0;entryDy=0;" parent="1" source="1TwDsg8aF_r-e5bm1Bh7-1" target="vsHWUfJ7JOhYAshzIWbk-2" edge="1">
                    <mxGeometry width="50" height="50" relative="1" as="geometry">
                        <mxPoint x="1832.0398869480416" y="449.71872071319217" as="sourcePoint"/>
                        <mxPoint x="1560" y="580" as="targetPoint"/>
                    </mxGeometry>
                </mxCell>
                <mxCell id="OoclnVh-KexoFJoPNR6n-8" value="" style="endArrow=none;html=1;fillColor=#60a917;strokeColor=#2D7600;strokeWidth=4;exitX=0.5;exitY=1;exitDx=0;exitDy=0;entryX=0.75;entryY=0;entryDx=0;entryDy=0;fontStyle=1;fontSize=14;" parent="1" source="1TwDsg8aF_r-e5bm1Bh7-11" target="vsHWUfJ7JOhYAshzIWbk-2" edge="1">
                    <mxGeometry width="50" height="50" relative="1" as="geometry">
                        <mxPoint x="1693" y="410" as="sourcePoint"/>
                        <mxPoint x="1720" y="620" as="targetPoint"/>
                    </mxGeometry>
                </mxCell>
                <mxCell id="OoclnVh-KexoFJoPNR6n-9" value="" style="endArrow=none;html=1;fillColor=#60a917;strokeColor=#2D7600;strokeWidth=4;exitX=1;exitY=0.5;exitDx=0;exitDy=0;entryX=0;entryY=0.5;entryDx=0;entryDy=0;fontStyle=1;fontSize=14;" parent="1" source="1TwDsg8aF_r-e5bm1Bh7-10" target="vsHWUfJ7JOhYAshzIWbk-2" edge="1">
                    <mxGeometry width="50" height="50" relative="1" as="geometry">
                        <mxPoint x="1410" y="592.5" as="sourcePoint"/>
                        <mxPoint x="1567" y="627.5" as="targetPoint"/>
                    </mxGeometry>
                </mxCell>
                <mxCell id="OoclnVh-KexoFJoPNR6n-11" value="&lt;font face=&quot;Arial&quot; style=&quot;font-size: 14px;&quot;&gt;&lt;span style=&quot;font-size: 14px;&quot;&gt;&lt;span style=&quot;font-size: 14px;&quot;&gt;AuthorName&lt;/span&gt;&lt;/span&gt;&lt;/font&gt;" style="ellipse;whiteSpace=wrap;html=1;fillColor=#60a917;fontColor=#ffffff;strokeColor=#2D7600;fontStyle=1;fontSize=14;" parent="1" vertex="1">
                    <mxGeometry x="2020" y="160" width="103" height="70" as="geometry"/>
                </mxCell>
                <mxCell id="OoclnVh-KexoFJoPNR6n-12" value="&lt;font face=&quot;Arial&quot; style=&quot;font-size: 14px;&quot;&gt;&lt;span style=&quot;font-size: 14px;&quot;&gt;&lt;span style=&quot;font-size: 14px;&quot;&gt;&lt;u style=&quot;font-size: 14px;&quot;&gt;Email&lt;/u&gt;&lt;/span&gt;&lt;/span&gt;&lt;/font&gt;" style="ellipse;whiteSpace=wrap;html=1;fillColor=#60a917;fontColor=#ffffff;strokeColor=#2D7600;fontStyle=1;fontSize=14;" parent="1" vertex="1">
                    <mxGeometry x="2220" y="70" width="103" height="70" as="geometry"/>
                </mxCell>
                <mxCell id="OoclnVh-KexoFJoPNR6n-13" value="FirstName" style="ellipse;whiteSpace=wrap;html=1;strokeWidth=5;fontSize=14;fontColor=#ffffff;fillColor=#e51400;strokeColor=none;fontStyle=1" parent="1" vertex="1">
                    <mxGeometry x="1930" y="60" width="90" height="60" as="geometry"/>
                </mxCell>
                <mxCell id="OoclnVh-KexoFJoPNR6n-14" value="lastName" style="ellipse;whiteSpace=wrap;html=1;strokeWidth=5;fontSize=14;fontColor=#ffffff;fillColor=#e51400;strokeColor=none;fontStyle=1" parent="1" vertex="1">
                    <mxGeometry x="1883" y="210" width="90" height="60" as="geometry"/>
                </mxCell>
                <mxCell id="OoclnVh-KexoFJoPNR6n-16" value="" style="endArrow=none;html=1;strokeWidth=4;fontColor=#FFFFFF;fillColor=#fa6800;strokeColor=#C73500;entryX=0.795;entryY=0.958;entryDx=0;entryDy=0;entryPerimeter=0;fontStyle=1;fontSize=14;" parent="1" source="OoclnVh-KexoFJoPNR6n-11" target="OoclnVh-KexoFJoPNR6n-13" edge="1">
                    <mxGeometry width="50" height="50" relative="1" as="geometry">
                        <mxPoint x="1996.9984345024254" y="301.6019928119946" as="sourcePoint"/>
                        <mxPoint x="2052.29" y="290.0000000000001" as="targetPoint"/>
                    </mxGeometry>
                </mxCell>
                <mxCell id="OoclnVh-KexoFJoPNR6n-17" value="" style="endArrow=none;html=1;strokeWidth=4;fontColor=#FFFFFF;fillColor=#fa6800;strokeColor=#C73500;entryX=0;entryY=0.5;entryDx=0;entryDy=0;exitX=1;exitY=0.5;exitDx=0;exitDy=0;fontStyle=1;fontSize=14;" parent="1" source="OoclnVh-KexoFJoPNR6n-14" target="OoclnVh-KexoFJoPNR6n-11" edge="1">
                    <mxGeometry width="50" height="50" relative="1" as="geometry">
                        <mxPoint x="1909.9984345024254" y="421.6019928119946" as="sourcePoint"/>
                        <mxPoint x="1965.29" y="410.0000000000001" as="targetPoint"/>
                    </mxGeometry>
                </mxCell>
                <mxCell id="OoclnVh-KexoFJoPNR6n-18" value="" style="endArrow=none;html=1;fillColor=#60a917;strokeColor=#2D7600;strokeWidth=4;exitX=0.5;exitY=1;exitDx=0;exitDy=0;entryX=0.5;entryY=0;entryDx=0;entryDy=0;fontStyle=1;fontSize=14;" parent="1" source="vsHWUfJ7JOhYAshzIWbk-1" target="OoclnVh-KexoFJoPNR6n-33" edge="1">
                    <mxGeometry width="50" height="50" relative="1" as="geometry">
                        <mxPoint x="1972.9998869480416" y="419.99872071319214" as="sourcePoint"/>
                        <mxPoint x="2198.5" y="380" as="targetPoint"/>
                    </mxGeometry>
                </mxCell>
                <mxCell id="OoclnVh-KexoFJoPNR6n-19" value="" style="endArrow=none;html=1;fillColor=#60a917;strokeColor=#2D7600;strokeWidth=4;exitX=0.5;exitY=1;exitDx=0;exitDy=0;entryX=0.563;entryY=-0.006;entryDx=0;entryDy=0;entryPerimeter=0;fontStyle=1;fontSize=14;" parent="1" source="OoclnVh-KexoFJoPNR6n-12" target="vsHWUfJ7JOhYAshzIWbk-1" edge="1">
                    <mxGeometry width="50" height="50" relative="1" as="geometry">
                        <mxPoint x="2014.5198869480416" y="359.99872071319214" as="sourcePoint"/>
                        <mxPoint x="1892.48" y="520.28" as="targetPoint"/>
                    </mxGeometry>
                </mxCell>
                <mxCell id="OoclnVh-KexoFJoPNR6n-20" value="" style="endArrow=none;html=1;fillColor=#60a917;strokeColor=#2D7600;strokeWidth=4;exitX=1;exitY=1;exitDx=0;exitDy=0;entryX=0;entryY=0;entryDx=0;entryDy=0;fontStyle=1;fontSize=14;" parent="1" source="OoclnVh-KexoFJoPNR6n-11" target="vsHWUfJ7JOhYAshzIWbk-1" edge="1">
                    <mxGeometry width="50" height="50" relative="1" as="geometry">
                        <mxPoint x="2042.0398869480416" y="339.99872071319214" as="sourcePoint"/>
                        <mxPoint x="1920" y="500.28" as="targetPoint"/>
                    </mxGeometry>
                </mxCell>
                <mxCell id="OoclnVh-KexoFJoPNR6n-21" value="&lt;font face=&quot;Arial&quot; style=&quot;font-size: 14px;&quot;&gt;&lt;span style=&quot;font-size: 14px;&quot;&gt;&lt;span style=&quot;font-size: 14px;&quot;&gt;PhoneNumber&lt;/span&gt;&lt;/span&gt;&lt;/font&gt;" style="ellipse;whiteSpace=wrap;html=1;fillColor=#60a917;fontColor=#ffffff;strokeColor=#2D7600;fontStyle=1;fontSize=14;" parent="1" vertex="1">
                    <mxGeometry x="1350" y="1350" width="103" height="70" as="geometry"/>
                </mxCell>
                <mxCell id="OoclnVh-KexoFJoPNR6n-22" value="&lt;font face=&quot;Arial&quot; style=&quot;font-size: 14px;&quot;&gt;&lt;span style=&quot;font-size: 14px;&quot;&gt;&lt;span style=&quot;font-size: 14px;&quot;&gt;Name&lt;/span&gt;&lt;/span&gt;&lt;/font&gt;" style="ellipse;whiteSpace=wrap;html=1;fillColor=#60a917;fontColor=#ffffff;strokeColor=#2D7600;fontStyle=1;fontSize=14;" parent="1" vertex="1">
                    <mxGeometry x="1689" y="1340" width="103" height="70" as="geometry"/>
                </mxCell>
                <mxCell id="OoclnVh-KexoFJoPNR6n-24" value="&lt;font face=&quot;Arial&quot; style=&quot;font-size: 14px;&quot;&gt;&lt;span style=&quot;font-size: 14px;&quot;&gt;&lt;span style=&quot;font-size: 14px;&quot;&gt;&lt;u style=&quot;font-size: 14px;&quot;&gt;Email&lt;/u&gt;&lt;/span&gt;&lt;/span&gt;&lt;/font&gt;" style="ellipse;whiteSpace=wrap;html=1;fillColor=#60a917;fontColor=#ffffff;strokeColor=#2D7600;fontStyle=1;fontSize=14;" parent="1" vertex="1">
                    <mxGeometry x="1730" y="1190" width="103" height="70" as="geometry"/>
                </mxCell>
                <mxCell id="OoclnVh-KexoFJoPNR6n-26" value="Intrests" style="ellipse;shape=doubleEllipse;whiteSpace=wrap;html=1;strokeWidth=5;fontSize=14;fontColor=#ffffff;fillColor=#60a917;strokeColor=#2D7600;fontStyle=1" parent="1" vertex="1">
                    <mxGeometry x="1350" y="1150" width="100" height="60" as="geometry"/>
                </mxCell>
                <mxCell id="OoclnVh-KexoFJoPNR6n-27" value="technicalMerit" style="ellipse;whiteSpace=wrap;html=1;strokeWidth=5;fontSize=14;fontColor=#ffffff;fillColor=#e51400;strokeColor=none;fontStyle=1" parent="1" vertex="1">
                    <mxGeometry x="1818" y="1380" width="100" height="60" as="geometry"/>
                </mxCell>
                <mxCell id="OoclnVh-KexoFJoPNR6n-28" value="technicalMerit" style="ellipse;whiteSpace=wrap;html=1;strokeWidth=5;fontSize=14;fontColor=#ffffff;fillColor=#e51400;strokeColor=none;fontStyle=1" parent="1" vertex="1">
                    <mxGeometry x="1653" y="1450" width="100" height="60" as="geometry"/>
                </mxCell>
                <mxCell id="OoclnVh-KexoFJoPNR6n-30" value="" style="endArrow=none;html=1;strokeWidth=4;fontColor=#FFFFFF;fillColor=#e51400;strokeColor=#B20000;entryX=0.5;entryY=0;entryDx=0;entryDy=0;exitX=0;exitY=1;exitDx=0;exitDy=0;fontStyle=1;fontSize=14;" parent="1" source="OoclnVh-KexoFJoPNR6n-22" target="OoclnVh-KexoFJoPNR6n-28" edge="1">
                    <mxGeometry width="50" height="50" relative="1" as="geometry">
                        <mxPoint x="1781.4999999999998" y="1230" as="sourcePoint"/>
                        <mxPoint x="1740" y="1280" as="targetPoint"/>
                    </mxGeometry>
                </mxCell>
                <mxCell id="OoclnVh-KexoFJoPNR6n-31" value="" style="endArrow=none;html=1;strokeWidth=4;fontColor=#FFFFFF;fillColor=#e51400;strokeColor=#B20000;entryX=0;entryY=0.5;entryDx=0;entryDy=0;exitX=1;exitY=0.5;exitDx=0;exitDy=0;fontStyle=1;fontSize=14;" parent="1" source="OoclnVh-KexoFJoPNR6n-22" target="OoclnVh-KexoFJoPNR6n-27" edge="1">
                    <mxGeometry width="50" height="50" relative="1" as="geometry">
                        <mxPoint x="1714.0398869480373" y="1409.7187207131947" as="sourcePoint"/>
                        <mxPoint x="1660" y="1460" as="targetPoint"/>
                    </mxGeometry>
                </mxCell>
                <mxCell id="OoclnVh-KexoFJoPNR6n-32" value="Affillication" style="ellipse;shape=doubleEllipse;whiteSpace=wrap;html=1;strokeWidth=5;fontSize=14;fontColor=#ffffff;fillColor=#60a917;strokeColor=#2D7600;fontStyle=1" parent="1" vertex="1">
                    <mxGeometry x="1250" y="1250" width="100" height="60" as="geometry"/>
                </mxCell>
                <mxCell id="OoclnVh-KexoFJoPNR6n-33" value="&lt;font style=&quot;font-size: 14px;&quot;&gt;&lt;span style=&quot;font-size: 14px;&quot;&gt;Affillication&lt;/span&gt;&lt;/font&gt;" style="ellipse;shape=doubleEllipse;whiteSpace=wrap;html=1;strokeWidth=5;fontSize=14;fontColor=#ffffff;fillColor=#60a917;strokeColor=#2D7600;fontStyle=1" parent="1" vertex="1">
                    <mxGeometry x="2160" y="390" width="131" height="60" as="geometry"/>
                </mxCell>
                <mxCell id="OoclnVh-KexoFJoPNR6n-34" value="" style="endArrow=none;html=1;fillColor=#60a917;strokeColor=#2D7600;strokeWidth=4;exitX=1;exitY=1;exitDx=0;exitDy=0;entryX=0;entryY=0;entryDx=0;entryDy=0;fontStyle=1;fontSize=14;" parent="1" source="OoclnVh-KexoFJoPNR6n-26" target="vsHWUfJ7JOhYAshzIWbk-3" edge="1">
                    <mxGeometry width="50" height="50" relative="1" as="geometry">
                        <mxPoint x="1522.29" y="1210" as="sourcePoint"/>
                        <mxPoint x="1419.9952731426395" y="1350.1088747144356" as="targetPoint"/>
                    </mxGeometry>
                </mxCell>
                <mxCell id="OoclnVh-KexoFJoPNR6n-35" value="" style="endArrow=none;html=1;fillColor=#60a917;strokeColor=#2D7600;strokeWidth=4;exitX=1;exitY=0.5;exitDx=0;exitDy=0;entryX=0.002;entryY=0.616;entryDx=0;entryDy=0;entryPerimeter=0;fontStyle=1;fontSize=14;" parent="1" source="OoclnVh-KexoFJoPNR6n-32" target="vsHWUfJ7JOhYAshzIWbk-3" edge="1">
                    <mxGeometry width="50" height="50" relative="1" as="geometry">
                        <mxPoint x="1390.000934098195" y="1269.9975777606269" as="sourcePoint"/>
                        <mxPoint x="1494.52" y="1298.86" as="targetPoint"/>
                    </mxGeometry>
                </mxCell>
                <mxCell id="OoclnVh-KexoFJoPNR6n-36" value="" style="endArrow=none;html=1;fillColor=#60a917;strokeColor=#2D7600;strokeWidth=4;exitX=0.5;exitY=0;exitDx=0;exitDy=0;entryX=0;entryY=1;entryDx=0;entryDy=0;fontStyle=1;fontSize=14;" parent="1" source="OoclnVh-KexoFJoPNR6n-21" target="vsHWUfJ7JOhYAshzIWbk-3" edge="1">
                    <mxGeometry width="50" height="50" relative="1" as="geometry">
                        <mxPoint x="1300" y="1380" as="sourcePoint"/>
                        <mxPoint x="1490.24" y="1366.96" as="targetPoint"/>
                    </mxGeometry>
                </mxCell>
                <mxCell id="OoclnVh-KexoFJoPNR6n-37" value="" style="endArrow=none;html=1;fillColor=#60a917;strokeColor=#2D7600;strokeWidth=4;exitX=0;exitY=0;exitDx=0;exitDy=0;entryX=1;entryY=1;entryDx=0;entryDy=0;fontStyle=1;fontSize=14;" parent="1" source="OoclnVh-KexoFJoPNR6n-22" target="vsHWUfJ7JOhYAshzIWbk-3" edge="1">
                    <mxGeometry width="50" height="50" relative="1" as="geometry">
                        <mxPoint x="1480" y="1430" as="sourcePoint"/>
                        <mxPoint x="1618.5" y="1370" as="targetPoint"/>
                    </mxGeometry>
                </mxCell>
                <mxCell id="OoclnVh-KexoFJoPNR6n-38" value="" style="endArrow=none;html=1;fillColor=#60a917;strokeColor=#2D7600;strokeWidth=4;exitX=0;exitY=0.5;exitDx=0;exitDy=0;entryX=1;entryY=0;entryDx=0;entryDy=0;fontStyle=1;fontSize=14;" parent="1" source="OoclnVh-KexoFJoPNR6n-24" target="vsHWUfJ7JOhYAshzIWbk-3" edge="1">
                    <mxGeometry width="50" height="50" relative="1" as="geometry">
                        <mxPoint x="1740.2947268573605" y="1339.998874714436" as="sourcePoint"/>
                        <mxPoint x="1696" y="1279.89" as="targetPoint"/>
                    </mxGeometry>
                </mxCell>
                <mxCell id="bUKS3UZX1RgXkP0vspUP-1" value="&lt;span style=&quot;font-size: 14px; font-family: Arial; text-decoration-skip-ink: none;&quot;&gt;REVIEWES_PAPER&lt;/span&gt;" style="html=1;whiteSpace=wrap;aspect=fixed;shape=isoRectangle;fontColor=#ffffff;fillColor=#1ba1e2;strokeColor=#006EAF;fontStyle=1;fontSize=14;" parent="1" vertex="1">
                    <mxGeometry x="1515" y="985" width="158.67" height="95.2" as="geometry"/>
                </mxCell>
                <mxCell id="ylH7X945sPAXoPdPb079-1" value="" style="endArrow=none;html=1;strokeWidth=4;fontColor=#FFFFFF;fillColor=#e51400;strokeColor=#B20000;entryX=0.52;entryY=0.028;entryDx=0;entryDy=0;exitX=0.5;exitY=1;exitDx=0;exitDy=0;entryPerimeter=0;fontStyle=1;fontSize=14;shape=link;" parent="1" source="vsHWUfJ7JOhYAshzIWbk-2" target="bUKS3UZX1RgXkP0vspUP-1" edge="1">
                    <mxGeometry width="50" height="50" relative="1" as="geometry">
                        <mxPoint x="1597.58" y="890" as="sourcePoint"/>
                        <mxPoint x="1629.08" y="955.3299999999999" as="targetPoint"/>
                    </mxGeometry>
                </mxCell>
                <UserObject label="N" placeholders="1" name="Variable" id="VazZFJr3IL-5AG9_kmnB-2">
                    <mxCell style="text;html=1;strokeColor=none;fillColor=none;align=center;verticalAlign=middle;whiteSpace=wrap;overflow=hidden;strokeWidth=5;fontSize=14;fontColor=#FFFFFF;fontStyle=1" parent="1" vertex="1">
                        <mxGeometry x="1560" y="830" width="80" height="20" as="geometry"/>
                    </mxCell>
                </UserObject>
                <UserObject label="M" placeholders="1" name="Variable" id="VazZFJr3IL-5AG9_kmnB-3">
                    <mxCell style="text;html=1;strokeColor=none;fillColor=none;align=center;verticalAlign=middle;whiteSpace=wrap;overflow=hidden;strokeWidth=5;fontSize=14;fontColor=#FFFFFF;fontStyle=1" parent="1" vertex="1">
                        <mxGeometry x="1533.33" y="1100" width="80" height="20" as="geometry"/>
                    </mxCell>
                </UserObject>
                <mxCell id="VazZFJr3IL-5AG9_kmnB-4" value="&lt;font face=&quot;Arial&quot; style=&quot;font-size: 14px;&quot;&gt;&lt;span style=&quot;font-size: 14px;&quot;&gt;&lt;span style=&quot;font-size: 14px;&quot;&gt;Writes&lt;/span&gt;&lt;/span&gt;&lt;/font&gt;" style="html=1;whiteSpace=wrap;aspect=fixed;shape=isoRectangle;fontColor=#ffffff;fillColor=#1ba1e2;strokeColor=#006EAF;fontStyle=1;fontSize=14;" parent="1" vertex="1">
                    <mxGeometry x="1846.0000000000005" y="370" width="133.34" height="80" as="geometry"/>
                </mxCell>
                <mxCell id="VazZFJr3IL-5AG9_kmnB-5" value="&lt;font face=&quot;Arial&quot; style=&quot;font-size: 14px;&quot;&gt;&lt;span style=&quot;font-size: 14px;&quot;&gt;Contact_Author&lt;/span&gt;&lt;/font&gt;" style="html=1;whiteSpace=wrap;aspect=fixed;shape=isoRectangle;fontColor=#ffffff;fillColor=#1ba1e2;strokeColor=#006EAF;fontStyle=1;fontSize=14;" parent="1" vertex="1">
                    <mxGeometry x="1954.0000000000002" y="472" width="133.34" height="80" as="geometry"/>
                </mxCell>
                <mxCell id="VazZFJr3IL-5AG9_kmnB-9" value="" style="endArrow=none;html=1;strokeWidth=4;fontColor=#FFFFFF;fillColor=#e51400;strokeColor=#B20000;entryX=1;entryY=0.25;entryDx=0;entryDy=0;exitX=0.227;exitY=0.732;exitDx=0;exitDy=0;exitPerimeter=0;fontStyle=1;fontSize=14;shape=link;" parent="1" source="VazZFJr3IL-5AG9_kmnB-4" target="vsHWUfJ7JOhYAshzIWbk-2" edge="1">
                    <mxGeometry width="50" height="50" relative="1" as="geometry">
                        <mxPoint x="1630" y="650" as="sourcePoint"/>
                        <mxPoint x="1612.6668000000002" y="1002.2399999999998" as="targetPoint"/>
                    </mxGeometry>
                </mxCell>
                <UserObject label="1" placeholders="1" name="Variable" id="VazZFJr3IL-5AG9_kmnB-12">
                    <mxCell style="text;html=1;strokeColor=none;fillColor=none;align=center;verticalAlign=middle;whiteSpace=wrap;overflow=hidden;strokeWidth=5;fontSize=14;fontColor=#FFFFFF;fontStyle=1" parent="1" vertex="1">
                        <mxGeometry x="2031.5" y="420" width="80" height="20" as="geometry"/>
                    </mxCell>
                </UserObject>
                <UserObject label="N" placeholders="1" name="Variable" id="VazZFJr3IL-5AG9_kmnB-13">
                    <mxCell style="text;html=1;strokeColor=none;fillColor=none;align=center;verticalAlign=middle;whiteSpace=wrap;overflow=hidden;strokeWidth=5;fontSize=14;fontColor=#FFFFFF;fontStyle=1" parent="1" vertex="1">
                        <mxGeometry x="1838" y="550" width="80" height="20" as="geometry"/>
                    </mxCell>
                </UserObject>
                <UserObject label="M" placeholders="1" name="Variable" id="VazZFJr3IL-5AG9_kmnB-14">
                    <mxCell style="text;html=1;strokeColor=none;fillColor=none;align=center;verticalAlign=middle;whiteSpace=wrap;overflow=hidden;strokeWidth=5;fontSize=14;fontColor=#FFFFFF;fontStyle=1" parent="1" vertex="1">
                        <mxGeometry x="1984" y="330" width="80" height="20" as="geometry"/>
                    </mxCell>
                </UserObject>
                <UserObject label="N" placeholders="1" name="Variable" id="VazZFJr3IL-5AG9_kmnB-15">
                    <mxCell style="text;html=1;strokeColor=none;fillColor=none;align=center;verticalAlign=middle;whiteSpace=wrap;overflow=hidden;strokeWidth=5;fontSize=14;fontColor=#FFFFFF;fontStyle=1" parent="1" vertex="1">
                        <mxGeometry x="1803" y="480" width="80" height="20" as="geometry"/>
                    </mxCell>
                </UserObject>
                <mxCell id="RsAO6TZLmjpu6_KCnjgW-4" value="" style="endArrow=none;html=1;strokeWidth=4;fontColor=#FFFFFF;fillColor=#e51400;strokeColor=#B20000;entryX=1;entryY=0.5;entryDx=0;entryDy=0;exitX=0.431;exitY=0.894;exitDx=0;exitDy=0;exitPerimeter=0;fontStyle=1;fontSize=14;shape=link;" parent="1" source="VazZFJr3IL-5AG9_kmnB-5" target="vsHWUfJ7JOhYAshzIWbk-2" edge="1">
                    <mxGeometry width="50" height="50" relative="1" as="geometry">
                        <mxPoint x="1888.5981800000004" y="443.55999999999995" as="sourcePoint"/>
                        <mxPoint x="1713" y="619" as="targetPoint"/>
                    </mxGeometry>
                </mxCell>
            </root>
        </mxGraphModel>
    </diagram>
</mxfile>